<?xml version="1.0" encoding="UTF-8"?>
<svg xmlns="http://www.w3.org/2000/svg" xmlns:xlink="http://www.w3.org/1999/xlink" width="640pt" height="384pt" viewBox="0 0 640 384" version="1.1">
<defs>
<g>
<symbol overflow="visible" id="glyph0-0">
<path style="stroke:none;" d="M 0.640625 2.296875 L 0.640625 -9.171875 L 7.140625 -9.171875 L 7.140625 2.296875 Z M 1.375 1.578125 L 6.421875 1.578125 L 6.421875 -8.4375 L 1.375 -8.4375 Z M 1.375 1.578125 "/>
</symbol>
<symbol overflow="visible" id="glyph0-1">
<path style="stroke:none;" d=""/>
</symbol>
<symbol overflow="visible" id="glyph0-2">
<path style="stroke:none;" d="M 4.125 -8.640625 C 3.46875 -8.640625 2.972656 -8.3125 2.640625 -7.65625 C 2.304688 -7.007812 2.140625 -6.035156 2.140625 -4.734375 C 2.140625 -3.429688 2.304688 -2.453125 2.640625 -1.796875 C 2.972656 -1.148438 3.46875 -0.828125 4.125 -0.828125 C 4.789062 -0.828125 5.289062 -1.148438 5.625 -1.796875 C 5.957031 -2.453125 6.125 -3.429688 6.125 -4.734375 C 6.125 -6.035156 5.957031 -7.007812 5.625 -7.65625 C 5.289062 -8.3125 4.789062 -8.640625 4.125 -8.640625 Z M 4.125 -9.65625 C 5.1875 -9.65625 6 -9.234375 6.5625 -8.390625 C 7.125 -7.546875 7.40625 -6.328125 7.40625 -4.734375 C 7.40625 -3.140625 7.125 -1.921875 6.5625 -1.078125 C 6 -0.234375 5.1875 0.1875 4.125 0.1875 C 3.070312 0.1875 2.265625 -0.234375 1.703125 -1.078125 C 1.140625 -1.921875 0.859375 -3.140625 0.859375 -4.734375 C 0.859375 -6.328125 1.140625 -7.546875 1.703125 -8.390625 C 2.265625 -9.234375 3.070312 -9.65625 4.125 -9.65625 Z M 4.125 -9.65625 "/>
</symbol>
<symbol overflow="visible" id="glyph0-3">
<path style="stroke:none;" d="M 1.390625 -1.609375 L 2.734375 -1.609375 L 2.734375 0 L 1.390625 0 Z M 1.390625 -1.609375 "/>
</symbol>
<symbol overflow="visible" id="glyph0-4">
<path style="stroke:none;" d="M 7.3125 -3.84375 L 7.3125 -3.28125 L 1.9375 -3.28125 C 1.988281 -2.46875 2.226562 -1.851562 2.65625 -1.4375 C 3.09375 -1.019531 3.695312 -0.8125 4.46875 -0.8125 C 4.914062 -0.8125 5.347656 -0.863281 5.765625 -0.96875 C 6.191406 -1.082031 6.613281 -1.25 7.03125 -1.46875 L 7.03125 -0.359375 C 6.613281 -0.179688 6.179688 -0.046875 5.734375 0.046875 C 5.296875 0.140625 4.851562 0.1875 4.40625 0.1875 C 3.269531 0.1875 2.367188 -0.140625 1.703125 -0.796875 C 1.046875 -1.460938 0.71875 -2.359375 0.71875 -3.484375 C 0.71875 -4.648438 1.03125 -5.570312 1.65625 -6.25 C 2.289062 -6.9375 3.140625 -7.28125 4.203125 -7.28125 C 5.160156 -7.28125 5.914062 -6.972656 6.46875 -6.359375 C 7.03125 -5.742188 7.3125 -4.90625 7.3125 -3.84375 Z M 6.140625 -4.1875 C 6.128906 -4.820312 5.945312 -5.332031 5.59375 -5.71875 C 5.25 -6.101562 4.789062 -6.296875 4.21875 -6.296875 C 3.5625 -6.296875 3.035156 -6.109375 2.640625 -5.734375 C 2.253906 -5.367188 2.03125 -4.851562 1.96875 -4.1875 Z M 6.140625 -4.1875 "/>
</symbol>
<symbol overflow="visible" id="glyph0-5">
<path style="stroke:none;" d="M 5.984375 -8.15625 L 5.984375 -4.609375 L 9.515625 -4.609375 L 9.515625 -3.53125 L 5.984375 -3.53125 L 5.984375 0 L 4.90625 0 L 4.90625 -3.53125 L 1.375 -3.53125 L 1.375 -4.609375 L 4.90625 -4.609375 L 4.90625 -8.15625 Z M 5.984375 -8.15625 "/>
</symbol>
<symbol overflow="visible" id="glyph0-6">
<path style="stroke:none;" d="M 1.609375 -1.078125 L 3.703125 -1.078125 L 3.703125 -8.3125 L 1.421875 -7.859375 L 1.421875 -9.015625 L 3.6875 -9.484375 L 4.984375 -9.484375 L 4.984375 -1.078125 L 7.078125 -1.078125 L 7.078125 0 L 1.609375 0 Z M 1.609375 -1.078125 "/>
</symbol>
<symbol overflow="visible" id="glyph0-7">
<path style="stroke:none;" d="M 0.640625 -4.078125 L 4.0625 -4.078125 L 4.0625 -3.046875 L 0.640625 -3.046875 Z M 0.640625 -4.078125 "/>
</symbol>
<symbol overflow="visible" id="glyph0-8">
<path style="stroke:none;" d="M 2.5 -1.078125 L 6.96875 -1.078125 L 6.96875 0 L 0.953125 0 L 0.953125 -1.078125 C 1.441406 -1.578125 2.101562 -2.25 2.9375 -3.09375 C 3.78125 -3.945312 4.3125 -4.5 4.53125 -4.75 C 4.9375 -5.207031 5.21875 -5.597656 5.375 -5.921875 C 5.539062 -6.242188 5.625 -6.554688 5.625 -6.859375 C 5.625 -7.367188 5.445312 -7.78125 5.09375 -8.09375 C 4.75 -8.40625 4.289062 -8.5625 3.71875 -8.5625 C 3.3125 -8.5625 2.882812 -8.492188 2.4375 -8.359375 C 2 -8.222656 1.523438 -8.007812 1.015625 -7.71875 L 1.015625 -9.015625 C 1.535156 -9.222656 2.019531 -9.378906 2.46875 -9.484375 C 2.914062 -9.597656 3.320312 -9.65625 3.6875 -9.65625 C 4.675781 -9.65625 5.460938 -9.40625 6.046875 -8.90625 C 6.628906 -8.414062 6.921875 -7.757812 6.921875 -6.9375 C 6.921875 -6.550781 6.847656 -6.179688 6.703125 -5.828125 C 6.554688 -5.484375 6.289062 -5.078125 5.90625 -4.609375 C 5.800781 -4.484375 5.460938 -4.125 4.890625 -3.53125 C 4.328125 -2.945312 3.53125 -2.128906 2.5 -1.078125 Z M 2.5 -1.078125 "/>
</symbol>
<symbol overflow="visible" id="glyph0-9">
<path style="stroke:none;" d="M 5.28125 -5.109375 C 5.894531 -4.972656 6.375 -4.695312 6.71875 -4.28125 C 7.0625 -3.875 7.234375 -3.363281 7.234375 -2.75 C 7.234375 -1.820312 6.910156 -1.097656 6.265625 -0.578125 C 5.617188 -0.0664062 4.703125 0.1875 3.515625 0.1875 C 3.117188 0.1875 2.707031 0.144531 2.28125 0.0625 C 1.863281 -0.0078125 1.429688 -0.125 0.984375 -0.28125 L 0.984375 -1.53125 C 1.347656 -1.320312 1.738281 -1.160156 2.15625 -1.046875 C 2.582031 -0.941406 3.023438 -0.890625 3.484375 -0.890625 C 4.285156 -0.890625 4.894531 -1.046875 5.3125 -1.359375 C 5.738281 -1.679688 5.953125 -2.144531 5.953125 -2.75 C 5.953125 -3.3125 5.753906 -3.75 5.359375 -4.0625 C 4.972656 -4.375 4.429688 -4.53125 3.734375 -4.53125 L 2.625 -4.53125 L 2.625 -5.59375 L 3.78125 -5.59375 C 4.414062 -5.59375 4.898438 -5.71875 5.234375 -5.96875 C 5.566406 -6.21875 5.734375 -6.582031 5.734375 -7.0625 C 5.734375 -7.539062 5.5625 -7.910156 5.21875 -8.171875 C 4.875 -8.429688 4.378906 -8.5625 3.734375 -8.5625 C 3.378906 -8.5625 3 -8.523438 2.59375 -8.453125 C 2.195312 -8.378906 1.757812 -8.257812 1.28125 -8.09375 L 1.28125 -9.25 C 1.757812 -9.382812 2.210938 -9.484375 2.640625 -9.546875 C 3.066406 -9.617188 3.46875 -9.65625 3.84375 -9.65625 C 4.820312 -9.65625 5.59375 -9.429688 6.15625 -8.984375 C 6.726562 -8.546875 7.015625 -7.945312 7.015625 -7.1875 C 7.015625 -6.664062 6.863281 -6.222656 6.5625 -5.859375 C 6.257812 -5.492188 5.832031 -5.242188 5.28125 -5.109375 Z M 5.28125 -5.109375 "/>
</symbol>
<symbol overflow="visible" id="glyph0-10">
<path style="stroke:none;" d="M 4.90625 -8.359375 L 1.671875 -3.296875 L 4.90625 -3.296875 Z M 4.578125 -9.484375 L 6.1875 -9.484375 L 6.1875 -3.296875 L 7.546875 -3.296875 L 7.546875 -2.234375 L 6.1875 -2.234375 L 6.1875 0 L 4.90625 0 L 4.90625 -2.234375 L 0.640625 -2.234375 L 0.640625 -3.46875 Z M 4.578125 -9.484375 "/>
</symbol>
<symbol overflow="visible" id="glyph0-11">
<path style="stroke:none;" d="M 1.40625 -9.484375 L 6.4375 -9.484375 L 6.4375 -8.390625 L 2.578125 -8.390625 L 2.578125 -6.078125 C 2.765625 -6.140625 2.953125 -6.1875 3.140625 -6.21875 C 3.328125 -6.25 3.507812 -6.265625 3.6875 -6.265625 C 4.75 -6.265625 5.585938 -5.972656 6.203125 -5.390625 C 6.828125 -4.816406 7.140625 -4.035156 7.140625 -3.046875 C 7.140625 -2.023438 6.820312 -1.226562 6.1875 -0.65625 C 5.550781 -0.09375 4.65625 0.1875 3.5 0.1875 C 3.101562 0.1875 2.695312 0.148438 2.28125 0.078125 C 1.863281 0.015625 1.4375 -0.0820312 1 -0.21875 L 1 -1.515625 C 1.382812 -1.304688 1.78125 -1.148438 2.1875 -1.046875 C 2.59375 -0.941406 3.019531 -0.890625 3.46875 -0.890625 C 4.207031 -0.890625 4.789062 -1.082031 5.21875 -1.46875 C 5.644531 -1.851562 5.859375 -2.378906 5.859375 -3.046875 C 5.859375 -3.703125 5.644531 -4.222656 5.21875 -4.609375 C 4.789062 -4.992188 4.207031 -5.1875 3.46875 -5.1875 C 3.125 -5.1875 2.78125 -5.144531 2.4375 -5.0625 C 2.101562 -4.988281 1.757812 -4.875 1.40625 -4.71875 Z M 1.40625 -9.484375 "/>
</symbol>
<symbol overflow="visible" id="glyph0-12">
<path style="stroke:none;" d="M 4.296875 -5.25 C 3.710938 -5.25 3.253906 -5.050781 2.921875 -4.65625 C 2.585938 -4.257812 2.421875 -3.722656 2.421875 -3.046875 C 2.421875 -2.359375 2.585938 -1.816406 2.921875 -1.421875 C 3.253906 -1.023438 3.710938 -0.828125 4.296875 -0.828125 C 4.867188 -0.828125 5.320312 -1.023438 5.65625 -1.421875 C 5.988281 -1.816406 6.15625 -2.359375 6.15625 -3.046875 C 6.15625 -3.722656 5.988281 -4.257812 5.65625 -4.65625 C 5.320312 -5.050781 4.867188 -5.25 4.296875 -5.25 Z M 6.84375 -9.265625 L 6.84375 -8.09375 C 6.519531 -8.25 6.191406 -8.363281 5.859375 -8.4375 C 5.535156 -8.519531 5.210938 -8.5625 4.890625 -8.5625 C 4.046875 -8.5625 3.398438 -8.273438 2.953125 -7.703125 C 2.503906 -7.140625 2.25 -6.28125 2.1875 -5.125 C 2.4375 -5.488281 2.75 -5.769531 3.125 -5.96875 C 3.5 -6.164062 3.914062 -6.265625 4.375 -6.265625 C 5.320312 -6.265625 6.070312 -5.972656 6.625 -5.390625 C 7.175781 -4.816406 7.453125 -4.035156 7.453125 -3.046875 C 7.453125 -2.066406 7.160156 -1.28125 6.578125 -0.6875 C 6.003906 -0.101562 5.242188 0.1875 4.296875 0.1875 C 3.191406 0.1875 2.347656 -0.234375 1.765625 -1.078125 C 1.191406 -1.921875 0.90625 -3.140625 0.90625 -4.734375 C 0.90625 -6.222656 1.257812 -7.414062 1.96875 -8.3125 C 2.6875 -9.207031 3.644531 -9.65625 4.84375 -9.65625 C 5.15625 -9.65625 5.472656 -9.617188 5.796875 -9.546875 C 6.128906 -9.484375 6.476562 -9.390625 6.84375 -9.265625 Z M 6.84375 -9.265625 "/>
</symbol>
<symbol overflow="visible" id="glyph0-13">
<path style="stroke:none;" d="M 1.0625 -9.484375 L 7.15625 -9.484375 L 7.15625 -8.9375 L 3.71875 0 L 2.375 0 L 5.625 -8.390625 L 1.0625 -8.390625 Z M 1.0625 -9.484375 "/>
</symbol>
<symbol overflow="visible" id="glyph0-14">
<path style="stroke:none;" d="M 4.125 -4.5 C 3.519531 -4.5 3.039062 -4.332031 2.6875 -4 C 2.34375 -3.675781 2.171875 -3.234375 2.171875 -2.671875 C 2.171875 -2.097656 2.34375 -1.644531 2.6875 -1.3125 C 3.039062 -0.988281 3.519531 -0.828125 4.125 -0.828125 C 4.738281 -0.828125 5.21875 -0.988281 5.5625 -1.3125 C 5.914062 -1.644531 6.09375 -2.097656 6.09375 -2.671875 C 6.09375 -3.234375 5.914062 -3.675781 5.5625 -4 C 5.21875 -4.332031 4.738281 -4.5 4.125 -4.5 Z M 2.84375 -5.046875 C 2.300781 -5.179688 1.875 -5.4375 1.5625 -5.8125 C 1.257812 -6.1875 1.109375 -6.644531 1.109375 -7.1875 C 1.109375 -7.945312 1.375 -8.546875 1.90625 -8.984375 C 2.445312 -9.429688 3.1875 -9.65625 4.125 -9.65625 C 5.070312 -9.65625 5.8125 -9.429688 6.34375 -8.984375 C 6.882812 -8.546875 7.15625 -7.945312 7.15625 -7.1875 C 7.15625 -6.644531 7 -6.1875 6.6875 -5.8125 C 6.382812 -5.4375 5.960938 -5.179688 5.421875 -5.046875 C 6.035156 -4.898438 6.515625 -4.617188 6.859375 -4.203125 C 7.203125 -3.785156 7.375 -3.273438 7.375 -2.671875 C 7.375 -1.742188 7.09375 -1.035156 6.53125 -0.546875 C 5.976562 -0.0546875 5.175781 0.1875 4.125 0.1875 C 3.082031 0.1875 2.28125 -0.0546875 1.71875 -0.546875 C 1.15625 -1.035156 0.875 -1.742188 0.875 -2.671875 C 0.875 -3.273438 1.046875 -3.785156 1.390625 -4.203125 C 1.742188 -4.617188 2.226562 -4.898438 2.84375 -5.046875 Z M 2.375 -7.078125 C 2.375 -6.578125 2.523438 -6.191406 2.828125 -5.921875 C 3.140625 -5.648438 3.570312 -5.515625 4.125 -5.515625 C 4.675781 -5.515625 5.109375 -5.648438 5.421875 -5.921875 C 5.734375 -6.191406 5.890625 -6.578125 5.890625 -7.078125 C 5.890625 -7.566406 5.734375 -7.945312 5.421875 -8.21875 C 5.109375 -8.5 4.675781 -8.640625 4.125 -8.640625 C 3.570312 -8.640625 3.140625 -8.5 2.828125 -8.21875 C 2.523438 -7.945312 2.375 -7.566406 2.375 -7.078125 Z M 2.375 -7.078125 "/>
</symbol>
<symbol overflow="visible" id="glyph0-15">
<path style="stroke:none;" d="M 1.421875 -0.203125 L 1.421875 -1.359375 C 1.742188 -1.210938 2.070312 -1.097656 2.40625 -1.015625 C 2.738281 -0.929688 3.0625 -0.890625 3.375 -0.890625 C 4.21875 -0.890625 4.863281 -1.175781 5.3125 -1.75 C 5.757812 -2.320312 6.015625 -3.1875 6.078125 -4.34375 C 5.835938 -3.976562 5.523438 -3.695312 5.140625 -3.5 C 4.765625 -3.3125 4.347656 -3.21875 3.890625 -3.21875 C 2.941406 -3.21875 2.191406 -3.503906 1.640625 -4.078125 C 1.085938 -4.648438 0.8125 -5.429688 0.8125 -6.421875 C 0.8125 -7.398438 1.097656 -8.179688 1.671875 -8.765625 C 2.253906 -9.359375 3.023438 -9.65625 3.984375 -9.65625 C 5.078125 -9.65625 5.910156 -9.234375 6.484375 -8.390625 C 7.066406 -7.546875 7.359375 -6.328125 7.359375 -4.734375 C 7.359375 -3.234375 7.003906 -2.035156 6.296875 -1.140625 C 5.585938 -0.253906 4.632812 0.1875 3.4375 0.1875 C 3.113281 0.1875 2.785156 0.15625 2.453125 0.09375 C 2.128906 0.03125 1.785156 -0.0664062 1.421875 -0.203125 Z M 3.984375 -4.21875 C 4.554688 -4.21875 5.007812 -4.410156 5.34375 -4.796875 C 5.6875 -5.191406 5.859375 -5.734375 5.859375 -6.421875 C 5.859375 -7.109375 5.6875 -7.648438 5.34375 -8.046875 C 5.007812 -8.441406 4.554688 -8.640625 3.984375 -8.640625 C 3.398438 -8.640625 2.941406 -8.441406 2.609375 -8.046875 C 2.273438 -7.648438 2.109375 -7.109375 2.109375 -6.421875 C 2.109375 -5.734375 2.273438 -5.191406 2.609375 -4.796875 C 2.941406 -4.410156 3.398438 -4.21875 3.984375 -4.21875 Z M 3.984375 -4.21875 "/>
</symbol>
<symbol overflow="visible" id="glyph0-16">
<path style="stroke:none;" d="M 2.375 -9.125 L 2.375 -7.109375 L 4.78125 -7.109375 L 4.78125 -6.203125 L 2.375 -6.203125 L 2.375 -2.34375 C 2.375 -1.757812 2.453125 -1.382812 2.609375 -1.21875 C 2.773438 -1.0625 3.101562 -0.984375 3.59375 -0.984375 L 4.78125 -0.984375 L 4.78125 0 L 3.59375 0 C 2.6875 0 2.0625 -0.164062 1.71875 -0.5 C 1.375 -0.84375 1.203125 -1.457031 1.203125 -2.34375 L 1.203125 -6.203125 L 0.34375 -6.203125 L 0.34375 -7.109375 L 1.203125 -7.109375 L 1.203125 -9.125 Z M 2.375 -9.125 "/>
</symbol>
<symbol overflow="visible" id="glyph0-17">
<path style="stroke:none;" d="M 5.34375 -6.015625 C 5.207031 -6.085938 5.0625 -6.140625 4.90625 -6.171875 C 4.757812 -6.210938 4.59375 -6.234375 4.40625 -6.234375 C 3.75 -6.234375 3.242188 -6.019531 2.890625 -5.59375 C 2.535156 -5.164062 2.359375 -4.550781 2.359375 -3.75 L 2.359375 0 L 1.1875 0 L 1.1875 -7.109375 L 2.359375 -7.109375 L 2.359375 -6 C 2.597656 -6.4375 2.914062 -6.757812 3.3125 -6.96875 C 3.707031 -7.175781 4.1875 -7.28125 4.75 -7.28125 C 4.832031 -7.28125 4.921875 -7.273438 5.015625 -7.265625 C 5.109375 -7.253906 5.21875 -7.238281 5.34375 -7.21875 Z M 5.34375 -6.015625 "/>
</symbol>
<symbol overflow="visible" id="glyph0-18">
<path style="stroke:none;" d="M 4.453125 -3.578125 C 3.515625 -3.578125 2.863281 -3.46875 2.5 -3.25 C 2.132812 -3.03125 1.953125 -2.660156 1.953125 -2.140625 C 1.953125 -1.734375 2.085938 -1.40625 2.359375 -1.15625 C 2.628906 -0.914062 3 -0.796875 3.46875 -0.796875 C 4.113281 -0.796875 4.632812 -1.023438 5.03125 -1.484375 C 5.425781 -1.941406 5.625 -2.550781 5.625 -3.3125 L 5.625 -3.578125 Z M 6.78125 -4.0625 L 6.78125 0 L 5.625 0 L 5.625 -1.078125 C 5.351562 -0.648438 5.019531 -0.332031 4.625 -0.125 C 4.226562 0.0820312 3.738281 0.1875 3.15625 0.1875 C 2.425781 0.1875 1.847656 -0.015625 1.421875 -0.421875 C 0.992188 -0.835938 0.78125 -1.382812 0.78125 -2.0625 C 0.78125 -2.863281 1.046875 -3.46875 1.578125 -3.875 C 2.117188 -4.28125 2.921875 -4.484375 3.984375 -4.484375 L 5.625 -4.484375 L 5.625 -4.609375 C 5.625 -5.140625 5.445312 -5.550781 5.09375 -5.84375 C 4.738281 -6.144531 4.238281 -6.296875 3.59375 -6.296875 C 3.1875 -6.296875 2.789062 -6.242188 2.40625 -6.140625 C 2.019531 -6.046875 1.648438 -5.898438 1.296875 -5.703125 L 1.296875 -6.78125 C 1.722656 -6.945312 2.140625 -7.070312 2.546875 -7.15625 C 2.953125 -7.238281 3.34375 -7.28125 3.71875 -7.28125 C 4.75 -7.28125 5.515625 -7.015625 6.015625 -6.484375 C 6.523438 -5.953125 6.78125 -5.144531 6.78125 -4.0625 Z M 6.78125 -4.0625 "/>
</symbol>
<symbol overflow="visible" id="glyph0-19">
<path style="stroke:none;" d="M 7.140625 -4.296875 L 7.140625 0 L 5.96875 0 L 5.96875 -4.25 C 5.96875 -4.925781 5.835938 -5.429688 5.578125 -5.765625 C 5.316406 -6.097656 4.921875 -6.265625 4.390625 -6.265625 C 3.765625 -6.265625 3.269531 -6.0625 2.90625 -5.65625 C 2.539062 -5.257812 2.359375 -4.710938 2.359375 -4.015625 L 2.359375 0 L 1.1875 0 L 1.1875 -7.109375 L 2.359375 -7.109375 L 2.359375 -6 C 2.640625 -6.425781 2.96875 -6.742188 3.34375 -6.953125 C 3.71875 -7.171875 4.15625 -7.28125 4.65625 -7.28125 C 5.46875 -7.28125 6.082031 -7.023438 6.5 -6.515625 C 6.925781 -6.015625 7.140625 -5.273438 7.140625 -4.296875 Z M 7.140625 -4.296875 "/>
</symbol>
<symbol overflow="visible" id="glyph0-20">
<path style="stroke:none;" d="M 5.75 -6.90625 L 5.75 -5.796875 C 5.425781 -5.960938 5.085938 -6.085938 4.734375 -6.171875 C 4.378906 -6.253906 4.007812 -6.296875 3.625 -6.296875 C 3.039062 -6.296875 2.601562 -6.207031 2.3125 -6.03125 C 2.03125 -5.851562 1.890625 -5.585938 1.890625 -5.234375 C 1.890625 -4.960938 1.988281 -4.75 2.1875 -4.59375 C 2.394531 -4.445312 2.816406 -4.300781 3.453125 -4.15625 L 3.84375 -4.0625 C 4.675781 -3.882812 5.265625 -3.632812 5.609375 -3.3125 C 5.960938 -2.988281 6.140625 -2.539062 6.140625 -1.96875 C 6.140625 -1.300781 5.878906 -0.773438 5.359375 -0.390625 C 4.835938 -0.00390625 4.117188 0.1875 3.203125 0.1875 C 2.816406 0.1875 2.414062 0.148438 2 0.078125 C 1.59375 0.00390625 1.160156 -0.109375 0.703125 -0.265625 L 0.703125 -1.46875 C 1.140625 -1.238281 1.566406 -1.066406 1.984375 -0.953125 C 2.398438 -0.847656 2.8125 -0.796875 3.21875 -0.796875 C 3.769531 -0.796875 4.191406 -0.890625 4.484375 -1.078125 C 4.785156 -1.265625 4.9375 -1.53125 4.9375 -1.875 C 4.9375 -2.1875 4.828125 -2.425781 4.609375 -2.59375 C 4.398438 -2.769531 3.9375 -2.9375 3.21875 -3.09375 L 2.8125 -3.1875 C 2.082031 -3.34375 1.554688 -3.578125 1.234375 -3.890625 C 0.910156 -4.203125 0.75 -4.632812 0.75 -5.1875 C 0.75 -5.851562 0.984375 -6.367188 1.453125 -6.734375 C 1.929688 -7.097656 2.609375 -7.28125 3.484375 -7.28125 C 3.910156 -7.28125 4.316406 -7.25 4.703125 -7.1875 C 5.085938 -7.125 5.4375 -7.03125 5.75 -6.90625 Z M 5.75 -6.90625 "/>
</symbol>
<symbol overflow="visible" id="glyph0-21">
<path style="stroke:none;" d="M 6.765625 -5.75 C 7.054688 -6.269531 7.40625 -6.65625 7.8125 -6.90625 C 8.21875 -7.15625 8.695312 -7.28125 9.25 -7.28125 C 9.988281 -7.28125 10.554688 -7.019531 10.953125 -6.5 C 11.359375 -5.976562 11.5625 -5.242188 11.5625 -4.296875 L 11.5625 0 L 10.390625 0 L 10.390625 -4.25 C 10.390625 -4.9375 10.265625 -5.441406 10.015625 -5.765625 C 9.773438 -6.097656 9.410156 -6.265625 8.921875 -6.265625 C 8.316406 -6.265625 7.835938 -6.0625 7.484375 -5.65625 C 7.128906 -5.257812 6.953125 -4.710938 6.953125 -4.015625 L 6.953125 0 L 5.78125 0 L 5.78125 -4.25 C 5.78125 -4.9375 5.660156 -5.441406 5.421875 -5.765625 C 5.179688 -6.097656 4.804688 -6.265625 4.296875 -6.265625 C 3.703125 -6.265625 3.226562 -6.0625 2.875 -5.65625 C 2.53125 -5.25 2.359375 -4.703125 2.359375 -4.015625 L 2.359375 0 L 1.1875 0 L 1.1875 -7.109375 L 2.359375 -7.109375 L 2.359375 -6 C 2.617188 -6.4375 2.9375 -6.757812 3.3125 -6.96875 C 3.6875 -7.175781 4.128906 -7.28125 4.640625 -7.28125 C 5.160156 -7.28125 5.597656 -7.148438 5.953125 -6.890625 C 6.316406 -6.628906 6.585938 -6.25 6.765625 -5.75 Z M 6.765625 -5.75 "/>
</symbol>
<symbol overflow="visible" id="glyph0-22">
<path style="stroke:none;" d="M 1.21875 -7.109375 L 2.390625 -7.109375 L 2.390625 0 L 1.21875 0 Z M 1.21875 -9.875 L 2.390625 -9.875 L 2.390625 -8.390625 L 1.21875 -8.390625 Z M 1.21875 -9.875 "/>
</symbol>
<symbol overflow="visible" id="glyph0-23">
<path style="stroke:none;" d="M 3.984375 -6.296875 C 3.359375 -6.296875 2.863281 -6.050781 2.5 -5.5625 C 2.132812 -5.070312 1.953125 -4.398438 1.953125 -3.546875 C 1.953125 -2.691406 2.128906 -2.019531 2.484375 -1.53125 C 2.847656 -1.050781 3.347656 -0.8125 3.984375 -0.8125 C 4.597656 -0.8125 5.085938 -1.054688 5.453125 -1.546875 C 5.816406 -2.035156 6 -2.703125 6 -3.546875 C 6 -4.390625 5.816406 -5.054688 5.453125 -5.546875 C 5.085938 -6.046875 4.597656 -6.296875 3.984375 -6.296875 Z M 3.984375 -7.28125 C 4.992188 -7.28125 5.789062 -6.945312 6.375 -6.28125 C 6.957031 -5.625 7.25 -4.710938 7.25 -3.546875 C 7.25 -2.378906 6.957031 -1.460938 6.375 -0.796875 C 5.789062 -0.140625 4.992188 0.1875 3.984375 0.1875 C 2.960938 0.1875 2.160156 -0.140625 1.578125 -0.796875 C 1.003906 -1.460938 0.71875 -2.378906 0.71875 -3.546875 C 0.71875 -4.710938 1.003906 -5.625 1.578125 -6.28125 C 2.160156 -6.945312 2.960938 -7.28125 3.984375 -7.28125 Z M 3.984375 -7.28125 "/>
</symbol>
<symbol overflow="visible" id="glyph0-24">
<path style="stroke:none;" d="M 6.34375 -6.84375 L 6.34375 -5.75 C 6.007812 -5.925781 5.675781 -6.0625 5.34375 -6.15625 C 5.007812 -6.25 4.675781 -6.296875 4.34375 -6.296875 C 3.582031 -6.296875 2.992188 -6.050781 2.578125 -5.5625 C 2.160156 -5.082031 1.953125 -4.410156 1.953125 -3.546875 C 1.953125 -2.679688 2.160156 -2.007812 2.578125 -1.53125 C 2.992188 -1.050781 3.582031 -0.8125 4.34375 -0.8125 C 4.675781 -0.8125 5.007812 -0.851562 5.34375 -0.9375 C 5.675781 -1.03125 6.007812 -1.171875 6.34375 -1.359375 L 6.34375 -0.265625 C 6.019531 -0.117188 5.679688 -0.0078125 5.328125 0.0625 C 4.984375 0.144531 4.613281 0.1875 4.21875 0.1875 C 3.144531 0.1875 2.289062 -0.144531 1.65625 -0.8125 C 1.03125 -1.488281 0.71875 -2.398438 0.71875 -3.546875 C 0.71875 -4.703125 1.035156 -5.613281 1.671875 -6.28125 C 2.304688 -6.945312 3.179688 -7.28125 4.296875 -7.28125 C 4.648438 -7.28125 5 -7.242188 5.34375 -7.171875 C 5.6875 -7.097656 6.019531 -6.988281 6.34375 -6.84375 Z M 6.34375 -6.84375 "/>
</symbol>
<symbol overflow="visible" id="glyph0-25">
<path style="stroke:none;" d="M 4.1875 0.65625 C 3.851562 1.507812 3.53125 2.0625 3.21875 2.3125 C 2.90625 2.570312 2.488281 2.703125 1.96875 2.703125 L 1.03125 2.703125 L 1.03125 1.734375 L 1.71875 1.734375 C 2.039062 1.734375 2.289062 1.65625 2.46875 1.5 C 2.644531 1.34375 2.835938 0.984375 3.046875 0.421875 L 3.265625 -0.109375 L 0.390625 -7.109375 L 1.625 -7.109375 L 3.84375 -1.546875 L 6.0625 -7.109375 L 7.3125 -7.109375 Z M 4.1875 0.65625 "/>
</symbol>
<symbol overflow="visible" id="glyph0-26">
<path style="stroke:none;" d="M 1.21875 -9.875 L 2.390625 -9.875 L 2.390625 0 L 1.21875 0 Z M 1.21875 -9.875 "/>
</symbol>
<symbol overflow="visible" id="glyph0-27">
<path style="stroke:none;" d="M 1.28125 -9.484375 L 2.5625 -9.484375 L 2.5625 -5.59375 L 7.21875 -5.59375 L 7.21875 -9.484375 L 8.5 -9.484375 L 8.5 0 L 7.21875 0 L 7.21875 -4.515625 L 2.5625 -4.515625 L 2.5625 0 L 1.28125 0 Z M 1.28125 -9.484375 "/>
</symbol>
<symbol overflow="visible" id="glyph0-28">
<path style="stroke:none;" d="M 5.90625 -6.03125 L 5.90625 -9.875 L 7.078125 -9.875 L 7.078125 0 L 5.90625 0 L 5.90625 -1.0625 C 5.65625 -0.644531 5.34375 -0.332031 4.96875 -0.125 C 4.59375 0.0820312 4.144531 0.1875 3.625 0.1875 C 2.769531 0.1875 2.070312 -0.15625 1.53125 -0.84375 C 0.988281 -1.53125 0.71875 -2.429688 0.71875 -3.546875 C 0.71875 -4.660156 0.988281 -5.5625 1.53125 -6.25 C 2.070312 -6.9375 2.769531 -7.28125 3.625 -7.28125 C 4.144531 -7.28125 4.59375 -7.175781 4.96875 -6.96875 C 5.34375 -6.769531 5.65625 -6.457031 5.90625 -6.03125 Z M 1.921875 -3.546875 C 1.921875 -2.691406 2.097656 -2.019531 2.453125 -1.53125 C 2.804688 -1.039062 3.289062 -0.796875 3.90625 -0.796875 C 4.53125 -0.796875 5.019531 -1.039062 5.375 -1.53125 C 5.726562 -2.019531 5.90625 -2.691406 5.90625 -3.546875 C 5.90625 -4.410156 5.726562 -5.082031 5.375 -5.5625 C 5.019531 -6.050781 4.53125 -6.296875 3.90625 -6.296875 C 3.289062 -6.296875 2.804688 -6.050781 2.453125 -5.5625 C 2.097656 -5.082031 1.921875 -4.410156 1.921875 -3.546875 Z M 1.921875 -3.546875 "/>
</symbol>
<symbol overflow="visible" id="glyph0-29">
<path style="stroke:none;" d="M 1.109375 -2.8125 L 1.109375 -7.109375 L 2.265625 -7.109375 L 2.265625 -2.84375 C 2.265625 -2.175781 2.394531 -1.671875 2.65625 -1.328125 C 2.925781 -0.992188 3.320312 -0.828125 3.84375 -0.828125 C 4.476562 -0.828125 4.976562 -1.023438 5.34375 -1.421875 C 5.707031 -1.828125 5.890625 -2.378906 5.890625 -3.078125 L 5.890625 -7.109375 L 7.0625 -7.109375 L 7.0625 0 L 5.890625 0 L 5.890625 -1.09375 C 5.609375 -0.65625 5.28125 -0.332031 4.90625 -0.125 C 4.53125 0.0820312 4.09375 0.1875 3.59375 0.1875 C 2.78125 0.1875 2.160156 -0.0664062 1.734375 -0.578125 C 1.316406 -1.085938 1.109375 -1.832031 1.109375 -2.8125 Z M 4.046875 -7.28125 Z M 4.046875 -7.28125 "/>
</symbol>
<symbol overflow="visible" id="glyph0-30">
<path style="stroke:none;" d="M 4.03125 -9.859375 C 3.46875 -8.890625 3.046875 -7.925781 2.765625 -6.96875 C 2.492188 -6.019531 2.359375 -5.054688 2.359375 -4.078125 C 2.359375 -3.097656 2.492188 -2.128906 2.765625 -1.171875 C 3.046875 -0.210938 3.46875 0.75 4.03125 1.71875 L 3.015625 1.71875 C 2.378906 0.71875 1.90625 -0.257812 1.59375 -1.21875 C 1.28125 -2.175781 1.125 -3.128906 1.125 -4.078125 C 1.125 -5.023438 1.28125 -5.972656 1.59375 -6.921875 C 1.90625 -7.878906 2.378906 -8.859375 3.015625 -9.859375 Z M 4.03125 -9.859375 "/>
</symbol>
<symbol overflow="visible" id="glyph0-31">
<path style="stroke:none;" d="M 5.765625 -4.4375 C 6.046875 -4.34375 6.316406 -4.144531 6.578125 -3.84375 C 6.835938 -3.539062 7.097656 -3.125 7.359375 -2.59375 L 8.65625 0 L 7.28125 0 L 6.0625 -2.4375 C 5.75 -3.070312 5.445312 -3.488281 5.15625 -3.6875 C 4.863281 -3.894531 4.460938 -4 3.953125 -4 L 2.5625 -4 L 2.5625 0 L 1.28125 0 L 1.28125 -9.484375 L 4.171875 -9.484375 C 5.253906 -9.484375 6.0625 -9.253906 6.59375 -8.796875 C 7.125 -8.347656 7.390625 -7.664062 7.390625 -6.75 C 7.390625 -6.15625 7.25 -5.660156 6.96875 -5.265625 C 6.695312 -4.867188 6.296875 -4.59375 5.765625 -4.4375 Z M 2.5625 -8.421875 L 2.5625 -5.0625 L 4.171875 -5.0625 C 4.785156 -5.0625 5.25 -5.203125 5.5625 -5.484375 C 5.882812 -5.773438 6.046875 -6.195312 6.046875 -6.75 C 6.046875 -7.300781 5.882812 -7.71875 5.5625 -8 C 5.25 -8.28125 4.785156 -8.421875 4.171875 -8.421875 Z M 2.5625 -8.421875 "/>
</symbol>
<symbol overflow="visible" id="glyph0-32">
<path style="stroke:none;" d="M 1.375 -5.90625 L 9.515625 -5.90625 L 9.515625 -4.84375 L 1.375 -4.84375 Z M 1.375 -3.3125 L 9.515625 -3.3125 L 9.515625 -2.234375 L 1.375 -2.234375 Z M 1.375 -3.3125 "/>
</symbol>
<symbol overflow="visible" id="glyph0-33">
<path style="stroke:none;" d="M 1.046875 -9.859375 L 2.0625 -9.859375 C 2.695312 -8.859375 3.171875 -7.878906 3.484375 -6.921875 C 3.796875 -5.972656 3.953125 -5.023438 3.953125 -4.078125 C 3.953125 -3.128906 3.796875 -2.175781 3.484375 -1.21875 C 3.171875 -0.257812 2.695312 0.71875 2.0625 1.71875 L 1.046875 1.71875 C 1.609375 0.75 2.023438 -0.210938 2.296875 -1.171875 C 2.578125 -2.128906 2.71875 -3.097656 2.71875 -4.078125 C 2.71875 -5.054688 2.578125 -6.019531 2.296875 -6.96875 C 2.023438 -7.925781 1.609375 -8.890625 1.046875 -9.859375 Z M 1.046875 -9.859375 "/>
</symbol>
<symbol overflow="visible" id="glyph0-34">
<path style="stroke:none;" d="M 2.328125 -9.484375 L 2.328125 -5.953125 L 1.25 -5.953125 L 1.25 -9.484375 Z M 2.328125 -9.484375 "/>
</symbol>
<symbol overflow="visible" id="glyph0-35">
<path style="stroke:none;" d="M 6.625 2.15625 L 6.625 3.0625 L -0.125 3.0625 L -0.125 2.15625 Z M 6.625 2.15625 "/>
</symbol>
<symbol overflow="visible" id="glyph0-36">
<path style="stroke:none;" d="M 6.328125 -3.546875 C 6.328125 -4.410156 6.148438 -5.082031 5.796875 -5.5625 C 5.441406 -6.050781 4.957031 -6.296875 4.34375 -6.296875 C 3.726562 -6.296875 3.242188 -6.050781 2.890625 -5.5625 C 2.535156 -5.082031 2.359375 -4.410156 2.359375 -3.546875 C 2.359375 -2.691406 2.535156 -2.019531 2.890625 -1.53125 C 3.242188 -1.039062 3.726562 -0.796875 4.34375 -0.796875 C 4.957031 -0.796875 5.441406 -1.039062 5.796875 -1.53125 C 6.148438 -2.019531 6.328125 -2.691406 6.328125 -3.546875 Z M 2.359375 -6.03125 C 2.597656 -6.457031 2.90625 -6.769531 3.28125 -6.96875 C 3.65625 -7.175781 4.101562 -7.28125 4.625 -7.28125 C 5.488281 -7.28125 6.191406 -6.9375 6.734375 -6.25 C 7.273438 -5.5625 7.546875 -4.660156 7.546875 -3.546875 C 7.546875 -2.429688 7.273438 -1.53125 6.734375 -0.84375 C 6.191406 -0.15625 5.488281 0.1875 4.625 0.1875 C 4.101562 0.1875 3.65625 0.0820312 3.28125 -0.125 C 2.90625 -0.332031 2.597656 -0.644531 2.359375 -1.0625 L 2.359375 0 L 1.1875 0 L 1.1875 -9.875 L 2.359375 -9.875 Z M 2.359375 -6.03125 "/>
</symbol>
<symbol overflow="visible" id="glyph1-0">
<path style="stroke:none;" d="M 2.296875 -0.640625 L -9.171875 -0.640625 L -9.171875 -7.140625 L 2.296875 -7.140625 Z M 1.578125 -1.375 L 1.578125 -6.421875 L -8.4375 -6.421875 L -8.4375 -1.375 Z M 1.578125 -1.375 "/>
</symbol>
<symbol overflow="visible" id="glyph1-1">
<path style="stroke:none;" d=""/>
</symbol>
</g>
</defs>
<g id="surface5239">
<rect x="0" y="0" width="640" height="384" style="fill:rgb(100%,100%,100%);fill-opacity:1;stroke:none;"/>
<path style="fill:none;stroke-width:10;stroke-linecap:butt;stroke-linejoin:miter;stroke:rgb(0%,0%,0%);stroke-opacity:1;stroke-dasharray:8,80;stroke-miterlimit:10;" d="M 2299.0625 6723.75 L 12319.0625 6723.75 " transform="matrix(0.05,0,0,0.05,0,0)"/>
<path style="fill:none;stroke-width:20;stroke-linecap:butt;stroke-linejoin:miter;stroke:rgb(0%,0%,0%);stroke-opacity:1;stroke-miterlimit:10;" d="M 2299.0625 6723.75 L 2418.125 6723.75 " transform="matrix(0.05,0,0,0.05,0,0)"/>
<path style="fill:none;stroke-width:20;stroke-linecap:butt;stroke-linejoin:miter;stroke:rgb(0%,0%,0%);stroke-opacity:1;stroke-miterlimit:10;" d="M 12319.0625 6723.75 L 12200 6723.75 " transform="matrix(0.05,0,0,0.05,0,0)"/>
<g style="fill:rgb(0%,0%,0%);fill-opacity:1;">
  <use xlink:href="#glyph0-1" x="38.445312" y="341.227539"/>
  <use xlink:href="#glyph0-1" x="42.577637" y="341.227539"/>
  <use xlink:href="#glyph0-1" x="46.709961" y="341.227539"/>
  <use xlink:href="#glyph0-2" x="50.842285" y="341.227539"/>
  <use xlink:href="#glyph0-3" x="59.113281" y="341.227539"/>
  <use xlink:href="#glyph0-2" x="63.245605" y="341.227539"/>
  <use xlink:href="#glyph0-4" x="71.516602" y="341.227539"/>
  <use xlink:href="#glyph0-5" x="79.514648" y="341.227539"/>
  <use xlink:href="#glyph0-2" x="90.407227" y="341.227539"/>
  <use xlink:href="#glyph0-2" x="98.678223" y="341.227539"/>
</g>
<path style="fill:none;stroke-width:10;stroke-linecap:butt;stroke-linejoin:miter;stroke:rgb(0%,0%,0%);stroke-opacity:1;stroke-dasharray:8,80;stroke-miterlimit:10;" d="M 2299.0625 6140.9375 L 12319.0625 6140.9375 " transform="matrix(0.05,0,0,0.05,0,0)"/>
<path style="fill:none;stroke-width:20;stroke-linecap:butt;stroke-linejoin:miter;stroke:rgb(0%,0%,0%);stroke-opacity:1;stroke-miterlimit:10;" d="M 2299.0625 6140.9375 L 2418.125 6140.9375 " transform="matrix(0.05,0,0,0.05,0,0)"/>
<path style="fill:none;stroke-width:20;stroke-linecap:butt;stroke-linejoin:miter;stroke:rgb(0%,0%,0%);stroke-opacity:1;stroke-miterlimit:10;" d="M 12319.0625 6140.9375 L 12200 6140.9375 " transform="matrix(0.05,0,0,0.05,0,0)"/>
<g style="fill:rgb(0%,0%,0%);fill-opacity:1;">
  <use xlink:href="#glyph0-1" x="44.648438" y="312.075195"/>
  <use xlink:href="#glyph0-1" x="48.780762" y="312.075195"/>
  <use xlink:href="#glyph0-1" x="52.913086" y="312.075195"/>
  <use xlink:href="#glyph0-6" x="57.04541" y="312.075195"/>
  <use xlink:href="#glyph0-3" x="65.316406" y="312.075195"/>
  <use xlink:href="#glyph0-2" x="69.44873" y="312.075195"/>
  <use xlink:href="#glyph0-4" x="77.719727" y="312.075195"/>
  <use xlink:href="#glyph0-7" x="85.717773" y="312.075195"/>
  <use xlink:href="#glyph0-2" x="90.408691" y="312.075195"/>
  <use xlink:href="#glyph0-6" x="98.679688" y="312.075195"/>
</g>
<path style="fill:none;stroke-width:10;stroke-linecap:butt;stroke-linejoin:miter;stroke:rgb(0%,0%,0%);stroke-opacity:1;stroke-dasharray:8,80;stroke-miterlimit:10;" d="M 2299.0625 5559.0625 L 12319.0625 5559.0625 " transform="matrix(0.05,0,0,0.05,0,0)"/>
<path style="fill:none;stroke-width:20;stroke-linecap:butt;stroke-linejoin:miter;stroke:rgb(0%,0%,0%);stroke-opacity:1;stroke-miterlimit:10;" d="M 2299.0625 5559.0625 L 2418.125 5559.0625 " transform="matrix(0.05,0,0,0.05,0,0)"/>
<path style="fill:none;stroke-width:20;stroke-linecap:butt;stroke-linejoin:miter;stroke:rgb(0%,0%,0%);stroke-opacity:1;stroke-miterlimit:10;" d="M 12319.0625 5559.0625 L 12200 5559.0625 " transform="matrix(0.05,0,0,0.05,0,0)"/>
<g style="fill:rgb(0%,0%,0%);fill-opacity:1;">
  <use xlink:href="#glyph0-1" x="44.648438" y="282.977539"/>
  <use xlink:href="#glyph0-1" x="48.780762" y="282.977539"/>
  <use xlink:href="#glyph0-1" x="52.913086" y="282.977539"/>
  <use xlink:href="#glyph0-8" x="57.04541" y="282.977539"/>
  <use xlink:href="#glyph0-3" x="65.316406" y="282.977539"/>
  <use xlink:href="#glyph0-2" x="69.44873" y="282.977539"/>
  <use xlink:href="#glyph0-4" x="77.719727" y="282.977539"/>
  <use xlink:href="#glyph0-7" x="85.717773" y="282.977539"/>
  <use xlink:href="#glyph0-2" x="90.408691" y="282.977539"/>
  <use xlink:href="#glyph0-6" x="98.679688" y="282.977539"/>
</g>
<path style="fill:none;stroke-width:10;stroke-linecap:butt;stroke-linejoin:miter;stroke:rgb(0%,0%,0%);stroke-opacity:1;stroke-dasharray:8,80;stroke-miterlimit:10;" d="M 2299.0625 4976.25 L 12319.0625 4976.25 " transform="matrix(0.05,0,0,0.05,0,0)"/>
<path style="fill:none;stroke-width:20;stroke-linecap:butt;stroke-linejoin:miter;stroke:rgb(0%,0%,0%);stroke-opacity:1;stroke-miterlimit:10;" d="M 2299.0625 4976.25 L 2418.125 4976.25 " transform="matrix(0.05,0,0,0.05,0,0)"/>
<path style="fill:none;stroke-width:20;stroke-linecap:butt;stroke-linejoin:miter;stroke:rgb(0%,0%,0%);stroke-opacity:1;stroke-miterlimit:10;" d="M 12319.0625 4976.25 L 12200 4976.25 " transform="matrix(0.05,0,0,0.05,0,0)"/>
<g style="fill:rgb(0%,0%,0%);fill-opacity:1;">
  <use xlink:href="#glyph0-1" x="44.648438" y="253.825195"/>
  <use xlink:href="#glyph0-1" x="48.780762" y="253.825195"/>
  <use xlink:href="#glyph0-1" x="52.913086" y="253.825195"/>
  <use xlink:href="#glyph0-9" x="57.04541" y="253.825195"/>
  <use xlink:href="#glyph0-3" x="65.316406" y="253.825195"/>
  <use xlink:href="#glyph0-2" x="69.44873" y="253.825195"/>
  <use xlink:href="#glyph0-4" x="77.719727" y="253.825195"/>
  <use xlink:href="#glyph0-7" x="85.717773" y="253.825195"/>
  <use xlink:href="#glyph0-2" x="90.408691" y="253.825195"/>
  <use xlink:href="#glyph0-6" x="98.679688" y="253.825195"/>
</g>
<path style="fill:none;stroke-width:10;stroke-linecap:butt;stroke-linejoin:miter;stroke:rgb(0%,0%,0%);stroke-opacity:1;stroke-dasharray:8,80;stroke-miterlimit:10;" d="M 2299.0625 4394.453125 L 12319.0625 4394.453125 " transform="matrix(0.05,0,0,0.05,0,0)"/>
<path style="fill:none;stroke-width:20;stroke-linecap:butt;stroke-linejoin:miter;stroke:rgb(0%,0%,0%);stroke-opacity:1;stroke-miterlimit:10;" d="M 2299.0625 4394.453125 L 2418.125 4394.453125 " transform="matrix(0.05,0,0,0.05,0,0)"/>
<path style="fill:none;stroke-width:20;stroke-linecap:butt;stroke-linejoin:miter;stroke:rgb(0%,0%,0%);stroke-opacity:1;stroke-miterlimit:10;" d="M 12319.0625 4394.453125 L 12200 4394.453125 " transform="matrix(0.05,0,0,0.05,0,0)"/>
<g style="fill:rgb(0%,0%,0%);fill-opacity:1;">
  <use xlink:href="#glyph0-1" x="44.648438" y="224.727539"/>
  <use xlink:href="#glyph0-1" x="48.780762" y="224.727539"/>
  <use xlink:href="#glyph0-1" x="52.913086" y="224.727539"/>
  <use xlink:href="#glyph0-10" x="57.04541" y="224.727539"/>
  <use xlink:href="#glyph0-3" x="65.316406" y="224.727539"/>
  <use xlink:href="#glyph0-2" x="69.44873" y="224.727539"/>
  <use xlink:href="#glyph0-4" x="77.719727" y="224.727539"/>
  <use xlink:href="#glyph0-7" x="85.717773" y="224.727539"/>
  <use xlink:href="#glyph0-2" x="90.408691" y="224.727539"/>
  <use xlink:href="#glyph0-6" x="98.679688" y="224.727539"/>
</g>
<path style="fill:none;stroke-width:10;stroke-linecap:butt;stroke-linejoin:miter;stroke:rgb(0%,0%,0%);stroke-opacity:1;stroke-dasharray:8,80;stroke-miterlimit:10;" d="M 2299.0625 3811.640625 L 12319.0625 3811.640625 " transform="matrix(0.05,0,0,0.05,0,0)"/>
<path style="fill:none;stroke-width:20;stroke-linecap:butt;stroke-linejoin:miter;stroke:rgb(0%,0%,0%);stroke-opacity:1;stroke-miterlimit:10;" d="M 2299.0625 3811.640625 L 2418.125 3811.640625 " transform="matrix(0.05,0,0,0.05,0,0)"/>
<path style="fill:none;stroke-width:20;stroke-linecap:butt;stroke-linejoin:miter;stroke:rgb(0%,0%,0%);stroke-opacity:1;stroke-miterlimit:10;" d="M 12319.0625 3811.640625 L 12200 3811.640625 " transform="matrix(0.05,0,0,0.05,0,0)"/>
<g style="fill:rgb(0%,0%,0%);fill-opacity:1;">
  <use xlink:href="#glyph0-1" x="44.648438" y="195.575195"/>
  <use xlink:href="#glyph0-1" x="48.780762" y="195.575195"/>
  <use xlink:href="#glyph0-1" x="52.913086" y="195.575195"/>
  <use xlink:href="#glyph0-11" x="57.04541" y="195.575195"/>
  <use xlink:href="#glyph0-3" x="65.316406" y="195.575195"/>
  <use xlink:href="#glyph0-2" x="69.44873" y="195.575195"/>
  <use xlink:href="#glyph0-4" x="77.719727" y="195.575195"/>
  <use xlink:href="#glyph0-7" x="85.717773" y="195.575195"/>
  <use xlink:href="#glyph0-2" x="90.408691" y="195.575195"/>
  <use xlink:href="#glyph0-6" x="98.679688" y="195.575195"/>
</g>
<path style="fill:none;stroke-width:10;stroke-linecap:butt;stroke-linejoin:miter;stroke:rgb(0%,0%,0%);stroke-opacity:1;stroke-dasharray:8,80;stroke-miterlimit:10;" d="M 2299.0625 3227.421875 L 12319.0625 3227.421875 " transform="matrix(0.05,0,0,0.05,0,0)"/>
<path style="fill:none;stroke-width:20;stroke-linecap:butt;stroke-linejoin:miter;stroke:rgb(0%,0%,0%);stroke-opacity:1;stroke-miterlimit:10;" d="M 2299.0625 3227.421875 L 2418.125 3227.421875 " transform="matrix(0.05,0,0,0.05,0,0)"/>
<path style="fill:none;stroke-width:20;stroke-linecap:butt;stroke-linejoin:miter;stroke:rgb(0%,0%,0%);stroke-opacity:1;stroke-miterlimit:10;" d="M 12319.0625 3227.421875 L 12200 3227.421875 " transform="matrix(0.05,0,0,0.05,0,0)"/>
<g style="fill:rgb(0%,0%,0%);fill-opacity:1;">
  <use xlink:href="#glyph0-1" x="44.648438" y="166.426758"/>
  <use xlink:href="#glyph0-1" x="48.780762" y="166.426758"/>
  <use xlink:href="#glyph0-1" x="52.913086" y="166.426758"/>
  <use xlink:href="#glyph0-12" x="57.04541" y="166.426758"/>
  <use xlink:href="#glyph0-3" x="65.316406" y="166.426758"/>
  <use xlink:href="#glyph0-2" x="69.44873" y="166.426758"/>
  <use xlink:href="#glyph0-4" x="77.719727" y="166.426758"/>
  <use xlink:href="#glyph0-7" x="85.717773" y="166.426758"/>
  <use xlink:href="#glyph0-2" x="90.408691" y="166.426758"/>
  <use xlink:href="#glyph0-6" x="98.679688" y="166.426758"/>
</g>
<path style="fill:none;stroke-width:10;stroke-linecap:butt;stroke-linejoin:miter;stroke:rgb(0%,0%,0%);stroke-opacity:1;stroke-dasharray:8,80;stroke-miterlimit:10;" d="M 2299.0625 2645.546875 L 12319.0625 2645.546875 " transform="matrix(0.05,0,0,0.05,0,0)"/>
<path style="fill:none;stroke-width:20;stroke-linecap:butt;stroke-linejoin:miter;stroke:rgb(0%,0%,0%);stroke-opacity:1;stroke-miterlimit:10;" d="M 2299.0625 2645.546875 L 2418.125 2645.546875 " transform="matrix(0.05,0,0,0.05,0,0)"/>
<path style="fill:none;stroke-width:20;stroke-linecap:butt;stroke-linejoin:miter;stroke:rgb(0%,0%,0%);stroke-opacity:1;stroke-miterlimit:10;" d="M 12319.0625 2645.546875 L 12200 2645.546875 " transform="matrix(0.05,0,0,0.05,0,0)"/>
<g style="fill:rgb(0%,0%,0%);fill-opacity:1;">
  <use xlink:href="#glyph0-1" x="44.648438" y="137.325195"/>
  <use xlink:href="#glyph0-1" x="48.780762" y="137.325195"/>
  <use xlink:href="#glyph0-1" x="52.913086" y="137.325195"/>
  <use xlink:href="#glyph0-13" x="57.04541" y="137.325195"/>
  <use xlink:href="#glyph0-3" x="65.316406" y="137.325195"/>
  <use xlink:href="#glyph0-2" x="69.44873" y="137.325195"/>
  <use xlink:href="#glyph0-4" x="77.719727" y="137.325195"/>
  <use xlink:href="#glyph0-7" x="85.717773" y="137.325195"/>
  <use xlink:href="#glyph0-2" x="90.408691" y="137.325195"/>
  <use xlink:href="#glyph0-6" x="98.679688" y="137.325195"/>
</g>
<path style="fill:none;stroke-width:10;stroke-linecap:butt;stroke-linejoin:miter;stroke:rgb(0%,0%,0%);stroke-opacity:1;stroke-dasharray:8,80;stroke-miterlimit:10;" d="M 2299.0625 2062.8125 L 8680 2062.8125 " transform="matrix(0.05,0,0,0.05,0,0)"/>
<path style="fill:none;stroke-width:10;stroke-linecap:butt;stroke-linejoin:miter;stroke:rgb(0%,0%,0%);stroke-opacity:1;stroke-dasharray:8,80;stroke-miterlimit:10;" d="M 12159.0625 2062.8125 L 12319.0625 2062.8125 " transform="matrix(0.05,0,0,0.05,0,0)"/>
<path style="fill:none;stroke-width:20;stroke-linecap:butt;stroke-linejoin:miter;stroke:rgb(0%,0%,0%);stroke-opacity:1;stroke-miterlimit:10;" d="M 2299.0625 2062.8125 L 2418.125 2062.8125 " transform="matrix(0.05,0,0,0.05,0,0)"/>
<path style="fill:none;stroke-width:20;stroke-linecap:butt;stroke-linejoin:miter;stroke:rgb(0%,0%,0%);stroke-opacity:1;stroke-miterlimit:10;" d="M 12319.0625 2062.8125 L 12200 2062.8125 " transform="matrix(0.05,0,0,0.05,0,0)"/>
<g style="fill:rgb(0%,0%,0%);fill-opacity:1;">
  <use xlink:href="#glyph0-1" x="44.648438" y="108.176758"/>
  <use xlink:href="#glyph0-1" x="48.780762" y="108.176758"/>
  <use xlink:href="#glyph0-1" x="52.913086" y="108.176758"/>
  <use xlink:href="#glyph0-14" x="57.04541" y="108.176758"/>
  <use xlink:href="#glyph0-3" x="65.316406" y="108.176758"/>
  <use xlink:href="#glyph0-2" x="69.44873" y="108.176758"/>
  <use xlink:href="#glyph0-4" x="77.719727" y="108.176758"/>
  <use xlink:href="#glyph0-7" x="85.717773" y="108.176758"/>
  <use xlink:href="#glyph0-2" x="90.408691" y="108.176758"/>
  <use xlink:href="#glyph0-6" x="98.679688" y="108.176758"/>
</g>
<path style="fill:none;stroke-width:10;stroke-linecap:butt;stroke-linejoin:miter;stroke:rgb(0%,0%,0%);stroke-opacity:1;stroke-dasharray:8,80;stroke-miterlimit:10;" d="M 2299.0625 1480.9375 L 8680 1480.9375 " transform="matrix(0.05,0,0,0.05,0,0)"/>
<path style="fill:none;stroke-width:10;stroke-linecap:butt;stroke-linejoin:miter;stroke:rgb(0%,0%,0%);stroke-opacity:1;stroke-dasharray:8,80;stroke-miterlimit:10;" d="M 12159.0625 1480.9375 L 12319.0625 1480.9375 " transform="matrix(0.05,0,0,0.05,0,0)"/>
<path style="fill:none;stroke-width:20;stroke-linecap:butt;stroke-linejoin:miter;stroke:rgb(0%,0%,0%);stroke-opacity:1;stroke-miterlimit:10;" d="M 2299.0625 1480.9375 L 2418.125 1480.9375 " transform="matrix(0.05,0,0,0.05,0,0)"/>
<path style="fill:none;stroke-width:20;stroke-linecap:butt;stroke-linejoin:miter;stroke:rgb(0%,0%,0%);stroke-opacity:1;stroke-miterlimit:10;" d="M 12319.0625 1480.9375 L 12200 1480.9375 " transform="matrix(0.05,0,0,0.05,0,0)"/>
<g style="fill:rgb(0%,0%,0%);fill-opacity:1;">
  <use xlink:href="#glyph0-1" x="44.648438" y="79.075195"/>
  <use xlink:href="#glyph0-1" x="48.780762" y="79.075195"/>
  <use xlink:href="#glyph0-1" x="52.913086" y="79.075195"/>
  <use xlink:href="#glyph0-15" x="57.04541" y="79.075195"/>
  <use xlink:href="#glyph0-3" x="65.316406" y="79.075195"/>
  <use xlink:href="#glyph0-2" x="69.44873" y="79.075195"/>
  <use xlink:href="#glyph0-4" x="77.719727" y="79.075195"/>
  <use xlink:href="#glyph0-7" x="85.717773" y="79.075195"/>
  <use xlink:href="#glyph0-2" x="90.408691" y="79.075195"/>
  <use xlink:href="#glyph0-6" x="98.679688" y="79.075195"/>
</g>
<path style="fill:none;stroke-width:10;stroke-linecap:butt;stroke-linejoin:miter;stroke:rgb(0%,0%,0%);stroke-opacity:1;stroke-dasharray:8,80;stroke-miterlimit:10;" d="M 2299.0625 898.125 L 12319.0625 898.125 " transform="matrix(0.05,0,0,0.05,0,0)"/>
<path style="fill:none;stroke-width:20;stroke-linecap:butt;stroke-linejoin:miter;stroke:rgb(0%,0%,0%);stroke-opacity:1;stroke-miterlimit:10;" d="M 2299.0625 898.125 L 2418.125 898.125 " transform="matrix(0.05,0,0,0.05,0,0)"/>
<path style="fill:none;stroke-width:20;stroke-linecap:butt;stroke-linejoin:miter;stroke:rgb(0%,0%,0%);stroke-opacity:1;stroke-miterlimit:10;" d="M 12319.0625 898.125 L 12200 898.125 " transform="matrix(0.05,0,0,0.05,0,0)"/>
<g style="fill:rgb(0%,0%,0%);fill-opacity:1;">
  <use xlink:href="#glyph0-1" x="38.445312" y="49.926758"/>
  <use xlink:href="#glyph0-1" x="42.577637" y="49.926758"/>
  <use xlink:href="#glyph0-1" x="46.709961" y="49.926758"/>
  <use xlink:href="#glyph0-6" x="50.842285" y="49.926758"/>
  <use xlink:href="#glyph0-3" x="59.113281" y="49.926758"/>
  <use xlink:href="#glyph0-2" x="63.245605" y="49.926758"/>
  <use xlink:href="#glyph0-4" x="71.516602" y="49.926758"/>
  <use xlink:href="#glyph0-5" x="79.514648" y="49.926758"/>
  <use xlink:href="#glyph0-2" x="90.407227" y="49.926758"/>
  <use xlink:href="#glyph0-2" x="98.678223" y="49.926758"/>
</g>
<path style="fill:none;stroke-width:10;stroke-linecap:butt;stroke-linejoin:miter;stroke:rgb(0%,0%,0%);stroke-opacity:1;stroke-dasharray:8,80;stroke-miterlimit:10;" d="M 2299.0625 6723.75 L 2299.0625 898.125 " transform="matrix(0.05,0,0,0.05,0,0)"/>
<path style="fill:none;stroke-width:20;stroke-linecap:butt;stroke-linejoin:miter;stroke:rgb(0%,0%,0%);stroke-opacity:1;stroke-miterlimit:10;" d="M 2299.0625 6723.75 L 2299.0625 6604.6875 " transform="matrix(0.05,0,0,0.05,0,0)"/>
<path style="fill:none;stroke-width:20;stroke-linecap:butt;stroke-linejoin:miter;stroke:rgb(0%,0%,0%);stroke-opacity:1;stroke-miterlimit:10;" d="M 2299.0625 898.125 L 2299.0625 1017.1875 " transform="matrix(0.05,0,0,0.05,0,0)"/>
<g style="fill:rgb(0%,0%,0%);fill-opacity:1;">
  <use xlink:href="#glyph0-1" x="108.75" y="356.176758"/>
  <use xlink:href="#glyph0-2" x="112.882324" y="356.176758"/>
</g>
<path style="fill:none;stroke-width:10;stroke-linecap:butt;stroke-linejoin:miter;stroke:rgb(0%,0%,0%);stroke-opacity:1;stroke-dasharray:8,80;stroke-miterlimit:10;" d="M 4220.9375 6723.75 L 4220.9375 898.125 " transform="matrix(0.05,0,0,0.05,0,0)"/>
<path style="fill:none;stroke-width:20;stroke-linecap:butt;stroke-linejoin:miter;stroke:rgb(0%,0%,0%);stroke-opacity:1;stroke-miterlimit:10;" d="M 4220.9375 6723.75 L 4220.9375 6604.6875 " transform="matrix(0.05,0,0,0.05,0,0)"/>
<path style="fill:none;stroke-width:20;stroke-linecap:butt;stroke-linejoin:miter;stroke:rgb(0%,0%,0%);stroke-opacity:1;stroke-miterlimit:10;" d="M 4220.9375 898.125 L 4220.9375 1017.1875 " transform="matrix(0.05,0,0,0.05,0,0)"/>
<g style="fill:rgb(0%,0%,0%);fill-opacity:1;">
  <use xlink:href="#glyph0-1" x="200.710938" y="356.176758"/>
  <use xlink:href="#glyph0-6" x="204.843262" y="356.176758"/>
  <use xlink:href="#glyph0-2" x="213.114258" y="356.176758"/>
</g>
<path style="fill:none;stroke-width:10;stroke-linecap:butt;stroke-linejoin:miter;stroke:rgb(0%,0%,0%);stroke-opacity:1;stroke-dasharray:8,80;stroke-miterlimit:10;" d="M 6141.875 6723.75 L 6141.875 898.125 " transform="matrix(0.05,0,0,0.05,0,0)"/>
<path style="fill:none;stroke-width:20;stroke-linecap:butt;stroke-linejoin:miter;stroke:rgb(0%,0%,0%);stroke-opacity:1;stroke-miterlimit:10;" d="M 6141.875 6723.75 L 6141.875 6604.6875 " transform="matrix(0.05,0,0,0.05,0,0)"/>
<path style="fill:none;stroke-width:20;stroke-linecap:butt;stroke-linejoin:miter;stroke:rgb(0%,0%,0%);stroke-opacity:1;stroke-miterlimit:10;" d="M 6141.875 898.125 L 6141.875 1017.1875 " transform="matrix(0.05,0,0,0.05,0,0)"/>
<g style="fill:rgb(0%,0%,0%);fill-opacity:1;">
  <use xlink:href="#glyph0-1" x="296.761719" y="356.176758"/>
  <use xlink:href="#glyph0-8" x="300.894043" y="356.176758"/>
  <use xlink:href="#glyph0-2" x="309.165039" y="356.176758"/>
</g>
<path style="fill:none;stroke-width:10;stroke-linecap:butt;stroke-linejoin:miter;stroke:rgb(0%,0%,0%);stroke-opacity:1;stroke-dasharray:8,80;stroke-miterlimit:10;" d="M 8063.75 6723.75 L 8063.75 898.125 " transform="matrix(0.05,0,0,0.05,0,0)"/>
<path style="fill:none;stroke-width:20;stroke-linecap:butt;stroke-linejoin:miter;stroke:rgb(0%,0%,0%);stroke-opacity:1;stroke-miterlimit:10;" d="M 8063.75 6723.75 L 8063.75 6604.6875 " transform="matrix(0.05,0,0,0.05,0,0)"/>
<path style="fill:none;stroke-width:20;stroke-linecap:butt;stroke-linejoin:miter;stroke:rgb(0%,0%,0%);stroke-opacity:1;stroke-miterlimit:10;" d="M 8063.75 898.125 L 8063.75 1017.1875 " transform="matrix(0.05,0,0,0.05,0,0)"/>
<g style="fill:rgb(0%,0%,0%);fill-opacity:1;">
  <use xlink:href="#glyph0-1" x="392.863281" y="356.176758"/>
  <use xlink:href="#glyph0-9" x="396.995605" y="356.176758"/>
  <use xlink:href="#glyph0-2" x="405.266602" y="356.176758"/>
</g>
<path style="fill:none;stroke-width:10;stroke-linecap:butt;stroke-linejoin:miter;stroke:rgb(0%,0%,0%);stroke-opacity:1;stroke-dasharray:8,80;stroke-miterlimit:10;" d="M 9985.546875 6723.75 L 9985.546875 2213.515625 " transform="matrix(0.05,0,0,0.05,0,0)"/>
<path style="fill:none;stroke-width:10;stroke-linecap:butt;stroke-linejoin:miter;stroke:rgb(0%,0%,0%);stroke-opacity:1;stroke-dasharray:8,80;stroke-miterlimit:10;" d="M 9985.546875 1017.1875 L 9985.546875 898.125 " transform="matrix(0.05,0,0,0.05,0,0)"/>
<path style="fill:none;stroke-width:20;stroke-linecap:butt;stroke-linejoin:miter;stroke:rgb(0%,0%,0%);stroke-opacity:1;stroke-miterlimit:10;" d="M 9985.546875 6723.75 L 9985.546875 6604.6875 " transform="matrix(0.05,0,0,0.05,0,0)"/>
<path style="fill:none;stroke-width:20;stroke-linecap:butt;stroke-linejoin:miter;stroke:rgb(0%,0%,0%);stroke-opacity:1;stroke-miterlimit:10;" d="M 9985.546875 898.125 L 9985.546875 1017.1875 " transform="matrix(0.05,0,0,0.05,0,0)"/>
<g style="fill:rgb(0%,0%,0%);fill-opacity:1;">
  <use xlink:href="#glyph0-1" x="488.960938" y="356.176758"/>
  <use xlink:href="#glyph0-10" x="493.093262" y="356.176758"/>
  <use xlink:href="#glyph0-2" x="501.364258" y="356.176758"/>
</g>
<path style="fill:none;stroke-width:10;stroke-linecap:butt;stroke-linejoin:miter;stroke:rgb(0%,0%,0%);stroke-opacity:1;stroke-dasharray:8,80;stroke-miterlimit:10;" d="M 11906.484375 6723.75 L 11906.484375 2213.515625 " transform="matrix(0.05,0,0,0.05,0,0)"/>
<path style="fill:none;stroke-width:10;stroke-linecap:butt;stroke-linejoin:miter;stroke:rgb(0%,0%,0%);stroke-opacity:1;stroke-dasharray:8,80;stroke-miterlimit:10;" d="M 11906.484375 1017.1875 L 11906.484375 898.125 " transform="matrix(0.05,0,0,0.05,0,0)"/>
<path style="fill:none;stroke-width:20;stroke-linecap:butt;stroke-linejoin:miter;stroke:rgb(0%,0%,0%);stroke-opacity:1;stroke-miterlimit:10;" d="M 11906.484375 6723.75 L 11906.484375 6604.6875 " transform="matrix(0.05,0,0,0.05,0,0)"/>
<path style="fill:none;stroke-width:20;stroke-linecap:butt;stroke-linejoin:miter;stroke:rgb(0%,0%,0%);stroke-opacity:1;stroke-miterlimit:10;" d="M 11906.484375 898.125 L 11906.484375 1017.1875 " transform="matrix(0.05,0,0,0.05,0,0)"/>
<g style="fill:rgb(0%,0%,0%);fill-opacity:1;">
  <use xlink:href="#glyph0-1" x="585.011719" y="356.176758"/>
  <use xlink:href="#glyph0-11" x="589.144043" y="356.176758"/>
  <use xlink:href="#glyph0-2" x="597.415039" y="356.176758"/>
</g>
<path style="fill:none;stroke-width:20;stroke-linecap:butt;stroke-linejoin:miter;stroke:rgb(0%,0%,0%);stroke-opacity:1;stroke-miterlimit:10;" d="M 2299.0625 898.125 L 2299.140625 6723.4375 L 12319.140625 6723.203125 L 12319.21875 898.28125 L 2299.0625 898.28125 " transform="matrix(0.05,0,0,0.05,0,0)"/>
<g style="fill:rgb(0%,0%,0%);fill-opacity:1;">
  <use xlink:href="#glyph1-1" x="16.477539" y="192.617188"/>
</g>
<g style="fill:rgb(0%,0%,0%);fill-opacity:1;">
  <use xlink:href="#glyph0-16" x="301.675781" y="378.575195"/>
  <use xlink:href="#glyph0-17" x="306.772949" y="378.575195"/>
  <use xlink:href="#glyph0-18" x="312.117676" y="378.575195"/>
  <use xlink:href="#glyph0-19" x="320.083984" y="378.575195"/>
  <use xlink:href="#glyph0-20" x="328.323242" y="378.575195"/>
  <use xlink:href="#glyph0-21" x="335.096191" y="378.575195"/>
  <use xlink:href="#glyph0-22" x="347.759766" y="378.575195"/>
  <use xlink:href="#glyph0-20" x="351.371582" y="378.575195"/>
  <use xlink:href="#glyph0-20" x="358.144531" y="378.575195"/>
  <use xlink:href="#glyph0-22" x="364.91748" y="378.575195"/>
  <use xlink:href="#glyph0-23" x="368.529297" y="378.575195"/>
  <use xlink:href="#glyph0-19" x="376.48291" y="378.575195"/>
  <use xlink:href="#glyph0-1" x="384.722168" y="378.575195"/>
  <use xlink:href="#glyph0-24" x="388.854492" y="378.575195"/>
  <use xlink:href="#glyph0-25" x="396.001953" y="378.575195"/>
  <use xlink:href="#glyph0-24" x="403.695312" y="378.575195"/>
  <use xlink:href="#glyph0-26" x="410.842773" y="378.575195"/>
  <use xlink:href="#glyph0-4" x="414.45459" y="378.575195"/>
  <use xlink:href="#glyph0-20" x="422.452637" y="378.575195"/>
</g>
<g style="fill:rgb(0%,0%,0%);fill-opacity:1;">
  <use xlink:href="#glyph0-27" x="272.925781" y="27.477539"/>
  <use xlink:href="#glyph0-4" x="282.701172" y="27.477539"/>
  <use xlink:href="#glyph0-17" x="290.699219" y="27.477539"/>
  <use xlink:href="#glyph0-28" x="295.81543" y="27.477539"/>
  <use xlink:href="#glyph0-1" x="304.067383" y="27.477539"/>
  <use xlink:href="#glyph0-22" x="308.199707" y="27.477539"/>
  <use xlink:href="#glyph0-21" x="311.811523" y="27.477539"/>
  <use xlink:href="#glyph0-21" x="324.475098" y="27.477539"/>
  <use xlink:href="#glyph0-29" x="337.138672" y="27.477539"/>
  <use xlink:href="#glyph0-19" x="345.37793" y="27.477539"/>
  <use xlink:href="#glyph0-22" x="353.617188" y="27.477539"/>
  <use xlink:href="#glyph0-16" x="357.229004" y="27.477539"/>
  <use xlink:href="#glyph0-25" x="362.326172" y="27.477539"/>
  <use xlink:href="#glyph0-1" x="370.019531" y="27.477539"/>
  <use xlink:href="#glyph0-30" x="374.151855" y="27.477539"/>
  <use xlink:href="#glyph0-1" x="379.223633" y="27.477539"/>
  <use xlink:href="#glyph0-31" x="383.355957" y="27.477539"/>
  <use xlink:href="#glyph0-2" x="392.388672" y="27.477539"/>
  <use xlink:href="#glyph0-32" x="400.659668" y="27.477539"/>
  <use xlink:href="#glyph0-9" x="411.552246" y="27.477539"/>
  <use xlink:href="#glyph0-3" x="419.823242" y="27.477539"/>
  <use xlink:href="#glyph0-2" x="423.955566" y="27.477539"/>
  <use xlink:href="#glyph0-2" x="432.226562" y="27.477539"/>
  <use xlink:href="#glyph0-2" x="440.497559" y="27.477539"/>
  <use xlink:href="#glyph0-1" x="448.768555" y="27.477539"/>
  <use xlink:href="#glyph0-33" x="452.900879" y="27.477539"/>
</g>
<path style="fill:none;stroke-width:20;stroke-linecap:butt;stroke-linejoin:miter;stroke:rgb(0%,0%,0%);stroke-opacity:1;stroke-miterlimit:10;" d="M 8680 2213.515625 L 8680 1017.1875 " transform="matrix(0.05,0,0,0.05,0,0)"/>
<path style="fill:none;stroke-width:20;stroke-linecap:butt;stroke-linejoin:miter;stroke:rgb(0%,0%,0%);stroke-opacity:1;stroke-miterlimit:10;" d="M 8680 1017.1875 L 12159.0625 1017.1875 " transform="matrix(0.05,0,0,0.05,0,0)"/>
<path style="fill:none;stroke-width:20;stroke-linecap:butt;stroke-linejoin:miter;stroke:rgb(0%,0%,0%);stroke-opacity:1;stroke-miterlimit:10;" d="M 12159.0625 1017.1875 L 12159.0625 2213.515625 " transform="matrix(0.05,0,0,0.05,0,0)"/>
<path style="fill:none;stroke-width:20;stroke-linecap:butt;stroke-linejoin:miter;stroke:rgb(0%,0%,0%);stroke-opacity:1;stroke-miterlimit:10;" d="M 12159.0625 2213.515625 L 8680 2213.515625 " transform="matrix(0.05,0,0,0.05,0,0)"/>
<g style="fill:rgb(0%,0%,0%);fill-opacity:1;">
  <use xlink:href="#glyph0-34" x="448.214844" y="63.352539"/>
  <use xlink:href="#glyph0-22" x="451.788574" y="63.352539"/>
  <use xlink:href="#glyph0-21" x="455.400391" y="63.352539"/>
  <use xlink:href="#glyph0-21" x="468.063965" y="63.352539"/>
  <use xlink:href="#glyph0-35" x="480.727539" y="63.352539"/>
  <use xlink:href="#glyph0-19" x="487.227539" y="63.352539"/>
  <use xlink:href="#glyph0-23" x="495.466797" y="63.352539"/>
  <use xlink:href="#glyph0-35" x="503.42041" y="63.352539"/>
  <use xlink:href="#glyph0-36" x="509.92041" y="63.352539"/>
  <use xlink:href="#glyph0-29" x="518.172363" y="63.352539"/>
  <use xlink:href="#glyph0-17" x="526.411621" y="63.352539"/>
  <use xlink:href="#glyph0-20" x="531.756348" y="63.352539"/>
  <use xlink:href="#glyph0-16" x="538.529297" y="63.352539"/>
  <use xlink:href="#glyph0-20" x="543.626465" y="63.352539"/>
  <use xlink:href="#glyph0-34" x="550.399414" y="63.352539"/>
</g>
<path style="fill:none;stroke-width:20;stroke-linecap:butt;stroke-linejoin:miter;stroke:rgb(58.039216%,0%,82.745098%);stroke-opacity:1;stroke-miterlimit:10;" d="M 11240 1166.484375 L 11999.0625 1166.484375 " transform="matrix(0.05,0,0,0.05,0,0)"/>
<path style="fill:none;stroke-width:20;stroke-linecap:butt;stroke-linejoin:miter;stroke:rgb(58.039216%,0%,82.745098%);stroke-opacity:1;stroke-miterlimit:10;" d="M 2298.984375 6723.984375 L 2299.0625 6723.75 L 2325.15625 6723.4375 L 2354.84375 6723.203125 L 2380.859375 6722.96875 L 2407.8125 6722.8125 L 2436.5625 6722.578125 L 2463.4375 6722.421875 L 2492.1875 6722.265625 L 2519.140625 6722.109375 L 2545.15625 6721.953125 L 2574.84375 6721.796875 L 2600.859375 6721.640625 L 2626.953125 6721.5625 L 2656.5625 6721.484375 L 2682.8125 6721.484375 L 2711.640625 6722.8125 L 2738.28125 6722.578125 L 2765.15625 6722.421875 L 2793.984375 6722.265625 L 2820.859375 6722.109375 L 2847.421875 6722.109375 L 2875.3125 6721.875 L 2902.578125 6721.71875 L 2928.671875 6721.640625 L 2958.125 6721.640625 L 2984.6875 6720.9375 L 3013.515625 6720.9375 L 3040 6720 L 3067.421875 6719.0625 L 3095.3125 6719.0625 L 3122.96875 6717.96875 L 3150 6716.015625 L 3177.03125 6715 L 3205 6713.984375 L 3232.03125 6712.03125 L 3260 6710 L 3287.03125 6707.03125 L 3315 6705 L 3342.03125 6701.015625 L 3370 6697.96875 L 3397.03125 6692.96875 L 3425 6687.96875 L 3452.03125 6682.03125 L 3478.984375 6675 L 3507.03125 6666.015625 L 3533.984375 6656.015625 L 3562.03125 6645 L 3588.984375 6632.03125 L 3617.03125 6616.015625 L 3643.984375 6597.96875 L 3672.03125 6577.03125 L 3698.984375 6552.03125 L 3726.015625 6522.96875 L 3753.984375 6490 L 3781.015625 6451.015625 L 3808.984375 6406.015625 L 3836.015625 6352.96875 L 3863.984375 6292.96875 L 3891.015625 6222.96875 L 3918.984375 6142.03125 L 3946.015625 6047.96875 L 3973.984375 5942.03125 L 4001.015625 5818.984375 L 4027.96875 5680 L 4056.015625 5521.015625 L 4082.96875 5342.96875 L 4111.015625 5142.03125 L 4137.96875 4918.984375 L 4166.015625 4672.03125 L 4192.96875 4402.03125 L 4221.015625 4111.015625 L 4247.96875 3801.015625 L 4275 3476.015625 L 4302.96875 3142.03125 L 4330 2807.03125 L 4357.96875 2481.015625 L 4385 2172.96875 L 4412.96875 1897.03125 L 4440 1660 L 4467.96875 1472.03125 L 4495 1335 L 4522.96875 1250 L 4550 1210 L 4577.03125 1207.96875 L 4605 1235 L 4632.03125 1282.03125 L 4660 1342.96875 L 4687.03125 1413.984375 L 4715 1491.015625 L 4742.03125 1572.96875 L 4770 1657.96875 L 4797.03125 1745 L 4823.984375 1832.03125 L 4852.03125 1920 L 4878.984375 2007.03125 L 4907.03125 2093.984375 L 4933.984375 2180 L 4962.03125 2266.015625 L 4988.984375 2350 L 5017.03125 2432.03125 L 5043.984375 2513.984375 L 5072.03125 2593.984375 L 5098.984375 2672.03125 L 5127.03125 2748.984375 L 5153.984375 2823.984375 L 5181.015625 2897.96875 L 5208.984375 2970 L 5236.015625 3040 L 5263.984375 3108.984375 L 5291.015625 3175 L 5318.984375 3240 L 5346.015625 3303.984375 L 5373.984375 3365 L 5401.015625 3425 L 5427.96875 3482.96875 L 5456.015625 3538.984375 L 5482.96875 3592.96875 L 5511.015625 3645 L 5537.96875 3695 L 5566.015625 3742.96875 L 5592.96875 3788.984375 L 5621.015625 3832.03125 L 5647.96875 3873.984375 L 5676.015625 3912.96875 L 5702.96875 3950 L 5730 3983.984375 L 5757.96875 4016.015625 L 5785 4045 L 5812.96875 4072.03125 L 5840 4095 L 5867.96875 4115 L 5895 4132.03125 L 5922.96875 4146.015625 L 5950 4156.015625 L 5977.03125 4162.03125 L 6005 4165 L 6032.03125 4162.96875 L 6060 4156.015625 L 6087.03125 4145 L 6115 4128.984375 L 6142.03125 4107.96875 L 6170 4082.03125 L 6197.03125 4050 L 6225 4012.03125 L 6252.03125 3968.984375 L 6278.984375 3918.984375 L 6307.03125 3862.96875 L 6333.984375 3802.03125 L 6362.03125 3733.984375 L 6388.984375 3660 L 6417.03125 3581.015625 L 6443.984375 3497.03125 L 6472.03125 3407.96875 L 6498.984375 3315 L 6527.03125 3218.984375 L 6553.984375 3121.015625 L 6581.015625 3021.015625 L 6608.984375 2922.03125 L 6636.015625 2822.96875 L 6663.984375 2727.03125 L 6691.015625 2635 L 6718.984375 2547.03125 L 6746.015625 2466.015625 L 6773.984375 2392.03125 L 6801.015625 2325 L 6828.984375 2267.03125 L 6856.015625 2217.96875 L 6882.96875 2177.96875 L 6911.015625 2146.015625 L 6937.96875 2123.984375 L 6966.015625 2110 L 6992.96875 2102.96875 L 7021.015625 2103.984375 L 7047.96875 2112.03125 L 7076.015625 2126.015625 L 7102.96875 2143.984375 L 7130 2167.96875 L 7157.96875 2195 L 7185 2226.015625 L 7212.96875 2260 L 7240 2297.03125 L 7267.96875 2335 L 7295 2375 L 7322.96875 2417.03125 L 7350 2458.984375 L 7377.96875 2502.03125 L 7405 2546.015625 L 7432.03125 2588.984375 L 7460 2632.96875 L 7487.03125 2677.03125 L 7515 2720 L 7542.03125 2762.03125 L 7570 2803.984375 L 7597.03125 2846.015625 L 7625 2886.015625 L 7652.03125 2925 L 7680 2962.96875 L 7707.03125 3000 L 7733.984375 3036.015625 L 7762.03125 3070 L 7788.984375 3102.03125 L 7817.03125 3132.96875 L 7843.984375 3162.96875 L 7872.03125 3190 L 7898.984375 3216.015625 L 7927.03125 3240 L 7953.984375 3262.03125 L 7981.015625 3282.03125 L 8008.984375 3300 L 8036.015625 3316.015625 L 8063.984375 3328.984375 L 8091.015625 3341.015625 L 8118.984375 3348.984375 L 8146.015625 3356.015625 L 8173.984375 3360 L 8201.015625 3361.015625 L 8228.984375 3360 L 8256.015625 3357.03125 L 8282.96875 3351.015625 L 8311.015625 3342.03125 L 8337.96875 3331.015625 L 8366.015625 3317.03125 L 8392.96875 3301.015625 L 8421.015625 3282.03125 L 8447.96875 3261.015625 L 8476.015625 3237.96875 L 8502.96875 3212.03125 L 8531.015625 3185 L 8557.96875 3156.015625 L 8585 3125 L 8612.96875 3092.03125 L 8640 3058.984375 L 8667.96875 3023.984375 L 8695 2988.984375 L 8722.96875 2952.96875 L 8750 2917.03125 L 8777.96875 2881.015625 L 8805 2846.015625 L 8832.96875 2812.03125 L 8860 2777.96875 L 8887.03125 2746.015625 L 8915 2715 L 8942.03125 2687.03125 L 8970 2660 L 8997.03125 2635 L 9025 2612.96875 L 9052.03125 2593.984375 L 9080 2576.015625 L 9107.03125 2562.03125 L 9133.984375 2550 L 9162.03125 2541.015625 L 9188.984375 2535 L 9217.03125 2531.015625 L 9243.984375 2528.984375 L 9272.03125 2530 L 9298.984375 2532.96875 L 9327.03125 2537.96875 L 9353.984375 2546.015625 L 9382.03125 2555 L 9408.984375 2565 L 9436.015625 2577.96875 L 9463.984375 2591.015625 L 9491.015625 2606.015625 L 9518.984375 2622.03125 L 9546.015625 2638.984375 L 9573.984375 2657.03125 L 9601.015625 2675 L 9628.984375 2693.984375 L 9656.015625 2712.96875 L 9682.96875 2732.96875 L 9711.015625 2752.03125 L 9737.96875 2772.03125 L 9766.015625 2792.03125 L 9792.96875 2811.015625 L 9821.015625 2830 L 9847.96875 2848.984375 L 9876.015625 2867.96875 L 9902.96875 2885 L 9931.015625 2902.96875 L 9957.96875 2918.984375 L 9986.015625 2935 L 10012.96875 2950 L 10040 2965 L 10067.96875 2977.96875 L 10095 2990 L 10122.96875 3002.03125 L 10150 3012.03125 L 10177.96875 3021.015625 L 10205 3030 L 10232.96875 3037.03125 L 10287.03125 3047.03125 L 10315 3051.015625 L 10342.03125 3052.96875 L 10369.296875 3054.453125 L 10397.1875 3054.453125 L 10425 3052.96875 L 10452.03125 3050 L 10480 3047.03125 L 10507.03125 3042.03125 L 10535 3036.015625 L 10562.03125 3028.984375 L 10588.984375 3021.015625 L 10617.03125 3012.96875 L 10643.984375 3002.96875 L 10672.03125 2992.96875 L 10698.984375 2981.015625 L 10727.03125 2968.984375 L 10753.984375 2957.03125 L 10782.03125 2943.984375 L 10808.984375 2931.015625 L 10836.015625 2917.03125 L 10863.984375 2902.96875 L 10891.015625 2888.984375 L 10918.984375 2875 L 10946.015625 2861.015625 L 10973.984375 2847.96875 L 11001.015625 2833.984375 L 11028.984375 2821.015625 L 11056.015625 2808.984375 L 11083.984375 2797.03125 L 11111.015625 2785 L 11138.984375 2773.984375 L 11166.015625 2763.984375 L 11192.96875 2755 L 11221.015625 2747.03125 L 11247.96875 2738.984375 L 11276.015625 2732.96875 L 11302.96875 2727.03125 L 11331.015625 2722.96875 L 11357.96875 2718.984375 L 11385 2716.015625 L 11412.96875 2715 L 11440 2714.453125 L 11467.421875 2714.453125 L 11495 2715 L 11522.96875 2717.03125 L 11550 2718.984375 L 11577.96875 2722.96875 L 11605 2727.03125 L 11632.96875 2731.015625 L 11660 2737.03125 L 11687.96875 2742.96875 L 11715 2748.984375 L 11742.03125 2756.015625 L 11770 2762.96875 L 11797.03125 2771.015625 L 11825 2777.96875 L 11852.03125 2787.03125 L 11880 2795 L 11907.03125 2802.96875 L 11935 2812.03125 L 11962.03125 2820 L 11988.984375 2827.96875 L 12017.03125 2837.03125 L 12043.984375 2845 L 12072.03125 2852.96875 L 12098.984375 2861.015625 L 12127.03125 2867.96875 L 12153.984375 2875 L 12182.03125 2882.03125 L 12208.984375 2888.984375 L 12237.03125 2895 L 12263.984375 2901.015625 L 12292.03125 2906.015625 " transform="matrix(0.05,0,0,0.05,0,0)"/>
<g style="fill:rgb(0%,0%,0%);fill-opacity:1;">
  <use xlink:href="#glyph0-34" x="446.117188" y="78.301758"/>
  <use xlink:href="#glyph0-22" x="449.690918" y="78.301758"/>
  <use xlink:href="#glyph0-21" x="453.302734" y="78.301758"/>
  <use xlink:href="#glyph0-21" x="465.966309" y="78.301758"/>
  <use xlink:href="#glyph0-35" x="478.629883" y="78.301758"/>
  <use xlink:href="#glyph0-36" x="485.129883" y="78.301758"/>
  <use xlink:href="#glyph0-29" x="493.381836" y="78.301758"/>
  <use xlink:href="#glyph0-17" x="501.621094" y="78.301758"/>
  <use xlink:href="#glyph0-20" x="506.96582" y="78.301758"/>
  <use xlink:href="#glyph0-16" x="513.73877" y="78.301758"/>
  <use xlink:href="#glyph0-32" x="518.835938" y="78.301758"/>
  <use xlink:href="#glyph0-2" x="529.728516" y="78.301758"/>
  <use xlink:href="#glyph0-3" x="537.999512" y="78.301758"/>
  <use xlink:href="#glyph0-11" x="542.131836" y="78.301758"/>
  <use xlink:href="#glyph0-34" x="550.402832" y="78.301758"/>
</g>
<path style="fill:none;stroke-width:20;stroke-linecap:butt;stroke-linejoin:miter;stroke:rgb(0%,61.960784%,45.098039%);stroke-opacity:1;stroke-miterlimit:10;" d="M 11240 1465.546875 L 11999.0625 1465.546875 " transform="matrix(0.05,0,0,0.05,0,0)"/>
<path style="fill:none;stroke-width:20;stroke-linecap:butt;stroke-linejoin:miter;stroke:rgb(0%,61.960784%,45.098039%);stroke-opacity:1;stroke-miterlimit:10;" d="M 2298.984375 6723.984375 L 2299.0625 6723.75 L 2325.15625 6723.4375 L 2354.84375 6723.203125 L 2380.859375 6722.96875 L 2407.8125 6722.8125 L 2436.5625 6722.578125 L 2463.4375 6722.421875 L 2492.1875 6722.265625 L 2519.140625 6722.109375 L 2545.15625 6721.953125 L 2574.84375 6721.796875 L 2600.859375 6721.640625 L 2627.421875 6721.640625 L 2656.25 6722.8125 L 2682.578125 6722.578125 L 2712.1875 6722.421875 L 2738.28125 6722.265625 L 2765.546875 6722.265625 L 2793.515625 6721.875 L 2820.859375 6721.71875 L 2847.421875 6721.71875 L 2875.3125 6720.9375 L 2902.8125 6720.9375 L 2929.296875 6720 L 2958.125 6720 L 2984.6875 6719.0625 L 3013.515625 6719.0625 L 3040 6717.96875 L 3067.96875 6717.03125 L 3095 6716.015625 L 3122.96875 6715 L 3150 6713.984375 L 3177.03125 6712.03125 L 3205 6710 L 3232.03125 6707.96875 L 3260 6706.015625 L 3287.03125 6702.96875 L 3315 6700 L 3342.03125 6693.984375 L 3370 6687.03125 L 3397.03125 6678.984375 L 3425 6668.984375 L 3452.03125 6658.984375 L 3478.984375 6647.96875 L 3507.03125 6635 L 3533.984375 6618.984375 L 3562.03125 6601.015625 L 3588.984375 6580 L 3617.03125 6553.984375 L 3643.984375 6525 L 3672.03125 6491.015625 L 3698.984375 6451.015625 L 3726.015625 6405 L 3753.984375 6353.984375 L 3781.015625 6297.03125 L 3808.984375 6231.015625 L 3836.015625 6155 L 3863.984375 6067.03125 L 3891.015625 5951.015625 L 3918.984375 5801.015625 L 3946.015625 5630 L 3973.984375 5437.03125 L 4001.015625 5220 L 4027.96875 4977.96875 L 4056.015625 4711.015625 L 4082.96875 4418.984375 L 4111.015625 4103.984375 L 4137.96875 3767.96875 L 4166.015625 3417.96875 L 4192.96875 3060 L 4221.015625 2702.96875 L 4247.96875 2362.96875 L 4275 2086.015625 L 4302.96875 1841.015625 L 4330 1635 L 4357.96875 1473.984375 L 4385 1360 L 4412.96875 1291.015625 L 4440 1262.03125 L 4467.96875 1265 L 4495 1292.96875 L 4522.96875 1343.984375 L 4550 1407.96875 L 4577.03125 1473.984375 L 4605 1546.015625 L 4632.03125 1631.015625 L 4660 1717.96875 L 4687.03125 1810 L 4715 1902.03125 L 4742.03125 1992.03125 L 4770 2082.03125 L 4797.03125 2170 L 4823.984375 2257.96875 L 4852.03125 2343.984375 L 4878.984375 2427.96875 L 4907.03125 2512.03125 L 4933.984375 2592.96875 L 4962.03125 2673.984375 L 4988.984375 2752.03125 L 5017.03125 2828.984375 L 5043.984375 2903.984375 L 5072.03125 2977.03125 L 5098.984375 3048.984375 L 5127.03125 3113.984375 L 5153.984375 3177.03125 L 5181.015625 3237.96875 L 5208.984375 3297.03125 L 5236.015625 3353.984375 L 5263.984375 3410 L 5291.015625 3463.984375 L 5318.984375 3520 L 5346.015625 3575 L 5373.984375 3628.984375 L 5401.015625 3681.015625 L 5427.96875 3731.015625 L 5456.015625 3778.984375 L 5482.96875 3825 L 5511.015625 3867.96875 L 5537.96875 3908.984375 L 5566.015625 3943.984375 L 5592.96875 3977.03125 L 5621.015625 4006.015625 L 5647.96875 4033.984375 L 5676.015625 4057.96875 L 5702.96875 4078.984375 L 5730 4097.03125 L 5757.96875 4111.015625 L 5785 4120 L 5812.96875 4112.03125 L 5840 4101.015625 L 5867.96875 4083.984375 L 5895 4062.03125 L 5922.96875 4035 L 5950 4002.03125 L 5977.03125 3967.03125 L 6005 3932.96875 L 6032.03125 3895 L 6060 3850 L 6087.03125 3800 L 6115 3745 L 6142.03125 3683.984375 L 6170 3617.96875 L 6197.03125 3547.03125 L 6225 3471.015625 L 6252.03125 3391.015625 L 6278.984375 3307.03125 L 6307.03125 3211.015625 L 6333.984375 3111.015625 L 6362.03125 3008.984375 L 6388.984375 2907.96875 L 6417.03125 2807.96875 L 6443.984375 2716.015625 L 6472.03125 2673.984375 L 6498.984375 2633.984375 L 6527.03125 2597.96875 L 6553.984375 2560 L 6581.015625 2478.984375 L 6608.984375 2406.015625 L 6636.015625 2340 L 6663.984375 2282.03125 L 6691.015625 2232.96875 L 6718.984375 2192.96875 L 6746.015625 2161.015625 L 6773.984375 2137.96875 L 6801.015625 2122.96875 L 6828.359375 2116.25 L 6856.25 2116.25 L 6882.96875 2121.015625 L 6911.015625 2162.03125 L 6937.96875 2215 L 6966.015625 2270 L 6992.96875 2325 L 7021.015625 2381.015625 L 7047.96875 2437.96875 L 7076.015625 2493.984375 L 7102.96875 2542.96875 L 7130 2580 L 7157.96875 2617.96875 L 7185 2661.015625 L 7212.96875 2708.984375 L 7240 2755 L 7267.96875 2801.015625 L 7295 2845 L 7322.96875 2888.984375 L 7350 2932.03125 L 7377.96875 2972.96875 L 7405 3013.984375 L 7432.03125 3052.03125 L 7460 3090 L 7487.03125 3125 L 7515 3161.015625 L 7542.03125 3203.984375 L 7570 3245 L 7597.03125 3282.96875 L 7625 3318.984375 L 7652.03125 3353.984375 L 7680 3386.015625 L 7707.03125 3416.015625 L 7733.984375 3412.03125 L 7762.03125 3398.984375 L 7788.984375 3382.03125 L 7817.03125 3365 L 7843.984375 3348.984375 L 7872.03125 3328.984375 L 7898.984375 3307.96875 L 7927.03125 3282.96875 L 7953.984375 3257.03125 L 7981.015625 3227.96875 L 8008.984375 3197.03125 L 8036.015625 3163.984375 L 8063.984375 3128.984375 L 8091.015625 3092.96875 L 8118.984375 3055 L 8146.015625 3017.03125 L 8173.984375 2993.984375 L 8201.015625 2975 L 8228.984375 2955 L 8256.015625 2933.984375 L 8282.96875 2898.984375 L 8311.015625 2863.984375 L 8337.96875 2830 L 8366.015625 2796.015625 L 8392.96875 2763.984375 L 8421.015625 2737.96875 L 8447.96875 2713.984375 L 8476.015625 2692.96875 L 8502.96875 2672.96875 L 8531.015625 2655 L 8557.96875 2638.984375 L 8585 2625 L 8612.96875 2633.984375 L 8777.96875 2798.984375 L 8805 2820 L 8832.96875 2796.015625 L 8860 2772.03125 L 8887.03125 2750 L 8915 2728.984375 L 8942.03125 2708.984375 L 8970 2691.015625 L 8997.03125 2685 L 9025 2681.015625 L 9052.03125 2678.984375 L 9080 2677.1875 L 9106.484375 2677.1875 L 9133.984375 2677.96875 L 9162.03125 2680 L 9188.984375 2682.96875 L 9217.03125 2687.03125 L 9243.984375 2692.03125 L 9272.03125 2697.96875 L 9298.984375 2705 L 9327.03125 2712.03125 L 9353.984375 2718.984375 L 9382.03125 2727.03125 L 9408.984375 2735 L 9436.015625 2743.984375 L 9463.984375 2768.984375 L 9491.015625 2795 L 9518.984375 2821.015625 L 9546.015625 2847.03125 L 9573.984375 2871.015625 L 9601.015625 2896.015625 L 9628.984375 2918.984375 L 9656.015625 2942.03125 L 9682.96875 2962.96875 L 9711.015625 2992.03125 L 9737.96875 3020 L 9766.015625 3047.03125 L 9792.96875 3072.03125 L 9821.015625 3096.015625 L 9847.96875 3118.984375 L 9876.015625 3140 L 9902.96875 3158.984375 L 9931.015625 3177.03125 L 9957.96875 3182.96875 L 9986.015625 3157.96875 L 10012.96875 3132.03125 L 10040 3103.984375 L 10067.96875 3073.984375 L 10095 3043.984375 L 10122.96875 3013.984375 L 10150.703125 3016.25 L 10178.125 3016.25 L 10205 3015 L 10232.96875 3012.96875 L 10260 3011.015625 L 10287.03125 3007.03125 L 10315 3002.03125 L 10342.03125 2997.03125 L 10370 2991.015625 L 10397.03125 2983.984375 L 10425 2976.015625 L 10452.03125 2952.03125 L 10480 2905 L 10507.03125 2857.96875 L 10535 2813.984375 L 10562.03125 2783.984375 L 10588.984375 2755 L 10617.03125 2727.03125 L 10643.984375 2701.015625 L 10672.03125 2677.96875 L 10698.984375 2662.03125 L 10727.03125 2647.96875 L 10753.984375 2635 L 10782.03125 2625 L 10808.984375 2617.03125 L 10836.015625 2610 L 10863.984375 2606.015625 L 10891.015625 2602.96875 L 10918.984375 2602.03125 L 10946.015625 2602.96875 L 10973.984375 2606.015625 L 11001.015625 2610 L 11028.984375 2615 L 11056.015625 2611.015625 L 11083.984375 2606.015625 L 11111.015625 2602.03125 L 11139.0625 2600.9375 L 11165.546875 2600.9375 L 11192.96875 2602.96875 L 11221.015625 2607.03125 L 11247.96875 2612.03125 L 11276.015625 2617.96875 L 11302.96875 2625 L 11331.015625 2631.015625 L 11357.96875 2638.984375 L 11385 2647.03125 L 11412.96875 2657.03125 L 11440 2667.96875 L 11467.96875 2681.015625 L 11495 2697.03125 L 11522.96875 2713.984375 L 11550 2732.03125 L 11577.96875 2748.984375 L 11605 2767.03125 L 11632.96875 2782.03125 L 11660 2796.015625 L 11687.96875 2810 L 11742.03125 2837.96875 L 11770 2851.015625 L 11797.03125 2863.984375 L 11825 2877.03125 L 11852.03125 2888.984375 L 11880 2905 L 11907.03125 2942.96875 L 11935 2978.984375 L 11962.03125 3015 L 11988.984375 3047.96875 L 12017.03125 3081.015625 L 12043.984375 3112.03125 L 12072.03125 3131.015625 L 12098.984375 3128.984375 L 12127.03125 3126.015625 L 12153.984375 3121.015625 L 12182.03125 3115 L 12208.984375 3107.96875 L 12237.03125 3098.984375 L 12263.984375 3087.96875 L 12292.03125 3076.015625 " transform="matrix(0.05,0,0,0.05,0,0)"/>
<g style="fill:rgb(0%,0%,0%);fill-opacity:1;">
  <use xlink:href="#glyph0-34" x="446.117188" y="93.250977"/>
  <use xlink:href="#glyph0-22" x="449.690918" y="93.250977"/>
  <use xlink:href="#glyph0-21" x="453.302734" y="93.250977"/>
  <use xlink:href="#glyph0-21" x="465.966309" y="93.250977"/>
  <use xlink:href="#glyph0-35" x="478.629883" y="93.250977"/>
  <use xlink:href="#glyph0-36" x="485.129883" y="93.250977"/>
  <use xlink:href="#glyph0-29" x="493.381836" y="93.250977"/>
  <use xlink:href="#glyph0-17" x="501.621094" y="93.250977"/>
  <use xlink:href="#glyph0-20" x="506.96582" y="93.250977"/>
  <use xlink:href="#glyph0-16" x="513.73877" y="93.250977"/>
  <use xlink:href="#glyph0-32" x="518.835938" y="93.250977"/>
  <use xlink:href="#glyph0-6" x="529.728516" y="93.250977"/>
  <use xlink:href="#glyph0-3" x="537.999512" y="93.250977"/>
  <use xlink:href="#glyph0-2" x="542.131836" y="93.250977"/>
  <use xlink:href="#glyph0-34" x="550.402832" y="93.250977"/>
</g>
<path style="fill:none;stroke-width:20;stroke-linecap:butt;stroke-linejoin:miter;stroke:rgb(33.72549%,70.588235%,91.372549%);stroke-opacity:1;stroke-miterlimit:10;" d="M 11240 1764.6875 L 11999.0625 1764.6875 " transform="matrix(0.05,0,0,0.05,0,0)"/>
<path style="fill:none;stroke-width:20;stroke-linecap:butt;stroke-linejoin:miter;stroke:rgb(33.72549%,70.588235%,91.372549%);stroke-opacity:1;stroke-miterlimit:10;" d="M 2298.984375 6723.984375 L 2299.0625 6723.75 L 2325.15625 6723.4375 L 2354.84375 6723.203125 L 2380.859375 6722.96875 L 2407.8125 6722.8125 L 2436.5625 6722.578125 L 2463.4375 6722.421875 L 2492.1875 6722.265625 L 2519.140625 6722.109375 L 2545.15625 6721.953125 L 2574.84375 6721.796875 L 2600.9375 6721.796875 L 2627.421875 6722.8125 L 2656.5625 6722.578125 L 2682.578125 6722.421875 L 2712.1875 6722.265625 L 2738.28125 6722.109375 L 2765.546875 6722.109375 L 2793.515625 6721.875 L 2820.859375 6721.71875 L 2847.421875 6721.71875 L 2875.3125 6720.9375 L 2902.8125 6720.9375 L 2930 6720 L 2957.96875 6718.984375 L 2985 6717.96875 L 3012.96875 6717.03125 L 3040 6716.015625 L 3067.96875 6713.984375 L 3095 6712.96875 L 3122.96875 6710 L 3150 6707.96875 L 3177.03125 6706.015625 L 3205 6702.03125 L 3232.03125 6698.984375 L 3260 6695 L 3287.03125 6691.015625 L 3315 6683.984375 L 3342.03125 6677.96875 L 3370 6672.96875 L 3397.03125 6663.984375 L 3425 6650 L 3452.03125 6636.015625 L 3478.984375 6626.015625 L 3507.03125 6616.015625 L 3533.984375 6605 L 3562.03125 6593.984375 L 3588.984375 6567.96875 L 3617.03125 6531.015625 L 3643.984375 6501.015625 L 3672.03125 6466.015625 L 3698.984375 6423.984375 L 3726.015625 6362.96875 L 3753.984375 6291.015625 L 3781.015625 6207.96875 L 3808.984375 6127.03125 L 3836.015625 6017.03125 L 3863.984375 5915 L 3891.015625 5762.96875 L 3918.984375 5628.984375 L 3946.015625 5425 L 3973.984375 5152.03125 L 4001.015625 4832.03125 L 4027.96875 4528.984375 L 4056.015625 4311.015625 L 4082.96875 3933.984375 L 4111.015625 3681.015625 L 4137.96875 3461.015625 L 4166.015625 3210 L 4192.96875 2893.984375 L 4221.015625 2515 L 4247.96875 2267.96875 L 4275 1931.015625 L 4302.96875 1685 L 4330 1488.984375 L 4357.96875 1352.96875 L 4385 1223.984375 L 4412.96875 1181.015625 L 4440 1172.96875 L 4467.96875 1196.015625 L 4495 1246.015625 L 4522.96875 1301.015625 L 4550 1378.984375 L 4577.03125 1467.96875 L 4605 1542.96875 L 4632.03125 1625 L 4660 1713.984375 L 4687.03125 1802.03125 L 4715 1897.03125 L 4742.03125 1986.015625 L 4770 2077.96875 L 4797.03125 2163.984375 L 4823.984375 2253.984375 L 4852.03125 2341.015625 L 4878.984375 2422.03125 L 4907.03125 2503.984375 L 4933.984375 2586.015625 L 4962.03125 2667.96875 L 4988.984375 2747.96875 L 5017.03125 2825 L 5043.984375 2900 L 5072.03125 2972.96875 L 5098.984375 3045 L 5127.03125 3111.015625 L 5153.984375 3181.015625 L 5181.015625 3251.015625 L 5208.984375 3316.015625 L 5236.015625 3378.984375 L 5263.984375 3438.984375 L 5291.015625 3497.96875 L 5318.984375 3557.03125 L 5346.015625 3613.984375 L 5373.984375 3667.96875 L 5401.015625 3721.015625 L 5427.96875 3777.96875 L 5456.015625 3825 L 5482.96875 3872.96875 L 5511.015625 3915 L 5537.96875 3957.96875 L 5566.015625 4003.984375 L 5592.96875 4038.984375 L 5621.015625 4080 L 5647.96875 4116.015625 L 5676.015625 4150 L 5702.96875 4177.96875 L 5730 4196.015625 L 5757.96875 4210 L 5785 4223.984375 L 5812.96875 4237.96875 L 5840 4241.015625 L 5867.96875 4265 L 5895 4267.03125 L 5922.96875 4280 L 5950 4288.984375 L 5977.03125 4267.96875 L 6005 4237.96875 L 6032.03125 4190 L 6060 4140 L 6087.03125 4112.96875 L 6115 4082.96875 L 6142.03125 4037.96875 L 6170 3956.015625 L 6197.03125 3870 L 6225 3766.015625 L 6252.03125 3660 L 6278.984375 3557.96875 L 6307.03125 3510 L 6333.984375 3407.03125 L 6362.03125 3296.015625 L 6388.984375 3205 L 6417.03125 3101.015625 L 6443.984375 3030 L 6472.03125 2938.984375 L 6498.984375 2908.984375 L 6527.03125 2832.96875 L 6553.984375 2737.03125 L 6581.015625 2707.96875 L 6608.984375 2677.03125 L 6636.015625 2565 L 6663.984375 2470 L 6691.015625 2338.984375 L 6718.984375 2262.96875 L 6746.015625 2242.03125 L 6773.984375 2158.984375 L 6801.015625 2165 L 6828.984375 2102.96875 L 6856.015625 2083.984375 L 6882.96875 2087.03125 L 6911.015625 2082.03125 L 6938.125 2113.515625 L 6965.546875 2113.515625 L 6992.96875 2136.015625 L 7021.015625 2172.96875 L 7047.96875 2217.03125 L 7076.015625 2232.96875 L 7102.96875 2277.96875 L 7130 2317.96875 L 7157.96875 2365 L 7185 2402.96875 L 7212.96875 2440 L 7240 2468.984375 L 7267.96875 2528.984375 L 7295 2573.984375 L 7322.96875 2605 L 7350 2653.984375 L 7377.96875 2700 L 7405 2740 L 7432.03125 2800 L 7460 2852.03125 L 7487.03125 2882.96875 L 7515 2921.015625 L 7542.03125 2946.015625 L 7570 2972.03125 L 7597.03125 3018.984375 L 7625 3065 L 7652.03125 3096.015625 L 7680 3121.015625 L 7707.03125 3142.96875 L 7733.984375 3173.984375 L 7762.03125 3206.015625 L 7788.984375 3230 L 7817.03125 3262.96875 L 7843.984375 3307.03125 L 7872.03125 3308.984375 L 7898.984375 3330 L 7927.03125 3356.015625 L 7953.984375 3362.03125 L 7981.015625 3356.015625 L 8008.984375 3357.96875 L 8036.015625 3383.984375 L 8063.984375 3370 L 8091.015625 3357.03125 L 8118.984375 3370 L 8146.015625 3337.03125 L 8173.984375 3311.015625 L 8200.9375 3295.3125 L 8228.359375 3295.3125 L 8256.015625 3253.984375 L 8282.96875 3230 L 8311.015625 3211.015625 L 8337.96875 3196.015625 L 8366.015625 3177.03125 L 8392.96875 3188.984375 L 8421.015625 3152.03125 L 8447.96875 3122.96875 L 8476.015625 3087.03125 L 8502.96875 3078.984375 L 8531.015625 3092.03125 L 8557.96875 3052.96875 L 8585 2987.03125 L 8612.96875 2980 L 8640 2935 L 8667.96875 2877.03125 L 8695 2808.984375 L 8722.96875 2751.015625 L 8750 2683.984375 L 8777.96875 2642.96875 L 8805 2612.96875 L 8832.96875 2603.984375 L 8860 2560 L 8887.03125 2573.984375 L 8915 2570 L 8942.03125 2572.96875 L 8970 2561.015625 L 8997.03125 2581.015625 L 9025 2546.015625 L 9052.03125 2512.96875 L 9080 2488.984375 L 9107.03125 2502.96875 L 9133.984375 2508.984375 L 9162.03125 2511.015625 L 9188.984375 2521.015625 L 9217.03125 2526.015625 L 9243.984375 2532.96875 L 9272.03125 2565 L 9298.984375 2585 L 9327.03125 2612.96875 L 9353.984375 2633.984375 L 9382.03125 2663.984375 L 9408.984375 2706.015625 L 9436.015625 2741.015625 L 9463.984375 2757.96875 L 9491.015625 2765 L 9518.984375 2778.984375 L 9546.015625 2796.015625 L 9573.984375 2807.03125 L 9601.015625 2826.015625 L 9628.984375 2862.03125 L 9656.015625 2882.96875 L 9682.96875 2882.03125 L 9711.015625 2903.984375 L 9737.96875 2913.984375 L 9766.015625 2932.03125 L 9792.96875 2962.96875 L 9821.015625 3002.03125 L 9847.96875 3030 L 9876.015625 3035 L 9902.96875 3012.96875 L 9931.015625 3042.96875 L 9957.96875 3065 L 9986.015625 3092.03125 L 10012.96875 3090 L 10040 3096.015625 L 10067.96875 3110 L 10095 3106.015625 L 10122.96875 3078.984375 L 10150 3086.015625 L 10177.96875 3052.96875 L 10205 3047.03125 L 10232.96875 3018.984375 L 10260 2982.03125 L 10287.03125 2988.984375 L 10315 2992.96875 L 10342.03125 3017.03125 L 10370 3013.984375 L 10397.03125 3035 L 10425 3056.015625 L 10452.03125 3063.984375 L 10480 3040 L 10507.03125 3048.984375 L 10535 3058.984375 L 10562.03125 3037.03125 L 10588.359375 3000.9375 L 10617.1875 3000.9375 L 10643.984375 2991.015625 L 10672.03125 2968.984375 L 10698.984375 2952.03125 L 10727.03125 2948.984375 L 10753.984375 2920 L 10782.03125 2915 L 10808.984375 2861.015625 L 10836.015625 2846.015625 L 10863.984375 2822.03125 L 10891.015625 2796.015625 L 10918.984375 2777.03125 L 10946.015625 2763.984375 L 10973.984375 2721.015625 L 11001.015625 2703.984375 L 11028.984375 2682.96875 L 11056.015625 2627.96875 L 11083.984375 2592.03125 L 11111.015625 2565 L 11138.984375 2527.96875 L 11166.015625 2512.96875 L 11192.96875 2477.96875 L 11221.015625 2472.03125 L 11247.96875 2498.984375 L 11276.015625 2502.03125 L 11302.96875 2532.03125 L 11331.015625 2522.96875 L 11357.96875 2526.015625 L 11385 2562.03125 L 11412.96875 2590 L 11440 2585 L 11467.96875 2596.015625 L 11495 2598.984375 L 11522.96875 2618.984375 L 11550 2657.03125 L 11577.96875 2687.03125 L 11605 2722.03125 L 11632.96875 2761.015625 L 11660 2792.03125 L 11687.96875 2832.96875 L 11715 2846.015625 L 11742.03125 2861.015625 L 11770 2867.03125 L 11797.03125 2872.03125 L 11825 2902.03125 L 11852.03125 2933.984375 L 11880 2962.03125 L 11907.03125 2976.015625 L 11935 2987.96875 L 11962.03125 2986.015625 L 11988.984375 2992.03125 L 12017.03125 2997.03125 L 12043.984375 3016.015625 L 12072.03125 3018.984375 L 12099.0625 3041.875 L 12126.484375 3041.875 L 12153.984375 3032.96875 L 12182.03125 3038.984375 L 12208.984375 3060 L 12237.03125 3083.984375 L 12263.984375 3097.96875 L 12292.03125 3131.015625 " transform="matrix(0.05,0,0,0.05,0,0)"/>
<g style="fill:rgb(0%,0%,0%);fill-opacity:1;">
  <use xlink:href="#glyph0-34" x="446.117188" y="108.200195"/>
  <use xlink:href="#glyph0-22" x="449.690918" y="108.200195"/>
  <use xlink:href="#glyph0-21" x="453.302734" y="108.200195"/>
  <use xlink:href="#glyph0-21" x="465.966309" y="108.200195"/>
  <use xlink:href="#glyph0-35" x="478.629883" y="108.200195"/>
  <use xlink:href="#glyph0-36" x="485.129883" y="108.200195"/>
  <use xlink:href="#glyph0-29" x="493.381836" y="108.200195"/>
  <use xlink:href="#glyph0-17" x="501.621094" y="108.200195"/>
  <use xlink:href="#glyph0-20" x="506.96582" y="108.200195"/>
  <use xlink:href="#glyph0-16" x="513.73877" y="108.200195"/>
  <use xlink:href="#glyph0-32" x="518.835938" y="108.200195"/>
  <use xlink:href="#glyph0-8" x="529.728516" y="108.200195"/>
  <use xlink:href="#glyph0-3" x="537.999512" y="108.200195"/>
  <use xlink:href="#glyph0-2" x="542.131836" y="108.200195"/>
  <use xlink:href="#glyph0-34" x="550.402832" y="108.200195"/>
</g>
<path style="fill:none;stroke-width:20;stroke-linecap:butt;stroke-linejoin:miter;stroke:rgb(90.196078%,62.352941%,0%);stroke-opacity:1;stroke-miterlimit:10;" d="M 11240 2063.75 L 11999.0625 2063.75 " transform="matrix(0.05,0,0,0.05,0,0)"/>
<path style="fill:none;stroke-width:20;stroke-linecap:butt;stroke-linejoin:miter;stroke:rgb(90.196078%,62.352941%,0%);stroke-opacity:1;stroke-miterlimit:10;" d="M 2298.984375 6723.984375 L 2299.0625 6723.75 L 2325.15625 6723.4375 L 2354.84375 6723.203125 L 2380.859375 6722.96875 L 2407.8125 6722.8125 L 2436.5625 6722.578125 L 2463.4375 6722.421875 L 2492.1875 6722.265625 L 2519.140625 6722.109375 L 2545.546875 6722.109375 L 2574.453125 6722.8125 L 2600.859375 6722.578125 L 2626.953125 6722.421875 L 2656.5625 6722.265625 L 2682.578125 6722.109375 L 2711.640625 6722.109375 L 2738.125 6721.875 L 2765.15625 6721.71875 L 2793.515625 6721.71875 L 2820.9375 6720.9375 L 2847.421875 6720.9375 L 2875.3125 6719.0625 L 2902.8125 6719.0625 L 2930 6717.96875 L 2957.96875 6717.03125 L 2985 6715 L 3012.96875 6713.984375 L 3040 6711.015625 L 3067.96875 6708.984375 L 3095 6707.03125 L 3122.96875 6702.96875 L 3150 6698.984375 L 3177.03125 6696.015625 L 3205 6691.015625 L 3232.03125 6685 L 3260 6680 L 3287.03125 6673.984375 L 3315 6663.984375 L 3342.03125 6653.984375 L 3370 6648.984375 L 3397.03125 6635 L 3425 6612.03125 L 3452.03125 6591.015625 L 3478.984375 6577.96875 L 3507.03125 6566.015625 L 3533.984375 6555 L 3562.03125 6542.96875 L 3588.984375 6505 L 3617.03125 6447.96875 L 3643.984375 6406.015625 L 3672.03125 6357.96875 L 3698.984375 6297.96875 L 3726.015625 6207.03125 L 3753.984375 6098.984375 L 3781.015625 5975 L 3808.984375 5861.015625 L 3836.015625 5700 L 3863.984375 5562.03125 L 3891.015625 5340 L 3918.984375 5162.03125 L 3946.015625 4868.984375 L 3973.984375 4470 L 4001.015625 4007.96875 L 4027.96875 3601.015625 L 4056.015625 3356.015625 L 4082.96875 2892.96875 L 4111.015625 2642.96875 L 4137.96875 2466.015625 L 4166.015625 2267.96875 L 4192.96875 2018.984375 L 4221.015625 1725 L 4247.96875 1592.96875 L 4275 1397.96875 L 4302.96875 1297.96875 L 4330 1245 L 4357.96875 1237.03125 L 4385 1228.984375 L 4412.96875 1267.03125 L 4440 1318.984375 L 4467.96875 1382.96875 L 4495 1457.96875 L 4522.96875 1531.015625 L 4550 1618.984375 L 4577.03125 1712.03125 L 4605 1790 L 4632.03125 1872.03125 L 4660 1958.984375 L 4687.03125 2045 L 4715 2137.03125 L 4742.03125 2222.96875 L 4770 2310 L 4797.03125 2391.015625 L 4823.984375 2477.03125 L 4852.03125 2560 L 4878.984375 2633.984375 L 4907.03125 2711.015625 L 4933.984375 2788.984375 L 4962.03125 2867.03125 L 4988.984375 2942.03125 L 5017.03125 3012.96875 L 5043.984375 3082.03125 L 5072.03125 3150 L 5098.984375 3216.015625 L 5127.03125 3275 L 5153.984375 3340 L 5181.015625 3407.03125 L 5208.984375 3466.015625 L 5236.015625 3522.96875 L 5263.984375 3577.03125 L 5291.015625 3630 L 5318.984375 3683.984375 L 5346.015625 3735 L 5373.984375 3783.984375 L 5401.015625 3831.015625 L 5427.96875 3886.015625 L 5456.015625 3927.03125 L 5482.96875 3968.984375 L 5511.015625 4002.03125 L 5537.96875 4038.984375 L 5566.015625 4082.03125 L 5592.96875 4107.96875 L 5621.015625 4145 L 5647.96875 4175 L 5676.015625 4202.96875 L 5702.96875 4222.96875 L 5730 4226.015625 L 5757.96875 4225 L 5785 4223.984375 L 5812.96875 4227.03125 L 5840 4212.03125 L 5867.96875 4233.984375 L 5895 4222.03125 L 5922.96875 4230 L 5950 4235 L 5977.03125 4190 L 6005 4132.96875 L 6032.03125 4047.96875 L 6060 3963.984375 L 6087.03125 3921.015625 L 6115 3877.03125 L 6142.03125 3812.96875 L 6170 3692.96875 L 6197.03125 3571.015625 L 6225 3426.015625 L 6252.03125 3286.015625 L 6278.984375 3156.015625 L 6307.03125 3112.96875 L 6333.984375 2997.03125 L 6362.03125 2873.984375 L 6388.984375 2786.015625 L 6417.03125 2685 L 6443.984375 2632.96875 L 6472.03125 2558.984375 L 6498.984375 2565 L 6527.03125 2517.96875 L 6553.984375 2448.984375 L 6581.015625 2460 L 6608.984375 2467.03125 L 6636.015625 2388.984375 L 6663.984375 2327.96875 L 6691.015625 2228.984375 L 6718.984375 2187.96875 L 6746.015625 2202.03125 L 6773.984375 2148.984375 L 6801.015625 2185 L 6828.984375 2147.96875 L 6856.015625 2152.96875 L 6882.96875 2177.96875 L 6911.015625 2190 L 6937.96875 2238.984375 L 6966.015625 2250 L 6992.96875 2283.984375 L 7021.015625 2331.015625 L 7047.96875 2383.984375 L 7076.015625 2402.03125 L 7102.96875 2452.96875 L 7130 2495 L 7157.96875 2545 L 7185 2582.03125 L 7212.96875 2617.96875 L 7240 2640 L 7267.96875 2702.03125 L 7295 2745 L 7322.96875 2767.96875 L 7350 2813.984375 L 7377.96875 2856.015625 L 7405 2890 L 7432.03125 2952.03125 L 7460 3002.03125 L 7487.03125 3022.96875 L 7515 3053.984375 L 7542.03125 3063.984375 L 7570 3077.96875 L 7597.03125 3122.96875 L 7625 3167.03125 L 7652.03125 3188.984375 L 7680 3201.015625 L 7707.03125 3211.015625 L 7733.984375 3233.984375 L 7762.03125 3261.015625 L 7788.984375 3273.984375 L 7817.03125 3303.984375 L 7843.984375 3350 L 7872.03125 3335 L 7898.984375 3347.96875 L 7927.03125 3370 L 7953.984375 3362.96875 L 7981.015625 3338.984375 L 8008.984375 3326.015625 L 8036.015625 3353.984375 L 8063.984375 3321.015625 L 8091.015625 3291.015625 L 8118.984375 3302.96875 L 8146.015625 3245 L 8173.984375 3200 L 8201.015625 3172.03125 L 8228.984375 3171.015625 L 8256.015625 3110 L 8282.96875 3075 L 8311.015625 3051.015625 L 8337.96875 3032.03125 L 8366.015625 3011.015625 L 8392.96875 3036.015625 L 8421.015625 2993.984375 L 8447.96875 2963.984375 L 8476.015625 2926.015625 L 8502.96875 2927.96875 L 8531.015625 2958.984375 L 8557.96875 2921.015625 L 8585 2850 L 8612.96875 2857.96875 L 8640 2816.015625 L 8667.96875 2758.984375 L 8695 2690 L 8722.96875 2635 L 8750 2570 L 8777.96875 2536.015625 L 8805 2517.03125 L 8832.96875 2522.96875 L 8860 2487.03125 L 8887.03125 2520 L 8915 2530 L 8941.875 2547.421875 L 8969.296875 2547.421875 L 8997.03125 2583.984375 L 9025 2555 L 9052.03125 2527.03125 L 9080 2507.96875 L 9107.03125 2532.96875 L 9133.984375 2547.96875 L 9162.03125 2556.015625 L 9188.984375 2573.984375 L 9217.03125 2585 L 9243.984375 2596.015625 L 9272.03125 2637.03125 L 9298.984375 2661.015625 L 9327.03125 2696.015625 L 9353.984375 2720 L 9382.03125 2756.015625 L 9408.984375 2806.015625 L 9436.015625 2846.015625 L 9463.984375 2862.96875 L 9491.015625 2866.015625 L 9518.984375 2877.96875 L 9546.015625 2892.96875 L 9573.984375 2901.015625 L 9601.015625 2917.96875 L 9628.984375 2957.03125 L 9656.015625 2977.03125 L 9682.96875 2966.015625 L 9711.015625 2987.03125 L 9737.96875 2992.03125 L 9766.015625 3006.015625 L 9792.96875 3038.984375 L 9821.015625 3082.96875 L 9847.96875 3112.03125 L 9876.015625 3110 L 9902.96875 3068.984375 L 9931.015625 3102.03125 L 9957.96875 3123.984375 L 9986.015625 3152.03125 L 10012.96875 3140 L 10040 3141.015625 L 10067.96875 3152.96875 L 10095 3140 L 10122.96875 3092.96875 L 10150 3097.03125 L 10177.96875 3043.984375 L 10205 3030 L 10232.96875 2983.984375 L 10260 2927.03125 L 10287.03125 2932.96875 L 10315 2937.03125 L 10342.03125 2970 L 10370 2963.984375 L 10397.03125 2992.96875 L 10425 3022.96875 L 10452.03125 3036.015625 L 10480 3003.984375 L 10507.03125 3018.984375 L 10535 3036.015625 L 10562.03125 3007.96875 L 10588.984375 2962.03125 L 10617.03125 2967.03125 L 10643.984375 2957.03125 L 10672.03125 2932.96875 L 10698.984375 2913.984375 L 10727.03125 2917.03125 L 10754.453125 2883.75 L 10781.875 2883.75 L 10808.984375 2817.03125 L 10836.015625 2802.96875 L 10863.984375 2777.96875 L 10891.015625 2748.984375 L 10918.984375 2730 L 10946.015625 2721.015625 L 10973.984375 2670 L 11001.015625 2652.96875 L 11028.984375 2632.96875 L 11056.015625 2566.015625 L 11083.984375 2525 L 11111.015625 2496.015625 L 11138.984375 2452.03125 L 11166.015625 2437.96875 L 11192.96875 2397.96875 L 11221.015625 2395 L 11247.96875 2432.96875 L 11276.015625 2442.03125 L 11302.96875 2482.96875 L 11331.015625 2475 L 11357.96875 2482.03125 L 11385 2530 L 11412.96875 2566.015625 L 11440 2562.03125 L 11467.96875 2577.96875 L 11495 2582.96875 L 11522.96875 2607.96875 L 11550 2656.015625 L 11577.96875 2692.96875 L 11605 2735 L 11632.96875 2783.984375 L 11660 2821.015625 L 11687.96875 2871.015625 L 11715 2887.03125 L 11742.03125 2902.96875 L 11770 2910 L 11797.03125 2913.984375 L 11825 2948.984375 L 11852.03125 2988.984375 L 11880 3022.03125 L 11907.03125 3037.03125 L 11935 3050 L 11962.03125 3045 L 11988.984375 3050 L 12017.03125 3053.984375 L 12043.984375 3077.03125 L 12072.03125 3077.96875 L 12098.984375 3105 L 12127.03125 3102.96875 L 12153.984375 3088.984375 L 12182.03125 3093.984375 L 12208.984375 3120 L 12237.03125 3148.984375 L 12263.984375 3167.03125 L 12292.03125 3208.984375 " transform="matrix(0.05,0,0,0.05,0,0)"/>
<path style="fill:none;stroke-width:20;stroke-linecap:butt;stroke-linejoin:miter;stroke:rgb(0%,0%,0%);stroke-opacity:1;stroke-miterlimit:10;" d="M 2299.0625 898.125 L 2299.140625 6723.4375 L 12319.140625 6723.203125 L 12319.21875 898.28125 L 2299.0625 898.28125 " transform="matrix(0.05,0,0,0.05,0,0)"/>
</g>
</svg>
