<?xml version="1.0" encoding="UTF-8"?>
<svg xmlns="http://www.w3.org/2000/svg" xmlns:xlink="http://www.w3.org/1999/xlink" width="640pt" height="384pt" viewBox="0 0 640 384" version="1.1">
<defs>
<g>
<symbol overflow="visible" id="glyph0-0">
<path style="stroke:none;" d="M 0.640625 2.296875 L 0.640625 -9.171875 L 7.140625 -9.171875 L 7.140625 2.296875 Z M 1.375 1.578125 L 6.421875 1.578125 L 6.421875 -8.4375 L 1.375 -8.4375 Z M 1.375 1.578125 "/>
</symbol>
<symbol overflow="visible" id="glyph0-1">
<path style="stroke:none;" d=""/>
</symbol>
<symbol overflow="visible" id="glyph0-2">
<path style="stroke:none;" d="M 4.125 -8.640625 C 3.46875 -8.640625 2.972656 -8.3125 2.640625 -7.65625 C 2.304688 -7.007812 2.140625 -6.035156 2.140625 -4.734375 C 2.140625 -3.429688 2.304688 -2.453125 2.640625 -1.796875 C 2.972656 -1.148438 3.46875 -0.828125 4.125 -0.828125 C 4.789062 -0.828125 5.289062 -1.148438 5.625 -1.796875 C 5.957031 -2.453125 6.125 -3.429688 6.125 -4.734375 C 6.125 -6.035156 5.957031 -7.007812 5.625 -7.65625 C 5.289062 -8.3125 4.789062 -8.640625 4.125 -8.640625 Z M 4.125 -9.65625 C 5.1875 -9.65625 6 -9.234375 6.5625 -8.390625 C 7.125 -7.546875 7.40625 -6.328125 7.40625 -4.734375 C 7.40625 -3.140625 7.125 -1.921875 6.5625 -1.078125 C 6 -0.234375 5.1875 0.1875 4.125 0.1875 C 3.070312 0.1875 2.265625 -0.234375 1.703125 -1.078125 C 1.140625 -1.921875 0.859375 -3.140625 0.859375 -4.734375 C 0.859375 -6.328125 1.140625 -7.546875 1.703125 -8.390625 C 2.265625 -9.234375 3.070312 -9.65625 4.125 -9.65625 Z M 4.125 -9.65625 "/>
</symbol>
<symbol overflow="visible" id="glyph0-3">
<path style="stroke:none;" d="M 1.390625 -1.609375 L 2.734375 -1.609375 L 2.734375 0 L 1.390625 0 Z M 1.390625 -1.609375 "/>
</symbol>
<symbol overflow="visible" id="glyph0-4">
<path style="stroke:none;" d="M 7.3125 -3.84375 L 7.3125 -3.28125 L 1.9375 -3.28125 C 1.988281 -2.46875 2.226562 -1.851562 2.65625 -1.4375 C 3.09375 -1.019531 3.695312 -0.8125 4.46875 -0.8125 C 4.914062 -0.8125 5.347656 -0.863281 5.765625 -0.96875 C 6.191406 -1.082031 6.613281 -1.25 7.03125 -1.46875 L 7.03125 -0.359375 C 6.613281 -0.179688 6.179688 -0.046875 5.734375 0.046875 C 5.296875 0.140625 4.851562 0.1875 4.40625 0.1875 C 3.269531 0.1875 2.367188 -0.140625 1.703125 -0.796875 C 1.046875 -1.460938 0.71875 -2.359375 0.71875 -3.484375 C 0.71875 -4.648438 1.03125 -5.570312 1.65625 -6.25 C 2.289062 -6.9375 3.140625 -7.28125 4.203125 -7.28125 C 5.160156 -7.28125 5.914062 -6.972656 6.46875 -6.359375 C 7.03125 -5.742188 7.3125 -4.90625 7.3125 -3.84375 Z M 6.140625 -4.1875 C 6.128906 -4.820312 5.945312 -5.332031 5.59375 -5.71875 C 5.25 -6.101562 4.789062 -6.296875 4.21875 -6.296875 C 3.5625 -6.296875 3.035156 -6.109375 2.640625 -5.734375 C 2.253906 -5.367188 2.03125 -4.851562 1.96875 -4.1875 Z M 6.140625 -4.1875 "/>
</symbol>
<symbol overflow="visible" id="glyph0-5">
<path style="stroke:none;" d="M 5.984375 -8.15625 L 5.984375 -4.609375 L 9.515625 -4.609375 L 9.515625 -3.53125 L 5.984375 -3.53125 L 5.984375 0 L 4.90625 0 L 4.90625 -3.53125 L 1.375 -3.53125 L 1.375 -4.609375 L 4.90625 -4.609375 L 4.90625 -8.15625 Z M 5.984375 -8.15625 "/>
</symbol>
<symbol overflow="visible" id="glyph0-6">
<path style="stroke:none;" d="M 1.609375 -1.078125 L 3.703125 -1.078125 L 3.703125 -8.3125 L 1.421875 -7.859375 L 1.421875 -9.015625 L 3.6875 -9.484375 L 4.984375 -9.484375 L 4.984375 -1.078125 L 7.078125 -1.078125 L 7.078125 0 L 1.609375 0 Z M 1.609375 -1.078125 "/>
</symbol>
<symbol overflow="visible" id="glyph0-7">
<path style="stroke:none;" d="M 0.640625 -4.078125 L 4.0625 -4.078125 L 4.0625 -3.046875 L 0.640625 -3.046875 Z M 0.640625 -4.078125 "/>
</symbol>
<symbol overflow="visible" id="glyph0-8">
<path style="stroke:none;" d="M 2.5 -1.078125 L 6.96875 -1.078125 L 6.96875 0 L 0.953125 0 L 0.953125 -1.078125 C 1.441406 -1.578125 2.101562 -2.25 2.9375 -3.09375 C 3.78125 -3.945312 4.3125 -4.5 4.53125 -4.75 C 4.9375 -5.207031 5.21875 -5.597656 5.375 -5.921875 C 5.539062 -6.242188 5.625 -6.554688 5.625 -6.859375 C 5.625 -7.367188 5.445312 -7.78125 5.09375 -8.09375 C 4.75 -8.40625 4.289062 -8.5625 3.71875 -8.5625 C 3.3125 -8.5625 2.882812 -8.492188 2.4375 -8.359375 C 2 -8.222656 1.523438 -8.007812 1.015625 -7.71875 L 1.015625 -9.015625 C 1.535156 -9.222656 2.019531 -9.378906 2.46875 -9.484375 C 2.914062 -9.597656 3.320312 -9.65625 3.6875 -9.65625 C 4.675781 -9.65625 5.460938 -9.40625 6.046875 -8.90625 C 6.628906 -8.414062 6.921875 -7.757812 6.921875 -6.9375 C 6.921875 -6.550781 6.847656 -6.179688 6.703125 -5.828125 C 6.554688 -5.484375 6.289062 -5.078125 5.90625 -4.609375 C 5.800781 -4.484375 5.460938 -4.125 4.890625 -3.53125 C 4.328125 -2.945312 3.53125 -2.128906 2.5 -1.078125 Z M 2.5 -1.078125 "/>
</symbol>
<symbol overflow="visible" id="glyph0-9">
<path style="stroke:none;" d="M 5.28125 -5.109375 C 5.894531 -4.972656 6.375 -4.695312 6.71875 -4.28125 C 7.0625 -3.875 7.234375 -3.363281 7.234375 -2.75 C 7.234375 -1.820312 6.910156 -1.097656 6.265625 -0.578125 C 5.617188 -0.0664062 4.703125 0.1875 3.515625 0.1875 C 3.117188 0.1875 2.707031 0.144531 2.28125 0.0625 C 1.863281 -0.0078125 1.429688 -0.125 0.984375 -0.28125 L 0.984375 -1.53125 C 1.347656 -1.320312 1.738281 -1.160156 2.15625 -1.046875 C 2.582031 -0.941406 3.023438 -0.890625 3.484375 -0.890625 C 4.285156 -0.890625 4.894531 -1.046875 5.3125 -1.359375 C 5.738281 -1.679688 5.953125 -2.144531 5.953125 -2.75 C 5.953125 -3.3125 5.753906 -3.75 5.359375 -4.0625 C 4.972656 -4.375 4.429688 -4.53125 3.734375 -4.53125 L 2.625 -4.53125 L 2.625 -5.59375 L 3.78125 -5.59375 C 4.414062 -5.59375 4.898438 -5.71875 5.234375 -5.96875 C 5.566406 -6.21875 5.734375 -6.582031 5.734375 -7.0625 C 5.734375 -7.539062 5.5625 -7.910156 5.21875 -8.171875 C 4.875 -8.429688 4.378906 -8.5625 3.734375 -8.5625 C 3.378906 -8.5625 3 -8.523438 2.59375 -8.453125 C 2.195312 -8.378906 1.757812 -8.257812 1.28125 -8.09375 L 1.28125 -9.25 C 1.757812 -9.382812 2.210938 -9.484375 2.640625 -9.546875 C 3.066406 -9.617188 3.46875 -9.65625 3.84375 -9.65625 C 4.820312 -9.65625 5.59375 -9.429688 6.15625 -8.984375 C 6.726562 -8.546875 7.015625 -7.945312 7.015625 -7.1875 C 7.015625 -6.664062 6.863281 -6.222656 6.5625 -5.859375 C 6.257812 -5.492188 5.832031 -5.242188 5.28125 -5.109375 Z M 5.28125 -5.109375 "/>
</symbol>
<symbol overflow="visible" id="glyph0-10">
<path style="stroke:none;" d="M 4.90625 -8.359375 L 1.671875 -3.296875 L 4.90625 -3.296875 Z M 4.578125 -9.484375 L 6.1875 -9.484375 L 6.1875 -3.296875 L 7.546875 -3.296875 L 7.546875 -2.234375 L 6.1875 -2.234375 L 6.1875 0 L 4.90625 0 L 4.90625 -2.234375 L 0.640625 -2.234375 L 0.640625 -3.46875 Z M 4.578125 -9.484375 "/>
</symbol>
<symbol overflow="visible" id="glyph0-11">
<path style="stroke:none;" d="M 1.40625 -9.484375 L 6.4375 -9.484375 L 6.4375 -8.390625 L 2.578125 -8.390625 L 2.578125 -6.078125 C 2.765625 -6.140625 2.953125 -6.1875 3.140625 -6.21875 C 3.328125 -6.25 3.507812 -6.265625 3.6875 -6.265625 C 4.75 -6.265625 5.585938 -5.972656 6.203125 -5.390625 C 6.828125 -4.816406 7.140625 -4.035156 7.140625 -3.046875 C 7.140625 -2.023438 6.820312 -1.226562 6.1875 -0.65625 C 5.550781 -0.09375 4.65625 0.1875 3.5 0.1875 C 3.101562 0.1875 2.695312 0.148438 2.28125 0.078125 C 1.863281 0.015625 1.4375 -0.0820312 1 -0.21875 L 1 -1.515625 C 1.382812 -1.304688 1.78125 -1.148438 2.1875 -1.046875 C 2.59375 -0.941406 3.019531 -0.890625 3.46875 -0.890625 C 4.207031 -0.890625 4.789062 -1.082031 5.21875 -1.46875 C 5.644531 -1.851562 5.859375 -2.378906 5.859375 -3.046875 C 5.859375 -3.703125 5.644531 -4.222656 5.21875 -4.609375 C 4.789062 -4.992188 4.207031 -5.1875 3.46875 -5.1875 C 3.125 -5.1875 2.78125 -5.144531 2.4375 -5.0625 C 2.101562 -4.988281 1.757812 -4.875 1.40625 -4.71875 Z M 1.40625 -9.484375 "/>
</symbol>
<symbol overflow="visible" id="glyph0-12">
<path style="stroke:none;" d="M 2.375 -9.125 L 2.375 -7.109375 L 4.78125 -7.109375 L 4.78125 -6.203125 L 2.375 -6.203125 L 2.375 -2.34375 C 2.375 -1.757812 2.453125 -1.382812 2.609375 -1.21875 C 2.773438 -1.0625 3.101562 -0.984375 3.59375 -0.984375 L 4.78125 -0.984375 L 4.78125 0 L 3.59375 0 C 2.6875 0 2.0625 -0.164062 1.71875 -0.5 C 1.375 -0.84375 1.203125 -1.457031 1.203125 -2.34375 L 1.203125 -6.203125 L 0.34375 -6.203125 L 0.34375 -7.109375 L 1.203125 -7.109375 L 1.203125 -9.125 Z M 2.375 -9.125 "/>
</symbol>
<symbol overflow="visible" id="glyph0-13">
<path style="stroke:none;" d="M 5.34375 -6.015625 C 5.207031 -6.085938 5.0625 -6.140625 4.90625 -6.171875 C 4.757812 -6.210938 4.59375 -6.234375 4.40625 -6.234375 C 3.75 -6.234375 3.242188 -6.019531 2.890625 -5.59375 C 2.535156 -5.164062 2.359375 -4.550781 2.359375 -3.75 L 2.359375 0 L 1.1875 0 L 1.1875 -7.109375 L 2.359375 -7.109375 L 2.359375 -6 C 2.597656 -6.4375 2.914062 -6.757812 3.3125 -6.96875 C 3.707031 -7.175781 4.1875 -7.28125 4.75 -7.28125 C 4.832031 -7.28125 4.921875 -7.273438 5.015625 -7.265625 C 5.109375 -7.253906 5.21875 -7.238281 5.34375 -7.21875 Z M 5.34375 -6.015625 "/>
</symbol>
<symbol overflow="visible" id="glyph0-14">
<path style="stroke:none;" d="M 4.453125 -3.578125 C 3.515625 -3.578125 2.863281 -3.46875 2.5 -3.25 C 2.132812 -3.03125 1.953125 -2.660156 1.953125 -2.140625 C 1.953125 -1.734375 2.085938 -1.40625 2.359375 -1.15625 C 2.628906 -0.914062 3 -0.796875 3.46875 -0.796875 C 4.113281 -0.796875 4.632812 -1.023438 5.03125 -1.484375 C 5.425781 -1.941406 5.625 -2.550781 5.625 -3.3125 L 5.625 -3.578125 Z M 6.78125 -4.0625 L 6.78125 0 L 5.625 0 L 5.625 -1.078125 C 5.351562 -0.648438 5.019531 -0.332031 4.625 -0.125 C 4.226562 0.0820312 3.738281 0.1875 3.15625 0.1875 C 2.425781 0.1875 1.847656 -0.015625 1.421875 -0.421875 C 0.992188 -0.835938 0.78125 -1.382812 0.78125 -2.0625 C 0.78125 -2.863281 1.046875 -3.46875 1.578125 -3.875 C 2.117188 -4.28125 2.921875 -4.484375 3.984375 -4.484375 L 5.625 -4.484375 L 5.625 -4.609375 C 5.625 -5.140625 5.445312 -5.550781 5.09375 -5.84375 C 4.738281 -6.144531 4.238281 -6.296875 3.59375 -6.296875 C 3.1875 -6.296875 2.789062 -6.242188 2.40625 -6.140625 C 2.019531 -6.046875 1.648438 -5.898438 1.296875 -5.703125 L 1.296875 -6.78125 C 1.722656 -6.945312 2.140625 -7.070312 2.546875 -7.15625 C 2.953125 -7.238281 3.34375 -7.28125 3.71875 -7.28125 C 4.75 -7.28125 5.515625 -7.015625 6.015625 -6.484375 C 6.523438 -5.953125 6.78125 -5.144531 6.78125 -4.0625 Z M 6.78125 -4.0625 "/>
</symbol>
<symbol overflow="visible" id="glyph0-15">
<path style="stroke:none;" d="M 7.140625 -4.296875 L 7.140625 0 L 5.96875 0 L 5.96875 -4.25 C 5.96875 -4.925781 5.835938 -5.429688 5.578125 -5.765625 C 5.316406 -6.097656 4.921875 -6.265625 4.390625 -6.265625 C 3.765625 -6.265625 3.269531 -6.0625 2.90625 -5.65625 C 2.539062 -5.257812 2.359375 -4.710938 2.359375 -4.015625 L 2.359375 0 L 1.1875 0 L 1.1875 -7.109375 L 2.359375 -7.109375 L 2.359375 -6 C 2.640625 -6.425781 2.96875 -6.742188 3.34375 -6.953125 C 3.71875 -7.171875 4.15625 -7.28125 4.65625 -7.28125 C 5.46875 -7.28125 6.082031 -7.023438 6.5 -6.515625 C 6.925781 -6.015625 7.140625 -5.273438 7.140625 -4.296875 Z M 7.140625 -4.296875 "/>
</symbol>
<symbol overflow="visible" id="glyph0-16">
<path style="stroke:none;" d="M 5.75 -6.90625 L 5.75 -5.796875 C 5.425781 -5.960938 5.085938 -6.085938 4.734375 -6.171875 C 4.378906 -6.253906 4.007812 -6.296875 3.625 -6.296875 C 3.039062 -6.296875 2.601562 -6.207031 2.3125 -6.03125 C 2.03125 -5.851562 1.890625 -5.585938 1.890625 -5.234375 C 1.890625 -4.960938 1.988281 -4.75 2.1875 -4.59375 C 2.394531 -4.445312 2.816406 -4.300781 3.453125 -4.15625 L 3.84375 -4.0625 C 4.675781 -3.882812 5.265625 -3.632812 5.609375 -3.3125 C 5.960938 -2.988281 6.140625 -2.539062 6.140625 -1.96875 C 6.140625 -1.300781 5.878906 -0.773438 5.359375 -0.390625 C 4.835938 -0.00390625 4.117188 0.1875 3.203125 0.1875 C 2.816406 0.1875 2.414062 0.148438 2 0.078125 C 1.59375 0.00390625 1.160156 -0.109375 0.703125 -0.265625 L 0.703125 -1.46875 C 1.140625 -1.238281 1.566406 -1.066406 1.984375 -0.953125 C 2.398438 -0.847656 2.8125 -0.796875 3.21875 -0.796875 C 3.769531 -0.796875 4.191406 -0.890625 4.484375 -1.078125 C 4.785156 -1.265625 4.9375 -1.53125 4.9375 -1.875 C 4.9375 -2.1875 4.828125 -2.425781 4.609375 -2.59375 C 4.398438 -2.769531 3.9375 -2.9375 3.21875 -3.09375 L 2.8125 -3.1875 C 2.082031 -3.34375 1.554688 -3.578125 1.234375 -3.890625 C 0.910156 -4.203125 0.75 -4.632812 0.75 -5.1875 C 0.75 -5.851562 0.984375 -6.367188 1.453125 -6.734375 C 1.929688 -7.097656 2.609375 -7.28125 3.484375 -7.28125 C 3.910156 -7.28125 4.316406 -7.25 4.703125 -7.1875 C 5.085938 -7.125 5.4375 -7.03125 5.75 -6.90625 Z M 5.75 -6.90625 "/>
</symbol>
<symbol overflow="visible" id="glyph0-17">
<path style="stroke:none;" d="M 6.765625 -5.75 C 7.054688 -6.269531 7.40625 -6.65625 7.8125 -6.90625 C 8.21875 -7.15625 8.695312 -7.28125 9.25 -7.28125 C 9.988281 -7.28125 10.554688 -7.019531 10.953125 -6.5 C 11.359375 -5.976562 11.5625 -5.242188 11.5625 -4.296875 L 11.5625 0 L 10.390625 0 L 10.390625 -4.25 C 10.390625 -4.9375 10.265625 -5.441406 10.015625 -5.765625 C 9.773438 -6.097656 9.410156 -6.265625 8.921875 -6.265625 C 8.316406 -6.265625 7.835938 -6.0625 7.484375 -5.65625 C 7.128906 -5.257812 6.953125 -4.710938 6.953125 -4.015625 L 6.953125 0 L 5.78125 0 L 5.78125 -4.25 C 5.78125 -4.9375 5.660156 -5.441406 5.421875 -5.765625 C 5.179688 -6.097656 4.804688 -6.265625 4.296875 -6.265625 C 3.703125 -6.265625 3.226562 -6.0625 2.875 -5.65625 C 2.53125 -5.25 2.359375 -4.703125 2.359375 -4.015625 L 2.359375 0 L 1.1875 0 L 1.1875 -7.109375 L 2.359375 -7.109375 L 2.359375 -6 C 2.617188 -6.4375 2.9375 -6.757812 3.3125 -6.96875 C 3.6875 -7.175781 4.128906 -7.28125 4.640625 -7.28125 C 5.160156 -7.28125 5.597656 -7.148438 5.953125 -6.890625 C 6.316406 -6.628906 6.585938 -6.25 6.765625 -5.75 Z M 6.765625 -5.75 "/>
</symbol>
<symbol overflow="visible" id="glyph0-18">
<path style="stroke:none;" d="M 1.21875 -7.109375 L 2.390625 -7.109375 L 2.390625 0 L 1.21875 0 Z M 1.21875 -9.875 L 2.390625 -9.875 L 2.390625 -8.390625 L 1.21875 -8.390625 Z M 1.21875 -9.875 "/>
</symbol>
<symbol overflow="visible" id="glyph0-19">
<path style="stroke:none;" d="M 3.984375 -6.296875 C 3.359375 -6.296875 2.863281 -6.050781 2.5 -5.5625 C 2.132812 -5.070312 1.953125 -4.398438 1.953125 -3.546875 C 1.953125 -2.691406 2.128906 -2.019531 2.484375 -1.53125 C 2.847656 -1.050781 3.347656 -0.8125 3.984375 -0.8125 C 4.597656 -0.8125 5.085938 -1.054688 5.453125 -1.546875 C 5.816406 -2.035156 6 -2.703125 6 -3.546875 C 6 -4.390625 5.816406 -5.054688 5.453125 -5.546875 C 5.085938 -6.046875 4.597656 -6.296875 3.984375 -6.296875 Z M 3.984375 -7.28125 C 4.992188 -7.28125 5.789062 -6.945312 6.375 -6.28125 C 6.957031 -5.625 7.25 -4.710938 7.25 -3.546875 C 7.25 -2.378906 6.957031 -1.460938 6.375 -0.796875 C 5.789062 -0.140625 4.992188 0.1875 3.984375 0.1875 C 2.960938 0.1875 2.160156 -0.140625 1.578125 -0.796875 C 1.003906 -1.460938 0.71875 -2.378906 0.71875 -3.546875 C 0.71875 -4.710938 1.003906 -5.625 1.578125 -6.28125 C 2.160156 -6.945312 2.960938 -7.28125 3.984375 -7.28125 Z M 3.984375 -7.28125 "/>
</symbol>
<symbol overflow="visible" id="glyph0-20">
<path style="stroke:none;" d="M 6.34375 -6.84375 L 6.34375 -5.75 C 6.007812 -5.925781 5.675781 -6.0625 5.34375 -6.15625 C 5.007812 -6.25 4.675781 -6.296875 4.34375 -6.296875 C 3.582031 -6.296875 2.992188 -6.050781 2.578125 -5.5625 C 2.160156 -5.082031 1.953125 -4.410156 1.953125 -3.546875 C 1.953125 -2.679688 2.160156 -2.007812 2.578125 -1.53125 C 2.992188 -1.050781 3.582031 -0.8125 4.34375 -0.8125 C 4.675781 -0.8125 5.007812 -0.851562 5.34375 -0.9375 C 5.675781 -1.03125 6.007812 -1.171875 6.34375 -1.359375 L 6.34375 -0.265625 C 6.019531 -0.117188 5.679688 -0.0078125 5.328125 0.0625 C 4.984375 0.144531 4.613281 0.1875 4.21875 0.1875 C 3.144531 0.1875 2.289062 -0.144531 1.65625 -0.8125 C 1.03125 -1.488281 0.71875 -2.398438 0.71875 -3.546875 C 0.71875 -4.703125 1.035156 -5.613281 1.671875 -6.28125 C 2.304688 -6.945312 3.179688 -7.28125 4.296875 -7.28125 C 4.648438 -7.28125 5 -7.242188 5.34375 -7.171875 C 5.6875 -7.097656 6.019531 -6.988281 6.34375 -6.84375 Z M 6.34375 -6.84375 "/>
</symbol>
<symbol overflow="visible" id="glyph0-21">
<path style="stroke:none;" d="M 4.1875 0.65625 C 3.851562 1.507812 3.53125 2.0625 3.21875 2.3125 C 2.90625 2.570312 2.488281 2.703125 1.96875 2.703125 L 1.03125 2.703125 L 1.03125 1.734375 L 1.71875 1.734375 C 2.039062 1.734375 2.289062 1.65625 2.46875 1.5 C 2.644531 1.34375 2.835938 0.984375 3.046875 0.421875 L 3.265625 -0.109375 L 0.390625 -7.109375 L 1.625 -7.109375 L 3.84375 -1.546875 L 6.0625 -7.109375 L 7.3125 -7.109375 Z M 4.1875 0.65625 "/>
</symbol>
<symbol overflow="visible" id="glyph0-22">
<path style="stroke:none;" d="M 1.21875 -9.875 L 2.390625 -9.875 L 2.390625 0 L 1.21875 0 Z M 1.21875 -9.875 "/>
</symbol>
<symbol overflow="visible" id="glyph0-23">
<path style="stroke:none;" d="M 1.28125 -9.484375 L 2.5625 -9.484375 L 2.5625 0 L 1.28125 0 Z M 1.28125 -9.484375 "/>
</symbol>
<symbol overflow="visible" id="glyph0-24">
<path style="stroke:none;" d="M 5.90625 -6.03125 L 5.90625 -9.875 L 7.078125 -9.875 L 7.078125 0 L 5.90625 0 L 5.90625 -1.0625 C 5.65625 -0.644531 5.34375 -0.332031 4.96875 -0.125 C 4.59375 0.0820312 4.144531 0.1875 3.625 0.1875 C 2.769531 0.1875 2.070312 -0.15625 1.53125 -0.84375 C 0.988281 -1.53125 0.71875 -2.429688 0.71875 -3.546875 C 0.71875 -4.660156 0.988281 -5.5625 1.53125 -6.25 C 2.070312 -6.9375 2.769531 -7.28125 3.625 -7.28125 C 4.144531 -7.28125 4.59375 -7.175781 4.96875 -6.96875 C 5.34375 -6.769531 5.65625 -6.457031 5.90625 -6.03125 Z M 1.921875 -3.546875 C 1.921875 -2.691406 2.097656 -2.019531 2.453125 -1.53125 C 2.804688 -1.039062 3.289062 -0.796875 3.90625 -0.796875 C 4.53125 -0.796875 5.019531 -1.039062 5.375 -1.53125 C 5.726562 -2.019531 5.90625 -2.691406 5.90625 -3.546875 C 5.90625 -4.410156 5.726562 -5.082031 5.375 -5.5625 C 5.019531 -6.050781 4.53125 -6.296875 3.90625 -6.296875 C 3.289062 -6.296875 2.804688 -6.050781 2.453125 -5.5625 C 2.097656 -5.082031 1.921875 -4.410156 1.921875 -3.546875 Z M 1.921875 -3.546875 "/>
</symbol>
<symbol overflow="visible" id="glyph0-25">
<path style="stroke:none;" d="M 4.03125 -9.859375 C 3.46875 -8.890625 3.046875 -7.925781 2.765625 -6.96875 C 2.492188 -6.019531 2.359375 -5.054688 2.359375 -4.078125 C 2.359375 -3.097656 2.492188 -2.128906 2.765625 -1.171875 C 3.046875 -0.210938 3.46875 0.75 4.03125 1.71875 L 3.015625 1.71875 C 2.378906 0.71875 1.90625 -0.257812 1.59375 -1.21875 C 1.28125 -2.175781 1.125 -3.128906 1.125 -4.078125 C 1.125 -5.023438 1.28125 -5.972656 1.59375 -6.921875 C 1.90625 -7.878906 2.378906 -8.859375 3.015625 -9.859375 Z M 4.03125 -9.859375 "/>
</symbol>
<symbol overflow="visible" id="glyph0-26">
<path style="stroke:none;" d="M 5.765625 -4.4375 C 6.046875 -4.34375 6.316406 -4.144531 6.578125 -3.84375 C 6.835938 -3.539062 7.097656 -3.125 7.359375 -2.59375 L 8.65625 0 L 7.28125 0 L 6.0625 -2.4375 C 5.75 -3.070312 5.445312 -3.488281 5.15625 -3.6875 C 4.863281 -3.894531 4.460938 -4 3.953125 -4 L 2.5625 -4 L 2.5625 0 L 1.28125 0 L 1.28125 -9.484375 L 4.171875 -9.484375 C 5.253906 -9.484375 6.0625 -9.253906 6.59375 -8.796875 C 7.125 -8.347656 7.390625 -7.664062 7.390625 -6.75 C 7.390625 -6.15625 7.25 -5.660156 6.96875 -5.265625 C 6.695312 -4.867188 6.296875 -4.59375 5.765625 -4.4375 Z M 2.5625 -8.421875 L 2.5625 -5.0625 L 4.171875 -5.0625 C 4.785156 -5.0625 5.25 -5.203125 5.5625 -5.484375 C 5.882812 -5.773438 6.046875 -6.195312 6.046875 -6.75 C 6.046875 -7.300781 5.882812 -7.71875 5.5625 -8 C 5.25 -8.28125 4.785156 -8.421875 4.171875 -8.421875 Z M 2.5625 -8.421875 "/>
</symbol>
<symbol overflow="visible" id="glyph0-27">
<path style="stroke:none;" d="M 1.375 -5.90625 L 9.515625 -5.90625 L 9.515625 -4.84375 L 1.375 -4.84375 Z M 1.375 -3.3125 L 9.515625 -3.3125 L 9.515625 -2.234375 L 1.375 -2.234375 Z M 1.375 -3.3125 "/>
</symbol>
<symbol overflow="visible" id="glyph0-28">
<path style="stroke:none;" d="M 1.046875 -9.859375 L 2.0625 -9.859375 C 2.695312 -8.859375 3.171875 -7.878906 3.484375 -6.921875 C 3.796875 -5.972656 3.953125 -5.023438 3.953125 -4.078125 C 3.953125 -3.128906 3.796875 -2.175781 3.484375 -1.21875 C 3.171875 -0.257812 2.695312 0.71875 2.0625 1.71875 L 1.046875 1.71875 C 1.609375 0.75 2.023438 -0.210938 2.296875 -1.171875 C 2.578125 -2.128906 2.71875 -3.097656 2.71875 -4.078125 C 2.71875 -5.054688 2.578125 -6.019531 2.296875 -6.96875 C 2.023438 -7.925781 1.609375 -8.890625 1.046875 -9.859375 Z M 1.046875 -9.859375 "/>
</symbol>
<symbol overflow="visible" id="glyph0-29">
<path style="stroke:none;" d="M 2.328125 -9.484375 L 2.328125 -5.953125 L 1.25 -5.953125 L 1.25 -9.484375 Z M 2.328125 -9.484375 "/>
</symbol>
<symbol overflow="visible" id="glyph0-30">
<path style="stroke:none;" d="M 6.625 2.15625 L 6.625 3.0625 L -0.125 3.0625 L -0.125 2.15625 Z M 6.625 2.15625 "/>
</symbol>
<symbol overflow="visible" id="glyph0-31">
<path style="stroke:none;" d="M 6.328125 -3.546875 C 6.328125 -4.410156 6.148438 -5.082031 5.796875 -5.5625 C 5.441406 -6.050781 4.957031 -6.296875 4.34375 -6.296875 C 3.726562 -6.296875 3.242188 -6.050781 2.890625 -5.5625 C 2.535156 -5.082031 2.359375 -4.410156 2.359375 -3.546875 C 2.359375 -2.691406 2.535156 -2.019531 2.890625 -1.53125 C 3.242188 -1.039062 3.726562 -0.796875 4.34375 -0.796875 C 4.957031 -0.796875 5.441406 -1.039062 5.796875 -1.53125 C 6.148438 -2.019531 6.328125 -2.691406 6.328125 -3.546875 Z M 2.359375 -6.03125 C 2.597656 -6.457031 2.90625 -6.769531 3.28125 -6.96875 C 3.65625 -7.175781 4.101562 -7.28125 4.625 -7.28125 C 5.488281 -7.28125 6.191406 -6.9375 6.734375 -6.25 C 7.273438 -5.5625 7.546875 -4.660156 7.546875 -3.546875 C 7.546875 -2.429688 7.273438 -1.53125 6.734375 -0.84375 C 6.191406 -0.15625 5.488281 0.1875 4.625 0.1875 C 4.101562 0.1875 3.65625 0.0820312 3.28125 -0.125 C 2.90625 -0.332031 2.597656 -0.644531 2.359375 -1.0625 L 2.359375 0 L 1.1875 0 L 1.1875 -9.875 L 2.359375 -9.875 Z M 2.359375 -6.03125 "/>
</symbol>
<symbol overflow="visible" id="glyph0-32">
<path style="stroke:none;" d="M 1.109375 -2.8125 L 1.109375 -7.109375 L 2.265625 -7.109375 L 2.265625 -2.84375 C 2.265625 -2.175781 2.394531 -1.671875 2.65625 -1.328125 C 2.925781 -0.992188 3.320312 -0.828125 3.84375 -0.828125 C 4.476562 -0.828125 4.976562 -1.023438 5.34375 -1.421875 C 5.707031 -1.828125 5.890625 -2.378906 5.890625 -3.078125 L 5.890625 -7.109375 L 7.0625 -7.109375 L 7.0625 0 L 5.890625 0 L 5.890625 -1.09375 C 5.609375 -0.65625 5.28125 -0.332031 4.90625 -0.125 C 4.53125 0.0820312 4.09375 0.1875 3.59375 0.1875 C 2.78125 0.1875 2.160156 -0.0664062 1.734375 -0.578125 C 1.316406 -1.085938 1.109375 -1.832031 1.109375 -2.8125 Z M 4.046875 -7.28125 Z M 4.046875 -7.28125 "/>
</symbol>
<symbol overflow="visible" id="glyph1-0">
<path style="stroke:none;" d="M 2.296875 -0.640625 L -9.171875 -0.640625 L -9.171875 -7.140625 L 2.296875 -7.140625 Z M 1.578125 -1.375 L 1.578125 -6.421875 L -8.4375 -6.421875 L -8.4375 -1.375 Z M 1.578125 -1.375 "/>
</symbol>
<symbol overflow="visible" id="glyph1-1">
<path style="stroke:none;" d=""/>
</symbol>
</g>
</defs>
<g id="surface7893">
<rect x="0" y="0" width="640" height="384" style="fill:rgb(100%,100%,100%);fill-opacity:1;stroke:none;"/>
<path style="fill:none;stroke-width:10;stroke-linecap:butt;stroke-linejoin:miter;stroke:rgb(0%,0%,0%);stroke-opacity:1;stroke-dasharray:8,80;stroke-miterlimit:10;" d="M 2299.0625 6723.75 L 12319.0625 6723.75 " transform="matrix(0.05,0,0,0.05,0,0)"/>
<path style="fill:none;stroke-width:20;stroke-linecap:butt;stroke-linejoin:miter;stroke:rgb(0%,0%,0%);stroke-opacity:1;stroke-miterlimit:10;" d="M 2299.0625 6723.75 L 2418.125 6723.75 " transform="matrix(0.05,0,0,0.05,0,0)"/>
<path style="fill:none;stroke-width:20;stroke-linecap:butt;stroke-linejoin:miter;stroke:rgb(0%,0%,0%);stroke-opacity:1;stroke-miterlimit:10;" d="M 12319.0625 6723.75 L 12200 6723.75 " transform="matrix(0.05,0,0,0.05,0,0)"/>
<g style="fill:rgb(0%,0%,0%);fill-opacity:1;">
  <use xlink:href="#glyph0-1" x="38.445312" y="341.227539"/>
  <use xlink:href="#glyph0-1" x="42.577637" y="341.227539"/>
  <use xlink:href="#glyph0-1" x="46.709961" y="341.227539"/>
  <use xlink:href="#glyph0-2" x="50.842285" y="341.227539"/>
  <use xlink:href="#glyph0-3" x="59.113281" y="341.227539"/>
  <use xlink:href="#glyph0-2" x="63.245605" y="341.227539"/>
  <use xlink:href="#glyph0-4" x="71.516602" y="341.227539"/>
  <use xlink:href="#glyph0-5" x="79.514648" y="341.227539"/>
  <use xlink:href="#glyph0-2" x="90.407227" y="341.227539"/>
  <use xlink:href="#glyph0-2" x="98.678223" y="341.227539"/>
</g>
<path style="fill:none;stroke-width:10;stroke-linecap:butt;stroke-linejoin:miter;stroke:rgb(0%,0%,0%);stroke-opacity:1;stroke-dasharray:8,80;stroke-miterlimit:10;" d="M 2299.0625 5559.0625 L 12319.0625 5559.0625 " transform="matrix(0.05,0,0,0.05,0,0)"/>
<path style="fill:none;stroke-width:20;stroke-linecap:butt;stroke-linejoin:miter;stroke:rgb(0%,0%,0%);stroke-opacity:1;stroke-miterlimit:10;" d="M 2299.0625 5559.0625 L 2418.125 5559.0625 " transform="matrix(0.05,0,0,0.05,0,0)"/>
<path style="fill:none;stroke-width:20;stroke-linecap:butt;stroke-linejoin:miter;stroke:rgb(0%,0%,0%);stroke-opacity:1;stroke-miterlimit:10;" d="M 12319.0625 5559.0625 L 12200 5559.0625 " transform="matrix(0.05,0,0,0.05,0,0)"/>
<g style="fill:rgb(0%,0%,0%);fill-opacity:1;">
  <use xlink:href="#glyph0-1" x="44.648438" y="282.977539"/>
  <use xlink:href="#glyph0-1" x="48.780762" y="282.977539"/>
  <use xlink:href="#glyph0-1" x="52.913086" y="282.977539"/>
  <use xlink:href="#glyph0-6" x="57.04541" y="282.977539"/>
  <use xlink:href="#glyph0-3" x="65.316406" y="282.977539"/>
  <use xlink:href="#glyph0-2" x="69.44873" y="282.977539"/>
  <use xlink:href="#glyph0-4" x="77.719727" y="282.977539"/>
  <use xlink:href="#glyph0-7" x="85.717773" y="282.977539"/>
  <use xlink:href="#glyph0-2" x="90.408691" y="282.977539"/>
  <use xlink:href="#glyph0-6" x="98.679688" y="282.977539"/>
</g>
<path style="fill:none;stroke-width:10;stroke-linecap:butt;stroke-linejoin:miter;stroke:rgb(0%,0%,0%);stroke-opacity:1;stroke-dasharray:8,80;stroke-miterlimit:10;" d="M 2299.0625 4394.375 L 12319.0625 4394.375 " transform="matrix(0.05,0,0,0.05,0,0)"/>
<path style="fill:none;stroke-width:20;stroke-linecap:butt;stroke-linejoin:miter;stroke:rgb(0%,0%,0%);stroke-opacity:1;stroke-miterlimit:10;" d="M 2299.0625 4394.375 L 2418.125 4394.375 " transform="matrix(0.05,0,0,0.05,0,0)"/>
<path style="fill:none;stroke-width:20;stroke-linecap:butt;stroke-linejoin:miter;stroke:rgb(0%,0%,0%);stroke-opacity:1;stroke-miterlimit:10;" d="M 12319.0625 4394.375 L 12200 4394.375 " transform="matrix(0.05,0,0,0.05,0,0)"/>
<g style="fill:rgb(0%,0%,0%);fill-opacity:1;">
  <use xlink:href="#glyph0-1" x="44.648438" y="224.727539"/>
  <use xlink:href="#glyph0-1" x="48.780762" y="224.727539"/>
  <use xlink:href="#glyph0-1" x="52.913086" y="224.727539"/>
  <use xlink:href="#glyph0-8" x="57.04541" y="224.727539"/>
  <use xlink:href="#glyph0-3" x="65.316406" y="224.727539"/>
  <use xlink:href="#glyph0-2" x="69.44873" y="224.727539"/>
  <use xlink:href="#glyph0-4" x="77.719727" y="224.727539"/>
  <use xlink:href="#glyph0-7" x="85.717773" y="224.727539"/>
  <use xlink:href="#glyph0-2" x="90.408691" y="224.727539"/>
  <use xlink:href="#glyph0-6" x="98.679688" y="224.727539"/>
</g>
<path style="fill:none;stroke-width:10;stroke-linecap:butt;stroke-linejoin:miter;stroke:rgb(0%,0%,0%);stroke-opacity:1;stroke-dasharray:8,80;stroke-miterlimit:10;" d="M 2299.0625 3227.5 L 12319.0625 3227.5 " transform="matrix(0.05,0,0,0.05,0,0)"/>
<path style="fill:none;stroke-width:20;stroke-linecap:butt;stroke-linejoin:miter;stroke:rgb(0%,0%,0%);stroke-opacity:1;stroke-miterlimit:10;" d="M 2299.0625 3227.5 L 2418.125 3227.5 " transform="matrix(0.05,0,0,0.05,0,0)"/>
<path style="fill:none;stroke-width:20;stroke-linecap:butt;stroke-linejoin:miter;stroke:rgb(0%,0%,0%);stroke-opacity:1;stroke-miterlimit:10;" d="M 12319.0625 3227.5 L 12200 3227.5 " transform="matrix(0.05,0,0,0.05,0,0)"/>
<g style="fill:rgb(0%,0%,0%);fill-opacity:1;">
  <use xlink:href="#glyph0-1" x="44.648438" y="166.426758"/>
  <use xlink:href="#glyph0-1" x="48.780762" y="166.426758"/>
  <use xlink:href="#glyph0-1" x="52.913086" y="166.426758"/>
  <use xlink:href="#glyph0-9" x="57.04541" y="166.426758"/>
  <use xlink:href="#glyph0-3" x="65.316406" y="166.426758"/>
  <use xlink:href="#glyph0-2" x="69.44873" y="166.426758"/>
  <use xlink:href="#glyph0-4" x="77.719727" y="166.426758"/>
  <use xlink:href="#glyph0-7" x="85.717773" y="166.426758"/>
  <use xlink:href="#glyph0-2" x="90.408691" y="166.426758"/>
  <use xlink:href="#glyph0-6" x="98.679688" y="166.426758"/>
</g>
<path style="fill:none;stroke-width:10;stroke-linecap:butt;stroke-linejoin:miter;stroke:rgb(0%,0%,0%);stroke-opacity:1;stroke-dasharray:8,80;stroke-miterlimit:10;" d="M 2299.0625 2062.8125 L 8680 2062.8125 " transform="matrix(0.05,0,0,0.05,0,0)"/>
<path style="fill:none;stroke-width:10;stroke-linecap:butt;stroke-linejoin:miter;stroke:rgb(0%,0%,0%);stroke-opacity:1;stroke-dasharray:8,80;stroke-miterlimit:10;" d="M 12159.0625 2062.8125 L 12319.0625 2062.8125 " transform="matrix(0.05,0,0,0.05,0,0)"/>
<path style="fill:none;stroke-width:20;stroke-linecap:butt;stroke-linejoin:miter;stroke:rgb(0%,0%,0%);stroke-opacity:1;stroke-miterlimit:10;" d="M 2299.0625 2062.8125 L 2418.125 2062.8125 " transform="matrix(0.05,0,0,0.05,0,0)"/>
<path style="fill:none;stroke-width:20;stroke-linecap:butt;stroke-linejoin:miter;stroke:rgb(0%,0%,0%);stroke-opacity:1;stroke-miterlimit:10;" d="M 12319.0625 2062.8125 L 12200 2062.8125 " transform="matrix(0.05,0,0,0.05,0,0)"/>
<g style="fill:rgb(0%,0%,0%);fill-opacity:1;">
  <use xlink:href="#glyph0-1" x="44.648438" y="108.176758"/>
  <use xlink:href="#glyph0-1" x="48.780762" y="108.176758"/>
  <use xlink:href="#glyph0-1" x="52.913086" y="108.176758"/>
  <use xlink:href="#glyph0-10" x="57.04541" y="108.176758"/>
  <use xlink:href="#glyph0-3" x="65.316406" y="108.176758"/>
  <use xlink:href="#glyph0-2" x="69.44873" y="108.176758"/>
  <use xlink:href="#glyph0-4" x="77.719727" y="108.176758"/>
  <use xlink:href="#glyph0-7" x="85.717773" y="108.176758"/>
  <use xlink:href="#glyph0-2" x="90.408691" y="108.176758"/>
  <use xlink:href="#glyph0-6" x="98.679688" y="108.176758"/>
</g>
<path style="fill:none;stroke-width:10;stroke-linecap:butt;stroke-linejoin:miter;stroke:rgb(0%,0%,0%);stroke-opacity:1;stroke-dasharray:8,80;stroke-miterlimit:10;" d="M 2299.0625 898.125 L 12319.0625 898.125 " transform="matrix(0.05,0,0,0.05,0,0)"/>
<path style="fill:none;stroke-width:20;stroke-linecap:butt;stroke-linejoin:miter;stroke:rgb(0%,0%,0%);stroke-opacity:1;stroke-miterlimit:10;" d="M 2299.0625 898.125 L 2418.125 898.125 " transform="matrix(0.05,0,0,0.05,0,0)"/>
<path style="fill:none;stroke-width:20;stroke-linecap:butt;stroke-linejoin:miter;stroke:rgb(0%,0%,0%);stroke-opacity:1;stroke-miterlimit:10;" d="M 12319.0625 898.125 L 12200 898.125 " transform="matrix(0.05,0,0,0.05,0,0)"/>
<g style="fill:rgb(0%,0%,0%);fill-opacity:1;">
  <use xlink:href="#glyph0-1" x="44.648438" y="49.926758"/>
  <use xlink:href="#glyph0-1" x="48.780762" y="49.926758"/>
  <use xlink:href="#glyph0-1" x="52.913086" y="49.926758"/>
  <use xlink:href="#glyph0-11" x="57.04541" y="49.926758"/>
  <use xlink:href="#glyph0-3" x="65.316406" y="49.926758"/>
  <use xlink:href="#glyph0-2" x="69.44873" y="49.926758"/>
  <use xlink:href="#glyph0-4" x="77.719727" y="49.926758"/>
  <use xlink:href="#glyph0-7" x="85.717773" y="49.926758"/>
  <use xlink:href="#glyph0-2" x="90.408691" y="49.926758"/>
  <use xlink:href="#glyph0-6" x="98.679688" y="49.926758"/>
</g>
<path style="fill:none;stroke-width:10;stroke-linecap:butt;stroke-linejoin:miter;stroke:rgb(0%,0%,0%);stroke-opacity:1;stroke-dasharray:8,80;stroke-miterlimit:10;" d="M 2299.0625 6723.75 L 2299.0625 898.125 " transform="matrix(0.05,0,0,0.05,0,0)"/>
<path style="fill:none;stroke-width:20;stroke-linecap:butt;stroke-linejoin:miter;stroke:rgb(0%,0%,0%);stroke-opacity:1;stroke-miterlimit:10;" d="M 2299.0625 6723.75 L 2299.0625 6604.6875 " transform="matrix(0.05,0,0,0.05,0,0)"/>
<path style="fill:none;stroke-width:20;stroke-linecap:butt;stroke-linejoin:miter;stroke:rgb(0%,0%,0%);stroke-opacity:1;stroke-miterlimit:10;" d="M 2299.0625 898.125 L 2299.0625 1017.1875 " transform="matrix(0.05,0,0,0.05,0,0)"/>
<g style="fill:rgb(0%,0%,0%);fill-opacity:1;">
  <use xlink:href="#glyph0-1" x="108.75" y="356.176758"/>
  <use xlink:href="#glyph0-2" x="112.882324" y="356.176758"/>
</g>
<path style="fill:none;stroke-width:10;stroke-linecap:butt;stroke-linejoin:miter;stroke:rgb(0%,0%,0%);stroke-opacity:1;stroke-dasharray:8,80;stroke-miterlimit:10;" d="M 4220.9375 6723.75 L 4220.9375 898.125 " transform="matrix(0.05,0,0,0.05,0,0)"/>
<path style="fill:none;stroke-width:20;stroke-linecap:butt;stroke-linejoin:miter;stroke:rgb(0%,0%,0%);stroke-opacity:1;stroke-miterlimit:10;" d="M 4220.9375 6723.75 L 4220.9375 6604.6875 " transform="matrix(0.05,0,0,0.05,0,0)"/>
<path style="fill:none;stroke-width:20;stroke-linecap:butt;stroke-linejoin:miter;stroke:rgb(0%,0%,0%);stroke-opacity:1;stroke-miterlimit:10;" d="M 4220.9375 898.125 L 4220.9375 1017.1875 " transform="matrix(0.05,0,0,0.05,0,0)"/>
<g style="fill:rgb(0%,0%,0%);fill-opacity:1;">
  <use xlink:href="#glyph0-1" x="200.710938" y="356.176758"/>
  <use xlink:href="#glyph0-6" x="204.843262" y="356.176758"/>
  <use xlink:href="#glyph0-2" x="213.114258" y="356.176758"/>
</g>
<path style="fill:none;stroke-width:10;stroke-linecap:butt;stroke-linejoin:miter;stroke:rgb(0%,0%,0%);stroke-opacity:1;stroke-dasharray:8,80;stroke-miterlimit:10;" d="M 6141.875 6723.75 L 6141.875 898.125 " transform="matrix(0.05,0,0,0.05,0,0)"/>
<path style="fill:none;stroke-width:20;stroke-linecap:butt;stroke-linejoin:miter;stroke:rgb(0%,0%,0%);stroke-opacity:1;stroke-miterlimit:10;" d="M 6141.875 6723.75 L 6141.875 6604.6875 " transform="matrix(0.05,0,0,0.05,0,0)"/>
<path style="fill:none;stroke-width:20;stroke-linecap:butt;stroke-linejoin:miter;stroke:rgb(0%,0%,0%);stroke-opacity:1;stroke-miterlimit:10;" d="M 6141.875 898.125 L 6141.875 1017.1875 " transform="matrix(0.05,0,0,0.05,0,0)"/>
<g style="fill:rgb(0%,0%,0%);fill-opacity:1;">
  <use xlink:href="#glyph0-1" x="296.761719" y="356.176758"/>
  <use xlink:href="#glyph0-8" x="300.894043" y="356.176758"/>
  <use xlink:href="#glyph0-2" x="309.165039" y="356.176758"/>
</g>
<path style="fill:none;stroke-width:10;stroke-linecap:butt;stroke-linejoin:miter;stroke:rgb(0%,0%,0%);stroke-opacity:1;stroke-dasharray:8,80;stroke-miterlimit:10;" d="M 8063.75 6723.75 L 8063.75 898.125 " transform="matrix(0.05,0,0,0.05,0,0)"/>
<path style="fill:none;stroke-width:20;stroke-linecap:butt;stroke-linejoin:miter;stroke:rgb(0%,0%,0%);stroke-opacity:1;stroke-miterlimit:10;" d="M 8063.75 6723.75 L 8063.75 6604.6875 " transform="matrix(0.05,0,0,0.05,0,0)"/>
<path style="fill:none;stroke-width:20;stroke-linecap:butt;stroke-linejoin:miter;stroke:rgb(0%,0%,0%);stroke-opacity:1;stroke-miterlimit:10;" d="M 8063.75 898.125 L 8063.75 1017.1875 " transform="matrix(0.05,0,0,0.05,0,0)"/>
<g style="fill:rgb(0%,0%,0%);fill-opacity:1;">
  <use xlink:href="#glyph0-1" x="392.863281" y="356.176758"/>
  <use xlink:href="#glyph0-9" x="396.995605" y="356.176758"/>
  <use xlink:href="#glyph0-2" x="405.266602" y="356.176758"/>
</g>
<path style="fill:none;stroke-width:10;stroke-linecap:butt;stroke-linejoin:miter;stroke:rgb(0%,0%,0%);stroke-opacity:1;stroke-dasharray:8,80;stroke-miterlimit:10;" d="M 9985.625 6723.75 L 9985.625 2213.4375 " transform="matrix(0.05,0,0,0.05,0,0)"/>
<path style="fill:none;stroke-width:10;stroke-linecap:butt;stroke-linejoin:miter;stroke:rgb(0%,0%,0%);stroke-opacity:1;stroke-dasharray:8,80;stroke-miterlimit:10;" d="M 9985.625 1017.1875 L 9985.625 898.125 " transform="matrix(0.05,0,0,0.05,0,0)"/>
<path style="fill:none;stroke-width:20;stroke-linecap:butt;stroke-linejoin:miter;stroke:rgb(0%,0%,0%);stroke-opacity:1;stroke-miterlimit:10;" d="M 9985.625 6723.75 L 9985.625 6604.6875 " transform="matrix(0.05,0,0,0.05,0,0)"/>
<path style="fill:none;stroke-width:20;stroke-linecap:butt;stroke-linejoin:miter;stroke:rgb(0%,0%,0%);stroke-opacity:1;stroke-miterlimit:10;" d="M 9985.625 898.125 L 9985.625 1017.1875 " transform="matrix(0.05,0,0,0.05,0,0)"/>
<g style="fill:rgb(0%,0%,0%);fill-opacity:1;">
  <use xlink:href="#glyph0-1" x="488.960938" y="356.176758"/>
  <use xlink:href="#glyph0-10" x="493.093262" y="356.176758"/>
  <use xlink:href="#glyph0-2" x="501.364258" y="356.176758"/>
</g>
<path style="fill:none;stroke-width:10;stroke-linecap:butt;stroke-linejoin:miter;stroke:rgb(0%,0%,0%);stroke-opacity:1;stroke-dasharray:8,80;stroke-miterlimit:10;" d="M 11906.5625 6723.75 L 11906.5625 2213.4375 " transform="matrix(0.05,0,0,0.05,0,0)"/>
<path style="fill:none;stroke-width:10;stroke-linecap:butt;stroke-linejoin:miter;stroke:rgb(0%,0%,0%);stroke-opacity:1;stroke-dasharray:8,80;stroke-miterlimit:10;" d="M 11906.5625 1017.1875 L 11906.5625 898.125 " transform="matrix(0.05,0,0,0.05,0,0)"/>
<path style="fill:none;stroke-width:20;stroke-linecap:butt;stroke-linejoin:miter;stroke:rgb(0%,0%,0%);stroke-opacity:1;stroke-miterlimit:10;" d="M 11906.5625 6723.75 L 11906.5625 6604.6875 " transform="matrix(0.05,0,0,0.05,0,0)"/>
<path style="fill:none;stroke-width:20;stroke-linecap:butt;stroke-linejoin:miter;stroke:rgb(0%,0%,0%);stroke-opacity:1;stroke-miterlimit:10;" d="M 11906.5625 898.125 L 11906.5625 1017.1875 " transform="matrix(0.05,0,0,0.05,0,0)"/>
<g style="fill:rgb(0%,0%,0%);fill-opacity:1;">
  <use xlink:href="#glyph0-1" x="585.011719" y="356.176758"/>
  <use xlink:href="#glyph0-11" x="589.144043" y="356.176758"/>
  <use xlink:href="#glyph0-2" x="597.415039" y="356.176758"/>
</g>
<path style="fill:none;stroke-width:20;stroke-linecap:butt;stroke-linejoin:miter;stroke:rgb(0%,0%,0%);stroke-opacity:1;stroke-miterlimit:10;" d="M 2299.0625 898.125 L 2299.140625 6723.515625 L 12319.140625 6723.359375 L 12319.140625 898.203125 L 2299.0625 898.203125 " transform="matrix(0.05,0,0,0.05,0,0)"/>
<g style="fill:rgb(0%,0%,0%);fill-opacity:1;">
  <use xlink:href="#glyph1-1" x="16.477539" y="192.617188"/>
</g>
<g style="fill:rgb(0%,0%,0%);fill-opacity:1;">
  <use xlink:href="#glyph0-12" x="301.675781" y="378.575195"/>
  <use xlink:href="#glyph0-13" x="306.772949" y="378.575195"/>
  <use xlink:href="#glyph0-14" x="312.117676" y="378.575195"/>
  <use xlink:href="#glyph0-15" x="320.083984" y="378.575195"/>
  <use xlink:href="#glyph0-16" x="328.323242" y="378.575195"/>
  <use xlink:href="#glyph0-17" x="335.096191" y="378.575195"/>
  <use xlink:href="#glyph0-18" x="347.759766" y="378.575195"/>
  <use xlink:href="#glyph0-16" x="351.371582" y="378.575195"/>
  <use xlink:href="#glyph0-16" x="358.144531" y="378.575195"/>
  <use xlink:href="#glyph0-18" x="364.91748" y="378.575195"/>
  <use xlink:href="#glyph0-19" x="368.529297" y="378.575195"/>
  <use xlink:href="#glyph0-15" x="376.48291" y="378.575195"/>
  <use xlink:href="#glyph0-1" x="384.722168" y="378.575195"/>
  <use xlink:href="#glyph0-20" x="388.854492" y="378.575195"/>
  <use xlink:href="#glyph0-21" x="396.001953" y="378.575195"/>
  <use xlink:href="#glyph0-20" x="403.695312" y="378.575195"/>
  <use xlink:href="#glyph0-22" x="410.842773" y="378.575195"/>
  <use xlink:href="#glyph0-4" x="414.45459" y="378.575195"/>
  <use xlink:href="#glyph0-16" x="422.452637" y="378.575195"/>
</g>
<g style="fill:rgb(0%,0%,0%);fill-opacity:1;">
  <use xlink:href="#glyph0-23" x="290.238281" y="27.477539"/>
  <use xlink:href="#glyph0-15" x="294.072266" y="27.477539"/>
  <use xlink:href="#glyph0-20" x="302.311523" y="27.477539"/>
  <use xlink:href="#glyph0-18" x="309.458984" y="27.477539"/>
  <use xlink:href="#glyph0-24" x="313.070801" y="27.477539"/>
  <use xlink:href="#glyph0-4" x="321.322754" y="27.477539"/>
  <use xlink:href="#glyph0-15" x="329.320801" y="27.477539"/>
  <use xlink:href="#glyph0-20" x="337.560059" y="27.477539"/>
  <use xlink:href="#glyph0-4" x="344.70752" y="27.477539"/>
  <use xlink:href="#glyph0-1" x="352.705566" y="27.477539"/>
  <use xlink:href="#glyph0-25" x="356.837891" y="27.477539"/>
  <use xlink:href="#glyph0-1" x="361.909668" y="27.477539"/>
  <use xlink:href="#glyph0-26" x="366.041992" y="27.477539"/>
  <use xlink:href="#glyph0-2" x="375.074707" y="27.477539"/>
  <use xlink:href="#glyph0-27" x="383.345703" y="27.477539"/>
  <use xlink:href="#glyph0-9" x="394.238281" y="27.477539"/>
  <use xlink:href="#glyph0-3" x="402.509277" y="27.477539"/>
  <use xlink:href="#glyph0-2" x="406.641602" y="27.477539"/>
  <use xlink:href="#glyph0-2" x="414.912598" y="27.477539"/>
  <use xlink:href="#glyph0-2" x="423.183594" y="27.477539"/>
  <use xlink:href="#glyph0-1" x="431.45459" y="27.477539"/>
  <use xlink:href="#glyph0-28" x="435.586914" y="27.477539"/>
</g>
<path style="fill:none;stroke-width:20;stroke-linecap:butt;stroke-linejoin:miter;stroke:rgb(0%,0%,0%);stroke-opacity:1;stroke-miterlimit:10;" d="M 8680 2213.4375 L 8680 1017.1875 " transform="matrix(0.05,0,0,0.05,0,0)"/>
<path style="fill:none;stroke-width:20;stroke-linecap:butt;stroke-linejoin:miter;stroke:rgb(0%,0%,0%);stroke-opacity:1;stroke-miterlimit:10;" d="M 8680 1017.1875 L 12159.0625 1017.1875 " transform="matrix(0.05,0,0,0.05,0,0)"/>
<path style="fill:none;stroke-width:20;stroke-linecap:butt;stroke-linejoin:miter;stroke:rgb(0%,0%,0%);stroke-opacity:1;stroke-miterlimit:10;" d="M 12159.0625 1017.1875 L 12159.0625 2213.4375 " transform="matrix(0.05,0,0,0.05,0,0)"/>
<path style="fill:none;stroke-width:20;stroke-linecap:butt;stroke-linejoin:miter;stroke:rgb(0%,0%,0%);stroke-opacity:1;stroke-miterlimit:10;" d="M 12159.0625 2213.4375 L 8680 2213.4375 " transform="matrix(0.05,0,0,0.05,0,0)"/>
<g style="fill:rgb(0%,0%,0%);fill-opacity:1;">
  <use xlink:href="#glyph0-29" x="458.15625" y="63.352539"/>
  <use xlink:href="#glyph0-18" x="461.72998" y="63.352539"/>
  <use xlink:href="#glyph0-15" x="465.341797" y="63.352539"/>
  <use xlink:href="#glyph0-20" x="473.581055" y="63.352539"/>
  <use xlink:href="#glyph0-30" x="480.728516" y="63.352539"/>
  <use xlink:href="#glyph0-15" x="487.228516" y="63.352539"/>
  <use xlink:href="#glyph0-19" x="495.467773" y="63.352539"/>
  <use xlink:href="#glyph0-30" x="503.421387" y="63.352539"/>
  <use xlink:href="#glyph0-31" x="509.921387" y="63.352539"/>
  <use xlink:href="#glyph0-32" x="518.17334" y="63.352539"/>
  <use xlink:href="#glyph0-13" x="526.412598" y="63.352539"/>
  <use xlink:href="#glyph0-16" x="531.757324" y="63.352539"/>
  <use xlink:href="#glyph0-12" x="538.530273" y="63.352539"/>
  <use xlink:href="#glyph0-16" x="543.627441" y="63.352539"/>
  <use xlink:href="#glyph0-29" x="550.400391" y="63.352539"/>
</g>
<path style="fill:none;stroke-width:20;stroke-linecap:butt;stroke-linejoin:miter;stroke:rgb(58.039216%,0%,82.745098%);stroke-opacity:1;stroke-miterlimit:10;" d="M 11240 1166.5625 L 11999.0625 1166.5625 " transform="matrix(0.05,0,0,0.05,0,0)"/>
<path style="fill:none;stroke-width:20;stroke-linecap:butt;stroke-linejoin:miter;stroke:rgb(58.039216%,0%,82.745098%);stroke-opacity:1;stroke-miterlimit:10;" d="M 2298.984375 6723.984375 L 2299.0625 6723.75 L 2325.3125 6723.515625 L 2354.6875 6723.359375 L 2380.859375 6723.125 L 2407.96875 6722.96875 L 2436.484375 6722.734375 L 2463.515625 6722.578125 L 2492.03125 6722.421875 L 2519.140625 6722.265625 L 2545.625 6722.265625 L 2574.375 6722.8125 L 2600.859375 6722.65625 L 2627.03125 6722.5 L 2656.484375 6722.34375 L 2682.65625 6722.1875 L 2712.03125 6722.03125 L 2738.125 6722.03125 L 2765.625 6721.875 L 2793.828125 6721.796875 L 2820.9375 6721.796875 L 2847.5 6720.9375 L 2875.3125 6720.9375 L 2902.8125 6720 L 2929.375 6720 L 2957.96875 6718.984375 L 2985 6717.96875 L 3012.96875 6717.03125 L 3040 6716.015625 L 3067.96875 6715 L 3095 6712.96875 L 3122.96875 6711.015625 L 3150 6708.984375 L 3177.03125 6706.015625 L 3205 6702.96875 L 3232.03125 6700 L 3260 6696.015625 L 3287.03125 6691.015625 L 3315 6685 L 3342.03125 6678.984375 L 3370 6671.015625 L 3397.03125 6662.03125 L 3425 6652.03125 L 3452.03125 6640 L 3478.984375 6625 L 3507.03125 6608.984375 L 3533.984375 6588.984375 L 3562.03125 6567.03125 L 3588.984375 6541.015625 L 3617.03125 6510 L 3643.984375 6473.984375 L 3672.03125 6432.96875 L 3698.984375 6385 L 3726.015625 6328.984375 L 3753.984375 6265 L 3781.015625 6190 L 3808.984375 6103.984375 L 3836.015625 6005 L 3863.984375 5892.03125 L 3891.015625 5762.96875 L 3918.984375 5615 L 3946.015625 5448.984375 L 3973.984375 5261.015625 L 4001.015625 5052.03125 L 4027.96875 4820 L 4056.015625 4566.015625 L 4082.96875 4291.015625 L 4111.015625 3998.984375 L 4137.96875 3695 L 4166.015625 3385 L 4192.96875 3082.03125 L 4221.015625 2797.96875 L 4247.96875 2552.03125 L 4275 2362.96875 L 4302.96875 2253.984375 L 4330 2246.015625 L 4357.96875 2357.03125 L 4385 2597.03125 L 4412.96875 2963.984375 L 4440 3441.015625 L 4467.96875 3988.984375 L 4495 4558.984375 L 4522.96875 5088.984375 L 4550 5532.96875 L 4577.03125 5868.984375 L 4605 6106.015625 L 4632.03125 6267.96875 L 4660 6378.984375 L 4687.03125 6456.015625 L 4715 6511.015625 L 4742.03125 6551.015625 L 4770 6581.015625 L 4797.03125 6602.96875 L 4823.984375 6620 L 4852.03125 6633.984375 L 4878.984375 6645 L 4907.03125 6652.96875 L 4933.984375 6660 L 4962.03125 6666.015625 L 4988.984375 6671.015625 L 5017.03125 6675 L 5043.984375 6677.96875 L 5072.03125 6681.015625 L 5098.984375 6682.96875 L 5127.03125 6685 L 5153.984375 6686.015625 L 5181.015625 6687.03125 L 5208.984375 6687.96875 L 5236.015625 6688.984375 L 5263.75 6689.375 L 5291.5625 6689.375 L 5319.0625 6691.5625 L 5345.3125 6692.03125 L 5374.375 6692.03125 L 5400.9375 6689.375 L 5427.03125 6688.828125 L 5456.25 6688.828125 L 5482.96875 6688.984375 L 5511.5625 6687.5 L 5538.125 6687.5 L 5566.015625 6687.03125 L 5592.96875 6686.015625 L 5621.015625 6683.984375 L 5647.96875 6682.96875 L 5676.015625 6681.015625 L 5702.96875 6680 L 5730 6677.96875 L 5757.96875 6676.015625 L 5785 6672.96875 L 5812.96875 6671.015625 L 5840 6667.96875 L 5867.96875 6665 L 5895 6661.015625 L 5922.96875 6657.96875 L 5950 6653.984375 L 5977.03125 6648.984375 L 6005 6643.984375 L 6032.03125 6638.984375 L 6060 6632.96875 L 6087.03125 6627.03125 L 6115 6620 L 6142.03125 6612.03125 L 6170 6602.96875 L 6197.03125 6593.984375 L 6225 6583.984375 L 6252.03125 6572.96875 L 6278.984375 6561.015625 L 6307.03125 6547.96875 L 6333.984375 6532.96875 L 6362.03125 6517.03125 L 6388.984375 6500 L 6417.03125 6481.015625 L 6443.984375 6460 L 6472.03125 6437.96875 L 6498.984375 6412.96875 L 6527.03125 6386.015625 L 6553.984375 6356.015625 L 6581.015625 6323.984375 L 6608.984375 6288.984375 L 6636.015625 6251.015625 L 6663.984375 6210 L 6691.015625 6166.015625 L 6718.984375 6117.96875 L 6746.015625 6066.015625 L 6773.984375 6011.015625 L 6801.015625 5952.03125 L 6828.984375 5888.984375 L 6856.015625 5822.03125 L 6882.96875 5752.03125 L 6911.015625 5677.96875 L 6937.96875 5602.03125 L 6966.015625 5522.96875 L 6992.96875 5442.96875 L 7021.015625 5362.03125 L 7047.96875 5281.015625 L 7076.015625 5201.015625 L 7102.96875 5125 L 7130 5052.96875 L 7157.96875 4987.96875 L 7185 4930 L 7212.96875 4882.96875 L 7240 4847.03125 L 7267.96875 4825 L 7295 4817.03125 L 7322.96875 4825 L 7350 4847.96875 L 7377.96875 4887.03125 L 7405 4941.015625 L 7432.03125 5007.96875 L 7460 5087.03125 L 7487.03125 5175 L 7515 5268.984375 L 7542.03125 5367.03125 L 7570 5466.015625 L 7597.03125 5562.96875 L 7625 5657.96875 L 7652.03125 5747.03125 L 7680 5831.015625 L 7707.03125 5907.96875 L 7733.984375 5977.96875 L 7762.03125 6042.03125 L 7788.984375 6098.984375 L 7817.03125 6150 L 7843.984375 6196.015625 L 7872.03125 6236.015625 L 7898.984375 6271.015625 L 7927.03125 6302.96875 L 7953.984375 6330 L 7981.015625 6353.984375 L 8008.984375 6376.015625 L 8036.015625 6393.984375 L 8063.984375 6410 L 8091.015625 6425 L 8118.984375 6437.03125 L 8146.015625 6447.96875 L 8173.984375 6457.03125 L 8201.015625 6465 L 8228.984375 6472.03125 L 8256.015625 6477.96875 L 8282.96875 6482.96875 L 8311.015625 6487.03125 L 8337.96875 6490 L 8366.015625 6492.03125 L 8392.96875 6492.96875 L 8420.9375 6494.375 L 8447.5 6494.375 L 8476.015625 6492.96875 L 8502.96875 6492.03125 L 8531.015625 6490 L 8557.96875 6487.96875 L 8585 6485 L 8612.96875 6481.015625 L 8640 6477.03125 L 8667.96875 6472.03125 L 8695 6466.015625 L 8722.96875 6460 L 8750 6452.96875 L 8777.96875 6446.015625 L 8805 6437.03125 L 8832.96875 6427.96875 L 8860 6418.984375 L 8887.03125 6407.96875 L 8915 6397.03125 L 8942.03125 6385 L 8970 6372.03125 L 8997.03125 6357.96875 L 9025 6342.96875 L 9052.03125 6327.03125 L 9080 6310 L 9107.03125 6292.96875 L 9133.984375 6273.984375 L 9162.03125 6253.984375 L 9188.984375 6232.96875 L 9217.03125 6211.015625 L 9243.984375 6187.96875 L 9272.03125 6163.984375 L 9298.984375 6138.984375 L 9327.03125 6112.96875 L 9353.984375 6086.015625 L 9382.03125 6057.03125 L 9408.984375 6027.96875 L 9436.015625 5998.984375 L 9463.984375 5967.96875 L 9491.015625 5937.96875 L 9518.984375 5906.015625 L 9546.015625 5875 L 9573.984375 5843.984375 L 9601.015625 5812.96875 L 9628.984375 5782.03125 L 9656.015625 5752.03125 L 9682.96875 5723.984375 L 9711.015625 5696.015625 L 9737.96875 5671.015625 L 9766.015625 5647.03125 L 9792.96875 5626.015625 L 9821.015625 5607.96875 L 9847.96875 5592.03125 L 9876.015625 5580 L 9902.96875 5571.015625 L 9931.015625 5565 L 9957.96875 5563.984375 L 9986.015625 5566.015625 L 10012.96875 5571.015625 L 10040 5581.015625 L 10067.96875 5593.984375 L 10095 5610 L 10122.96875 5628.984375 L 10150 5651.015625 L 10177.96875 5676.015625 L 10205 5702.03125 L 10232.96875 5730 L 10287.03125 5790 L 10315 5821.015625 L 10342.03125 5852.03125 L 10370 5882.96875 L 10397.03125 5912.96875 L 10425 5942.96875 L 10452.03125 5972.03125 L 10480 6000 L 10507.03125 6026.015625 L 10535 6052.03125 L 10562.03125 6076.015625 L 10588.984375 6098.984375 L 10617.03125 6120 L 10643.984375 6140 L 10672.03125 6157.96875 L 10698.984375 6176.015625 L 10727.03125 6192.03125 L 10753.984375 6206.015625 L 10782.03125 6220 L 10808.984375 6232.03125 L 10836.015625 6242.96875 L 10863.984375 6252.96875 L 10891.015625 6262.03125 L 10918.984375 6268.984375 L 10946.015625 6276.015625 L 10973.984375 6282.03125 L 11001.015625 6287.96875 L 11028.984375 6292.03125 L 11056.015625 6295 L 11083.984375 6297.96875 L 11111.015625 6300 L 11138.984375 6301.015625 L 11166.015625 6302.03125 L 11193.4375 6300.9375 L 11220.9375 6300.9375 L 11247.96875 6298.984375 L 11276.015625 6297.03125 L 11302.96875 6293.984375 L 11331.015625 6291.015625 L 11357.96875 6287.03125 L 11385 6282.03125 L 11412.96875 6277.03125 L 11440 6271.015625 L 11467.96875 6265 L 11495 6257.96875 L 11522.96875 6250 L 11550 6242.03125 L 11577.96875 6233.984375 L 11605 6223.984375 L 11632.96875 6215 L 11660 6203.984375 L 11687.96875 6193.984375 L 11715 6182.96875 L 11742.03125 6171.015625 L 11770 6158.984375 L 11797.03125 6146.015625 L 11825 6132.96875 L 11852.03125 6120 L 11880 6106.015625 L 11907.03125 6092.96875 L 11935 6077.96875 L 11962.03125 6063.984375 L 11988.984375 6050 L 12017.03125 6035 L 12043.984375 6020 L 12072.03125 6006.015625 L 12098.984375 5991.015625 L 12127.03125 5977.03125 L 12153.984375 5962.96875 L 12182.03125 5948.984375 L 12208.984375 5936.015625 L 12237.03125 5923.984375 L 12263.984375 5912.03125 L 12292.03125 5900 " transform="matrix(0.05,0,0,0.05,0,0)"/>
<g style="fill:rgb(0%,0%,0%);fill-opacity:1;">
  <use xlink:href="#glyph0-29" x="456.054688" y="78.301758"/>
  <use xlink:href="#glyph0-18" x="459.628418" y="78.301758"/>
  <use xlink:href="#glyph0-15" x="463.240234" y="78.301758"/>
  <use xlink:href="#glyph0-20" x="471.479492" y="78.301758"/>
  <use xlink:href="#glyph0-30" x="478.626953" y="78.301758"/>
  <use xlink:href="#glyph0-31" x="485.126953" y="78.301758"/>
  <use xlink:href="#glyph0-32" x="493.378906" y="78.301758"/>
  <use xlink:href="#glyph0-13" x="501.618164" y="78.301758"/>
  <use xlink:href="#glyph0-16" x="506.962891" y="78.301758"/>
  <use xlink:href="#glyph0-12" x="513.73584" y="78.301758"/>
  <use xlink:href="#glyph0-27" x="518.833008" y="78.301758"/>
  <use xlink:href="#glyph0-2" x="529.725586" y="78.301758"/>
  <use xlink:href="#glyph0-3" x="537.996582" y="78.301758"/>
  <use xlink:href="#glyph0-11" x="542.128906" y="78.301758"/>
  <use xlink:href="#glyph0-29" x="550.399902" y="78.301758"/>
</g>
<path style="fill:none;stroke-width:20;stroke-linecap:butt;stroke-linejoin:miter;stroke:rgb(0%,61.960784%,45.098039%);stroke-opacity:1;stroke-miterlimit:10;" d="M 11240 1465.625 L 11999.0625 1465.625 " transform="matrix(0.05,0,0,0.05,0,0)"/>
<path style="fill:none;stroke-width:20;stroke-linecap:butt;stroke-linejoin:miter;stroke:rgb(0%,61.960784%,45.098039%);stroke-opacity:1;stroke-miterlimit:10;" d="M 2298.984375 6723.984375 L 2299.0625 6723.75 L 2325.3125 6723.515625 L 2354.6875 6723.359375 L 2380.859375 6723.125 L 2407.96875 6722.96875 L 2436.484375 6722.734375 L 2463.515625 6722.578125 L 2491.5625 6722.578125 L 2519.0625 6722.8125 L 2545.3125 6722.65625 L 2574.6875 6722.5 L 2627.03125 6722.1875 L 2656.25 6722.1875 L 2682.8125 6721.875 L 2711.5625 6721.875 L 2738.125 6720.9375 L 2765.625 6720.9375 L 2793.4375 6720 L 2820.9375 6720 L 2875 6717.96875 L 2902.96875 6717.03125 L 2930 6716.015625 L 2957.96875 6715 L 2985 6717.03125 L 3012.96875 6716.015625 L 3040 6713.984375 L 3067.96875 6712.96875 L 3095 6711.015625 L 3122.96875 6708.984375 L 3150 6706.015625 L 3177.03125 6702.96875 L 3205 6698.984375 L 3232.03125 6695 L 3260 6690 L 3287.03125 6683.984375 L 3315 6677.96875 L 3342.03125 6643.984375 L 3370 6631.015625 L 3397.03125 6615 L 3425 6597.03125 L 3452.03125 6592.96875 L 3478.984375 6571.015625 L 3507.03125 6546.015625 L 3533.984375 6516.015625 L 3562.03125 6470 L 3588.984375 6427.03125 L 3617.03125 6377.96875 L 3643.984375 6322.03125 L 3672.03125 6256.015625 L 3698.984375 6180 L 3726.015625 6092.03125 L 3753.984375 6043.984375 L 3781.015625 5936.015625 L 3808.984375 5812.96875 L 3836.015625 5673.984375 L 3863.984375 5515 L 3891.015625 4967.96875 L 3918.984375 4716.015625 L 3946.015625 4440 L 3973.984375 4141.015625 L 4001.015625 3821.015625 L 4027.96875 3487.96875 L 4056.015625 3150 L 4082.96875 2820 L 4111.015625 2513.984375 L 4137.96875 2252.96875 L 4166.015625 2062.03125 L 4192.96875 1965 L 4221.015625 1987.96875 L 4247.96875 2627.03125 L 4275 2897.96875 L 4302.96875 3277.03125 L 4330 3742.03125 L 4357.96875 4252.96875 L 4385 4765 L 4412.96875 5228.984375 L 4440 5612.03125 L 4467.96875 5902.96875 L 4495 6152.96875 L 4522.96875 6292.03125 L 4550 6466.015625 L 4577.03125 6427.03125 L 4605 6483.984375 L 4632.03125 6571.015625 L 4660 6596.015625 L 4687.03125 6637.03125 L 4715 6648.984375 L 4742.03125 6652.03125 L 4770 6660 L 4797.03125 6666.015625 L 4823.984375 6672.03125 L 4852.03125 6676.015625 L 4878.984375 6680 L 4907.03125 6682.96875 L 4933.984375 6685 L 4962.03125 6687.03125 L 4988.984375 6688.984375 L 5017.03125 6690 L 5043.984375 6691.015625 L 5072.03125 6692.03125 L 5098.984375 6692.96875 L 5127.03125 6677.96875 L 5154.375 6679.0625 L 5180.859375 6679.140625 L 5207.96875 6679.140625 L 5236.484375 6679.21875 L 5263.515625 6679.296875 L 5291.5625 6679.296875 L 5318.984375 6692.03125 L 5345.625 6691.5625 L 5374.375 6691.5625 L 5401.015625 6690 L 5427.96875 6688.984375 L 5456.015625 6687.96875 L 5482.96875 6687.03125 L 5511.015625 6686.015625 L 5537.96875 6677.03125 L 5566.015625 6676.015625 L 5592.96875 6672.96875 L 5621.015625 6671.015625 L 5647.96875 6668.984375 L 5676.015625 6666.015625 L 5702.96875 6662.96875 L 5730 6660 L 5757.96875 6656.015625 L 5785 6631.015625 L 5812.96875 6625 L 5840 6618.984375 L 5867.96875 6612.03125 L 5895 6605 L 5922.96875 6597.03125 L 5950 6587.96875 L 5977.03125 6592.96875 L 6005 6583.984375 L 6032.03125 6572.96875 L 6060 6562.03125 L 6087.03125 6550 L 6115 6537.03125 L 6142.03125 6522.03125 L 6170 6506.015625 L 6197.03125 6488.984375 L 6225 6470 L 6252.03125 6448.984375 L 6278.984375 6426.015625 L 6307.03125 6380 L 6333.984375 6351.015625 L 6362.03125 6320 L 6388.984375 6287.03125 L 6417.03125 6250 L 6443.984375 6357.03125 L 6472.03125 6327.03125 L 6498.984375 6293.984375 L 6527.03125 6258.984375 L 6553.984375 6008.984375 L 6581.015625 5951.015625 L 6608.984375 5887.96875 L 6636.015625 5822.96875 L 6663.984375 5753.984375 L 6691.015625 5681.015625 L 6718.984375 5606.015625 L 6746.015625 5528.984375 L 6773.984375 5450 L 6801.015625 5371.015625 L 6828.984375 5292.03125 L 6856.015625 5215 L 6882.96875 5115 L 6911.015625 5787.03125 L 6937.96875 5747.03125 L 6966.015625 5707.96875 L 6992.96875 5668.984375 L 7021.015625 5631.015625 L 7047.96875 5595 L 7076.015625 5561.015625 L 7102.96875 4895 L 7130 4857.96875 L 7157.96875 4832.96875 L 7184.6875 5180.9375 L 7213.4375 5180.9375 L 7240 5190 L 7267.96875 5207.03125 L 7295 5233.984375 L 7322.96875 5267.96875 L 7350 5310 L 7377.96875 5357.96875 L 7405 5412.03125 L 7432.03125 5468.984375 L 7460 5530 L 7487.03125 5592.03125 L 7515 5915 L 7542.03125 5928.984375 L 7570 5973.984375 L 7597.03125 6016.015625 L 7625 6055 L 7652.03125 6091.015625 L 7680 6125 L 7707.03125 6156.015625 L 7733.984375 5725 L 7762.03125 5777.96875 L 7788.984375 5828.984375 L 7817.03125 5930 L 7843.984375 5975 L 7872.03125 6016.015625 L 7898.984375 6055 L 7927.03125 6091.015625 L 7953.984375 6123.984375 L 7981.015625 6155 L 8008.984375 6182.96875 L 8036.015625 6207.96875 L 8063.984375 6231.015625 L 8091.015625 6252.96875 L 8118.984375 6272.03125 L 8146.015625 6288.984375 L 8173.984375 6375 L 8201.015625 6386.015625 L 8228.984375 6395 L 8256.015625 6357.96875 L 8282.96875 6366.015625 L 8311.015625 6373.984375 L 8337.96875 6380 L 8366.015625 6385 L 8392.96875 6388.984375 L 8421.015625 6410 L 8447.96875 6412.03125 L 8476.015625 6412.96875 L 8502.8125 6414.375 L 8531.5625 6414.375 L 8557.96875 6412.96875 L 8585 6412.03125 L 8612.96875 6527.96875 L 8640 6526.015625 L 8667.96875 6523.984375 L 8695 6521.015625 L 8722.96875 6517.03125 L 8750 6512.96875 L 8777.96875 6507.96875 L 8805 6312.96875 L 8832.96875 6302.03125 L 8887.03125 6277.96875 L 8915 6265 L 8942.03125 6252.03125 L 8970 6237.03125 L 8997.03125 6277.03125 L 9025 6262.96875 L 9052.03125 6247.96875 L 9080 6232.03125 L 9107.03125 6215 L 9133.984375 6197.96875 L 9162.03125 6180 L 9188.984375 6161.015625 L 9217.03125 6142.03125 L 9243.984375 6121.015625 L 9272.03125 6101.015625 L 9298.984375 6078.984375 L 9327.03125 6057.03125 L 9353.984375 6027.96875 L 9382.03125 6005 L 9408.984375 5982.03125 L 9436.015625 5958.984375 L 9463.984375 6110 L 9491.015625 6091.015625 L 9518.984375 6072.03125 L 9546.015625 6052.96875 L 9573.984375 6032.96875 L 9601.015625 6012.96875 L 9628.984375 5992.96875 L 9656.015625 5972.03125 L 9682.96875 5952.03125 L 9711.015625 6042.03125 L 9737.96875 6025 L 9766.015625 6007.03125 L 9792.96875 5990 L 9821.015625 5972.03125 L 9847.96875 5955 L 9876.015625 5937.96875 L 9902.96875 5922.03125 L 9931.015625 5906.015625 L 9957.96875 5380 L 9986.015625 5358.984375 L 10012.96875 5343.984375 L 10040 5335 L 10067.96875 5332.96875 L 10095 5337.03125 L 10122.96875 5750 L 10150 5761.015625 L 10177.96875 5773.984375 L 10205 5787.96875 L 10232.96875 5802.96875 L 10287.03125 5837.03125 L 10315 5856.015625 L 10342.03125 5875 L 10370 5893.984375 L 10397.03125 5913.984375 L 10425 5932.96875 L 10452.03125 5627.03125 L 10480 5657.03125 L 10507.03125 5688.984375 L 10535 5832.03125 L 10562.03125 5862.03125 L 10588.984375 5892.03125 L 10617.03125 5922.03125 L 10643.984375 5951.015625 L 10672.03125 6022.03125 L 10698.984375 6047.96875 L 10727.03125 6072.03125 L 10753.984375 6093.984375 L 10782.03125 6116.015625 L 10808.984375 6136.015625 L 10836.015625 6153.984375 L 10863.984375 6172.03125 L 10891.015625 6187.96875 L 10918.984375 6202.03125 L 10946.015625 6216.015625 L 10973.984375 6227.96875 L 11001.015625 6238.984375 L 11028.984375 6248.984375 L 11056.015625 6178.984375 L 11083.984375 6188.984375 L 11111.015625 6197.96875 L 11138.984375 6206.015625 L 11166.015625 6212.96875 L 11192.96875 6220 L 11221.015625 6225 L 11247.96875 6230 L 11276.015625 6235 L 11302.96875 6221.015625 L 11331.015625 6223.984375 L 11357.96875 6227.03125 L 11385 6227.96875 L 11413.4375 6230.625 L 11440 6230.625 L 11467.5 6258.125 L 11495.3125 6258.125 L 11522.96875 6256.015625 L 11550 6255 L 11577.96875 6252.03125 L 11605 6248.984375 L 11632.96875 6220 L 11660 6216.015625 L 11687.96875 6212.03125 L 11715 6207.03125 L 11742.03125 6201.015625 L 11770 6195 L 11797.03125 6188.984375 L 11825 6182.03125 L 11852.03125 6175 L 11880 6370 L 11907.03125 6363.984375 L 11935 6357.96875 L 11962.03125 6352.03125 L 11988.984375 6343.984375 L 12017.03125 6336.015625 L 12043.984375 6327.96875 L 12072.03125 6082.96875 L 12098.984375 6067.96875 L 12127.03125 6052.96875 L 12153.984375 6037.03125 L 12182.03125 6022.03125 L 12208.984375 6006.015625 L 12237.03125 5991.015625 L 12263.984375 5975 L 12292.03125 5960 " transform="matrix(0.05,0,0,0.05,0,0)"/>
<g style="fill:rgb(0%,0%,0%);fill-opacity:1;">
  <use xlink:href="#glyph0-29" x="456.054688" y="93.250977"/>
  <use xlink:href="#glyph0-18" x="459.628418" y="93.250977"/>
  <use xlink:href="#glyph0-15" x="463.240234" y="93.250977"/>
  <use xlink:href="#glyph0-20" x="471.479492" y="93.250977"/>
  <use xlink:href="#glyph0-30" x="478.626953" y="93.250977"/>
  <use xlink:href="#glyph0-31" x="485.126953" y="93.250977"/>
  <use xlink:href="#glyph0-32" x="493.378906" y="93.250977"/>
  <use xlink:href="#glyph0-13" x="501.618164" y="93.250977"/>
  <use xlink:href="#glyph0-16" x="506.962891" y="93.250977"/>
  <use xlink:href="#glyph0-12" x="513.73584" y="93.250977"/>
  <use xlink:href="#glyph0-27" x="518.833008" y="93.250977"/>
  <use xlink:href="#glyph0-6" x="529.725586" y="93.250977"/>
  <use xlink:href="#glyph0-3" x="537.996582" y="93.250977"/>
  <use xlink:href="#glyph0-2" x="542.128906" y="93.250977"/>
  <use xlink:href="#glyph0-29" x="550.399902" y="93.250977"/>
</g>
<path style="fill:none;stroke-width:20;stroke-linecap:butt;stroke-linejoin:miter;stroke:rgb(33.72549%,70.588235%,91.372549%);stroke-opacity:1;stroke-miterlimit:10;" d="M 11240 1764.6875 L 11999.0625 1764.6875 " transform="matrix(0.05,0,0,0.05,0,0)"/>
<path style="fill:none;stroke-width:20;stroke-linecap:butt;stroke-linejoin:miter;stroke:rgb(33.72549%,70.588235%,91.372549%);stroke-opacity:1;stroke-miterlimit:10;" d="M 2298.984375 6723.984375 L 2299.0625 6723.75 L 2325.3125 6723.515625 L 2354.6875 6723.359375 L 2380.9375 6723.359375 L 2408.984375 6722.96875 L 2436.015625 6723.984375 L 2463.75 6722.8125 L 2492.03125 6722.65625 L 2519.0625 6722.65625 L 2546.015625 6723.984375 L 2573.984375 6722.96875 L 2600.9375 6721.875 L 2627.03125 6721.796875 L 2656.484375 6721.640625 L 2682.65625 6721.5625 L 2712.03125 6721.484375 L 2738.203125 6721.40625 L 2765.625 6721.40625 L 2792.96875 6720 L 2821.015625 6717.96875 L 2847.96875 6721.015625 L 2875 6715 L 2902.96875 6717.96875 L 2930 6715 L 2957.96875 6713.984375 L 2985 6707.03125 L 3012.96875 6707.96875 L 3040 6705 L 3067.96875 6698.984375 L 3095 6705 L 3122.96875 6686.015625 L 3150 6696.015625 L 3177.03125 6692.03125 L 3205 6675 L 3232.03125 6677.03125 L 3260 6687.03125 L 3287.03125 6648.984375 L 3315 6625 L 3342.03125 6628.984375 L 3370 6661.015625 L 3397.03125 6542.03125 L 3425 6553.984375 L 3452.03125 6591.015625 L 3478.984375 6602.03125 L 3507.03125 6572.03125 L 3533.984375 6577.03125 L 3562.03125 6513.984375 L 3588.984375 6306.015625 L 3617.03125 6243.984375 L 3643.984375 6432.96875 L 3672.03125 6112.03125 L 3698.984375 6358.984375 L 3726.015625 5573.984375 L 3753.984375 5751.015625 L 3781.015625 5841.015625 L 3808.984375 5445 L 3836.015625 5628.984375 L 3863.984375 5042.96875 L 3891.015625 4500 L 3918.984375 5640 L 3946.015625 3577.96875 L 3973.984375 2920 L 4001.015625 2717.03125 L 4027.96875 3067.96875 L 4056.015625 4467.03125 L 4082.96875 2610 L 4111.015625 4520 L 4137.96875 2682.03125 L 4166.015625 3523.984375 L 4192.96875 2707.03125 L 4221.015625 3340 L 4247.96875 3127.96875 L 4275 3253.984375 L 4302.96875 3241.015625 L 4330 4527.03125 L 4357.96875 4172.96875 L 4385 4922.96875 L 4412.96875 5398.984375 L 4440 5880 L 4467.96875 6016.015625 L 4495 6447.96875 L 4522.96875 6346.015625 L 4550 6582.03125 L 4577.03125 6462.96875 L 4605 6526.015625 L 4632.03125 6627.96875 L 4660 6582.03125 L 4687.03125 6637.96875 L 4715 6622.96875 L 4742.03125 6658.984375 L 4770 6652.96875 L 4797.03125 6653.984375 L 4823.984375 6692.03125 L 4852.03125 6662.96875 L 4878.984375 6670 L 4907.03125 6687.03125 L 4933.984375 6685 L 4962.03125 6695 L 4988.4375 6688.4375 L 5017.1875 6688.4375 L 5043.984375 6682.96875 L 5072.03125 6686.015625 L 5098.984375 6688.984375 L 5127.03125 6685 L 5153.984375 6702.03125 L 5181.015625 6708.984375 L 5208.984375 6705 L 5236.015625 6702.03125 L 5263.984375 6708.984375 L 5291.015625 6707.03125 L 5318.984375 6693.984375 L 5346.015625 6697.03125 L 5373.984375 6692.03125 L 5401.015625 6702.96875 L 5427.96875 6707.03125 L 5456.015625 6697.96875 L 5482.8125 6686.5625 L 5511.5625 6686.5625 L 5537.96875 6696.015625 L 5566.015625 6702.03125 L 5592.96875 6697.96875 L 5621.015625 6692.03125 L 5647.96875 6682.03125 L 5676.015625 6691.015625 L 5702.96875 6676.015625 L 5730 6667.03125 L 5757.96875 6666.015625 L 5785 6663.984375 L 5812.96875 6675 L 5840 6683.984375 L 5867.96875 6680 L 5895 6641.015625 L 5922.96875 6638.984375 L 5950 6632.03125 L 5977.03125 6626.015625 L 6005 6602.96875 L 6032.03125 6636.015625 L 6060 6592.96875 L 6087.03125 6640 L 6115 6593.984375 L 6142.03125 6591.015625 L 6170 6533.984375 L 6197.03125 6542.96875 L 6225 6481.015625 L 6252.03125 6515 L 6278.984375 6468.984375 L 6307.03125 6512.96875 L 6333.984375 6400 L 6362.03125 6490 L 6388.984375 6433.984375 L 6417.03125 6318.984375 L 6443.984375 6388.984375 L 6472.03125 6492.03125 L 6498.984375 6521.015625 L 6527.03125 6263.984375 L 6553.984375 6267.96875 L 6581.015625 6440 L 6608.984375 6322.96875 L 6636.015625 5976.015625 L 6663.984375 5768.984375 L 6691.015625 5725 L 6718.984375 6078.984375 L 6746.015625 5508.984375 L 6773.984375 6105 L 6801.015625 5472.96875 L 6828.984375 5246.015625 L 6856.015625 5785 L 6882.96875 5368.984375 L 6911.015625 5238.984375 L 6937.96875 5751.015625 L 6966.015625 5062.03125 L 6992.96875 5870 L 7021.015625 5892.03125 L 7047.96875 4876.015625 L 7076.015625 4302.03125 L 7102.96875 5511.015625 L 7130 4613.984375 L 7157.96875 5485 L 7185 4038.984375 L 7212.96875 3933.984375 L 7240 4387.03125 L 7267.96875 5462.96875 L 7295 5498.984375 L 7322.96875 5117.03125 L 7350 4883.984375 L 7377.96875 5846.015625 L 7405 5396.015625 L 7432.03125 5943.984375 L 7460 5085 L 7487.03125 5652.96875 L 7515 5310 L 7542.03125 5200 L 7570 5642.03125 L 7597.03125 6222.03125 L 7625 5923.984375 L 7652.03125 5731.015625 L 7680 6016.015625 L 7707.03125 5948.984375 L 7733.984375 6316.015625 L 7762.03125 6097.03125 L 7788.984375 6133.984375 L 7817.03125 6380 L 7843.984375 6506.015625 L 7872.03125 6398.984375 L 7898.984375 6342.96875 L 7927.03125 6461.015625 L 7953.984375 6382.03125 L 7981.015625 6263.984375 L 8008.984375 6470 L 8036.015625 6495 L 8063.984375 6455 L 8091.015625 6342.03125 L 8118.984375 6367.96875 L 8146.015625 6477.03125 L 8173.984375 6457.03125 L 8201.015625 6580 L 8228.984375 6380 L 8256.25 6431.5625 L 8282.8125 6431.5625 L 8311.015625 6530 L 8337.96875 6458.984375 L 8366.015625 6577.96875 L 8392.96875 6476.015625 L 8421.015625 6455 L 8447.96875 6428.984375 L 8476.015625 6512.96875 L 8502.96875 6603.984375 L 8531.015625 6582.96875 L 8557.96875 6407.96875 L 8585 6582.96875 L 8612.96875 6358.984375 L 8640 6452.03125 L 8667.96875 6342.03125 L 8695 6481.015625 L 8722.96875 6341.015625 L 8750 6368.984375 L 8777.96875 6417.03125 L 8805 6358.984375 L 8832.96875 6517.96875 L 8860 6275 L 8887.03125 6442.03125 L 8915 6472.03125 L 8942.03125 6453.984375 L 8970 6473.984375 L 8997.03125 6293.984375 L 9025 6227.03125 L 9052.03125 6162.03125 L 9080 6142.96875 L 9107.03125 6347.96875 L 9133.984375 6148.984375 L 9162.03125 6145 L 9188.984375 6233.984375 L 9217.03125 5937.03125 L 9243.984375 6152.96875 L 9272.03125 6227.03125 L 9298.984375 6086.015625 L 9327.03125 6192.03125 L 9353.984375 5913.984375 L 9382.03125 6227.96875 L 9408.984375 6182.96875 L 9436.015625 5897.03125 L 9463.984375 5921.015625 L 9491.015625 5520 L 9518.984375 5911.015625 L 9546.015625 5833.984375 L 9573.984375 5553.984375 L 9601.015625 5993.984375 L 9628.984375 5688.984375 L 9656.015625 5277.03125 L 9682.96875 5625 L 9711.015625 5976.015625 L 9737.96875 5397.96875 L 9766.015625 5715 L 9792.96875 6021.015625 L 9821.015625 5953.984375 L 9847.96875 5762.96875 L 9876.015625 5237.96875 L 9902.96875 4976.015625 L 9931.015625 6077.96875 L 9957.96875 6037.96875 L 9986.015625 5641.015625 L 10012.96875 5465 L 10040 6053.984375 L 10067.96875 5593.984375 L 10095 5106.015625 L 10122.96875 5950 L 10150 5161.015625 L 10177.96875 5650 L 10205 5561.015625 L 10232.96875 5675 L 10260 5633.984375 L 10287.03125 6257.03125 L 10315 5965 L 10342.03125 5627.03125 L 10370 6011.015625 L 10397.03125 6326.015625 L 10425 6217.96875 L 10452.03125 5875 L 10480 6182.96875 L 10507.03125 6282.96875 L 10535 6252.96875 L 10562.03125 6062.96875 L 10588.984375 6180 L 10617.03125 6322.96875 L 10643.984375 5902.96875 L 10672.03125 6150 L 10698.984375 6438.984375 L 10727.03125 6121.015625 L 10753.984375 6332.96875 L 10782.03125 6090 L 10808.984375 6068.984375 L 10836.015625 6367.96875 L 10863.984375 6111.015625 L 10891.015625 6045 L 10918.984375 6371.015625 L 10946.015625 6442.03125 L 10973.984375 6187.03125 L 11001.015625 6281.015625 L 11028.984375 6085 L 11056.015625 6195 L 11083.984375 6127.03125 L 11111.015625 6202.96875 L 11138.984375 6101.015625 L 11166.015625 6233.984375 L 11192.96875 6140 L 11221.015625 6258.984375 L 11247.96875 6143.984375 L 11276.015625 6382.96875 L 11302.96875 6397.96875 L 11331.015625 6162.03125 L 11357.96875 6351.015625 L 11385 6418.984375 L 11412.96875 6337.03125 L 11440 6042.96875 L 11467.96875 6216.015625 L 11495 6481.015625 L 11522.96875 6347.03125 L 11550 6435 L 11577.96875 6307.03125 L 11605 6342.03125 L 11632.96875 6397.03125 L 11660 6322.96875 L 11687.96875 6376.015625 L 11715 6117.96875 L 11742.03125 6422.96875 L 11770 5967.96875 L 11797.03125 6208.984375 L 11825 6222.96875 L 11852.03125 6073.984375 L 11880 6343.984375 L 11907.03125 5982.03125 L 11935 6168.984375 L 11962.03125 5918.984375 L 11988.984375 6133.984375 L 12017.03125 6376.015625 L 12043.984375 5997.96875 L 12072.03125 5842.96875 L 12098.984375 6300 L 12127.03125 5967.03125 L 12153.984375 5607.96875 L 12182.03125 5902.96875 L 12208.984375 5995 L 12237.03125 6308.984375 L 12263.984375 6018.984375 L 12292.03125 6291.015625 " transform="matrix(0.05,0,0,0.05,0,0)"/>
<g style="fill:rgb(0%,0%,0%);fill-opacity:1;">
  <use xlink:href="#glyph0-29" x="456.054688" y="108.200195"/>
  <use xlink:href="#glyph0-18" x="459.628418" y="108.200195"/>
  <use xlink:href="#glyph0-15" x="463.240234" y="108.200195"/>
  <use xlink:href="#glyph0-20" x="471.479492" y="108.200195"/>
  <use xlink:href="#glyph0-30" x="478.626953" y="108.200195"/>
  <use xlink:href="#glyph0-31" x="485.126953" y="108.200195"/>
  <use xlink:href="#glyph0-32" x="493.378906" y="108.200195"/>
  <use xlink:href="#glyph0-13" x="501.618164" y="108.200195"/>
  <use xlink:href="#glyph0-16" x="506.962891" y="108.200195"/>
  <use xlink:href="#glyph0-12" x="513.73584" y="108.200195"/>
  <use xlink:href="#glyph0-27" x="518.833008" y="108.200195"/>
  <use xlink:href="#glyph0-8" x="529.725586" y="108.200195"/>
  <use xlink:href="#glyph0-3" x="537.996582" y="108.200195"/>
  <use xlink:href="#glyph0-2" x="542.128906" y="108.200195"/>
  <use xlink:href="#glyph0-29" x="550.399902" y="108.200195"/>
</g>
<path style="fill:none;stroke-width:20;stroke-linecap:butt;stroke-linejoin:miter;stroke:rgb(90.196078%,62.352941%,0%);stroke-opacity:1;stroke-miterlimit:10;" d="M 11240 2063.75 L 11999.0625 2063.75 " transform="matrix(0.05,0,0,0.05,0,0)"/>
<path style="fill:none;stroke-width:20;stroke-linecap:butt;stroke-linejoin:miter;stroke:rgb(90.196078%,62.352941%,0%);stroke-opacity:1;stroke-miterlimit:10;" d="M 2298.984375 6723.984375 L 2299.0625 6723.75 L 2325.3125 6723.515625 L 2354.6875 6723.359375 L 2380.9375 6723.359375 L 2408.4375 6722.8125 L 2436.484375 6722.65625 L 2463.75 6722.65625 L 2491.015625 6722.03125 L 2519.0625 6722.8125 L 2545.3125 6722.65625 L 2574.375 6722.65625 L 2600.9375 6720.9375 L 2627.03125 6720.859375 L 2656.25 6720.859375 L 2682.96875 6722.03125 L 2711.5625 6720.9375 L 2738.125 6720.9375 L 2766.015625 6722.03125 L 2792.96875 6717.96875 L 2821.015625 6713.984375 L 2847.96875 6721.015625 L 2875 6710 L 2902.96875 6716.015625 L 2930 6711.015625 L 2957.96875 6707.96875 L 2985 6696.015625 L 3012.96875 6698.984375 L 3040 6693.984375 L 3067.96875 6682.96875 L 3095 6697.96875 L 3122.96875 6662.03125 L 3150 6682.03125 L 3177.03125 6677.96875 L 3205 6647.03125 L 3232.03125 6653.984375 L 3260 6678.984375 L 3287.03125 6607.03125 L 3315 6565 L 3342.03125 6578.984375 L 3370 6650 L 3397.03125 6422.03125 L 3425 6457.03125 L 3452.03125 6542.96875 L 3478.984375 6577.96875 L 3507.03125 6537.03125 L 3533.984375 6565 L 3562.03125 6462.96875 L 3588.984375 6077.03125 L 3617.03125 5986.015625 L 3643.984375 6392.96875 L 3672.03125 5803.984375 L 3698.984375 6333.984375 L 3726.015625 4858.984375 L 3753.984375 5271.015625 L 3781.015625 5518.984375 L 3808.984375 4846.015625 L 3836.015625 5293.984375 L 3863.984375 4302.96875 L 3891.015625 3427.96875 L 3918.984375 5667.96875 L 3946.015625 2102.96875 L 3973.984375 1173.984375 L 4001.015625 1112.96875 L 4027.96875 2018.984375 L 4056.015625 4526.015625 L 4082.96875 1993.984375 L 4111.015625 5008.984375 L 4137.96875 2826.015625 L 4166.015625 4152.96875 L 4192.96875 3487.03125 L 4221.015625 4401.015625 L 4247.96875 4420 L 4275 4721.015625 L 4302.96875 4878.984375 L 4330 5786.015625 L 4357.96875 5593.984375 L 4385 5966.015625 L 4412.96875 6147.03125 L 4440 6341.015625 L 4467.96875 6357.96875 L 4495 6601.015625 L 4522.96875 6493.984375 L 4550 6655 L 4577.03125 6537.03125 L 4605 6576.015625 L 4632.03125 6661.015625 L 4660 6607.03125 L 4687.03125 6657.03125 L 4715 6635 L 4742.03125 6670 L 4770 6658.984375 L 4797.03125 6657.03125 L 4823.984375 6698.984375 L 4852.03125 6662.03125 L 4878.984375 6668.984375 L 4907.03125 6687.96875 L 4933.984375 6683.984375 L 4962.03125 6696.015625 L 4988.984375 6687.96875 L 5017.03125 6685 L 5043.984375 6677.03125 L 5072.03125 6680 L 5098.984375 6683.984375 L 5127.03125 6677.96875 L 5153.984375 6702.03125 L 5181.015625 6712.03125 L 5208.984375 6705 L 5236.015625 6701.015625 L 5263.984375 6711.015625 L 5291.015625 6707.96875 L 5318.984375 6687.96875 L 5346.015625 6692.03125 L 5373.984375 6685 L 5401.015625 6701.015625 L 5427.96875 6707.96875 L 5456.015625 6693.984375 L 5482.8125 6676.25 L 5511.5625 6676.25 L 5537.96875 6692.03125 L 5566.015625 6702.03125 L 5592.96875 6695 L 5621.015625 6686.015625 L 5647.96875 6668.984375 L 5676.015625 6686.015625 L 5702.96875 6661.015625 L 5730 6646.015625 L 5757.96875 6643.984375 L 5785 6642.03125 L 5812.96875 6662.03125 L 5840 6680 L 5867.96875 6672.96875 L 5895 6606.015625 L 5922.96875 6602.96875 L 5950 6592.96875 L 5977.03125 6585 L 6005 6545 L 6032.03125 6607.96875 L 6060 6532.03125 L 6087.03125 6622.96875 L 6115 6542.03125 L 6142.03125 6541.015625 L 6170 6440 L 6197.03125 6462.03125 L 6225 6352.03125 L 6252.03125 6422.03125 L 6278.984375 6345 L 6307.03125 6435 L 6333.984375 6233.984375 L 6362.03125 6410 L 6388.984375 6317.96875 L 6417.03125 6117.96875 L 6443.984375 6262.03125 L 6472.03125 6463.984375 L 6498.984375 6532.03125 L 6527.03125 6081.015625 L 6553.984375 6107.96875 L 6581.015625 6440 L 6608.984375 6252.96875 L 6636.015625 5656.015625 L 6663.984375 5317.03125 L 6691.015625 5273.984375 L 6718.984375 5932.96875 L 6746.015625 4980 L 6773.984375 6050 L 6801.015625 5017.96875 L 6828.984375 4692.96875 L 6856.015625 5642.96875 L 6882.96875 5018.984375 L 6911.015625 4873.984375 L 6937.96875 5741.015625 L 6966.015625 4737.96875 L 6992.96875 6018.984375 L 7021.015625 6095 L 7047.96875 4687.03125 L 7076.015625 3963.984375 L 7102.96875 5692.03125 L 7130 4556.015625 L 7157.96875 5742.96875 L 7185 3977.96875 L 7212.96875 3932.03125 L 7240 4542.96875 L 7267.96875 5825 L 7295 5878.984375 L 7322.96875 5472.96875 L 7350 5238.984375 L 7377.96875 6242.03125 L 7405 5772.96875 L 7432.03125 6308.984375 L 7460 5443.984375 L 7487.03125 5986.015625 L 7515 5631.015625 L 7542.03125 5500 L 7570 5906.015625 L 7597.03125 6451.015625 L 7625 6132.03125 L 7652.03125 5912.96875 L 7680 6176.015625 L 7707.03125 6082.03125 L 7733.984375 6446.015625 L 7762.03125 6193.984375 L 7788.984375 6213.984375 L 7817.03125 6467.96875 L 7843.984375 6597.03125 L 7872.03125 6463.984375 L 7898.984375 6386.015625 L 7927.03125 6515 L 7953.984375 6410 L 7981.015625 6253.984375 L 8008.984375 6500 L 8036.015625 6525 L 8063.984375 6467.03125 L 8091.015625 6312.96875 L 8118.984375 6338.984375 L 8146.015625 6477.03125 L 8173.984375 6446.015625 L 8201.015625 6608.984375 L 8228.984375 6327.96875 L 8256.015625 6395 L 8282.96875 6391.015625 L 8311.015625 6528.984375 L 8337.96875 6423.984375 L 8366.015625 6595 L 8392.96875 6442.96875 L 8421.015625 6410 L 8447.96875 6370 L 8476.015625 6493.984375 L 8502.96875 6632.03125 L 8531.015625 6601.015625 L 8557.96875 6332.96875 L 8585 6602.96875 L 8612.96875 6255 L 8640 6401.015625 L 8667.96875 6228.984375 L 8695 6448.984375 L 8722.96875 6228.984375 L 8750 6276.015625 L 8777.96875 6356.015625 L 8805 6265 L 8832.96875 6523.984375 L 8860 6138.984375 L 8887.03125 6412.03125 L 8915 6465 L 8942.03125 6441.015625 L 8970 6478.984375 L 8997.03125 6196.015625 L 9025 6097.03125 L 9052.03125 6001.015625 L 9080 5977.96875 L 9107.03125 6315 L 9133.984375 6008.984375 L 9162.03125 6012.96875 L 9188.984375 6165 L 9217.03125 5711.015625 L 9243.984375 6062.96875 L 9272.03125 6192.03125 L 9298.984375 5987.03125 L 9327.03125 6163.984375 L 9353.984375 5752.96875 L 9382.03125 6248.984375 L 9408.984375 6195 L 9436.015625 5781.015625 L 9463.984375 5835 L 9491.015625 5258.984375 L 9518.984375 5858.984375 L 9546.015625 5765 L 9573.984375 5381.015625 L 9601.015625 6033.984375 L 9628.984375 5617.96875 L 9656.015625 5060 L 9682.96875 5571.015625 L 9711.015625 6073.984375 L 9737.96875 5302.96875 L 9766.015625 5751.015625 L 9792.96875 6172.96875 L 9821.015625 6095 L 9847.96875 5857.03125 L 9876.015625 5191.015625 L 9902.96875 4872.03125 L 9931.015625 6285 L 9957.96875 6237.96875 L 9986.015625 5745 L 10012.96875 5532.03125 L 10040 6261.015625 L 10067.96875 5696.015625 L 10095 5101.015625 L 10122.96875 6123.984375 L 10150 5165 L 10177.96875 5751.015625 L 10205 5636.015625 L 10232.96875 5763.984375 L 10260 5705 L 10287.03125 6440 L 10315 6077.96875 L 10342.03125 5662.03125 L 10370 6111.015625 L 10397.03125 6478.984375 L 10425 6337.96875 L 10452.03125 5911.015625 L 10480 6276.015625 L 10507.03125 6387.96875 L 10535 6342.03125 L 10562.03125 6097.03125 L 10588.984375 6233.984375 L 10617.03125 6405 L 10643.984375 5862.03125 L 10672.03125 6167.96875 L 10698.984375 6532.96875 L 10727.03125 6112.96875 L 10753.984375 6382.96875 L 10782.03125 6057.03125 L 10808.984375 6020 L 10836.015625 6413.984375 L 10863.984375 6061.015625 L 10891.015625 5965 L 10918.984375 6405 L 10946.015625 6500 L 10973.984375 6142.96875 L 11001.015625 6268.984375 L 11028.984375 5991.015625 L 11056.015625 6142.03125 L 11083.984375 6042.03125 L 11111.015625 6147.03125 L 11138.984375 6000 L 11166.015625 6187.03125 L 11192.96875 6051.015625 L 11221.015625 6221.015625 L 11247.96875 6055 L 11276.015625 6397.96875 L 11302.96875 6420 L 11331.015625 6081.015625 L 11357.96875 6353.984375 L 11385 6452.96875 L 11412.96875 6336.015625 L 11440 5915 L 11467.96875 6166.015625 L 11495 6550 L 11522.96875 6360 L 11550 6488.984375 L 11577.96875 6307.03125 L 11605 6361.015625 L 11632.96875 6442.96875 L 11660 6341.015625 L 11687.96875 6421.015625 L 11715 6057.96875 L 11742.03125 6496.015625 L 11770 5856.015625 L 11797.03125 6202.96875 L 11825 6227.03125 L 11852.03125 6022.96875 L 11880 6407.96875 L 11907.03125 5907.03125 L 11935 6176.015625 L 11962.03125 5833.984375 L 11988.984375 6138.984375 L 12017.03125 6480 L 12043.984375 5963.984375 L 12072.03125 5758.984375 L 12098.984375 6392.96875 L 12127.03125 5943.984375 L 12153.984375 5463.984375 L 12182.03125 5872.03125 L 12208.984375 6002.96875 L 12237.03125 6430 L 12263.984375 6047.96875 L 12292.03125 6416.015625 " transform="matrix(0.05,0,0,0.05,0,0)"/>
<path style="fill:none;stroke-width:20;stroke-linecap:butt;stroke-linejoin:miter;stroke:rgb(0%,0%,0%);stroke-opacity:1;stroke-miterlimit:10;" d="M 2299.0625 898.125 L 2299.140625 6723.515625 L 12319.140625 6723.359375 L 12319.140625 898.203125 L 2299.0625 898.203125 " transform="matrix(0.05,0,0,0.05,0,0)"/>
</g>
</svg>
