<?xml version="1.0" encoding="UTF-8"?>
<svg xmlns="http://www.w3.org/2000/svg" xmlns:xlink="http://www.w3.org/1999/xlink" width="640pt" height="384pt" viewBox="0 0 640 384" version="1.1">
<defs>
<g>
<symbol overflow="visible" id="glyph0-0">
<path style="stroke:none;" d="M 0.640625 2.296875 L 0.640625 -9.171875 L 7.140625 -9.171875 L 7.140625 2.296875 Z M 1.375 1.578125 L 6.421875 1.578125 L 6.421875 -8.4375 L 1.375 -8.4375 Z M 1.375 1.578125 "/>
</symbol>
<symbol overflow="visible" id="glyph0-1">
<path style="stroke:none;" d=""/>
</symbol>
<symbol overflow="visible" id="glyph0-2">
<path style="stroke:none;" d="M 4.125 -8.640625 C 3.46875 -8.640625 2.972656 -8.3125 2.640625 -7.65625 C 2.304688 -7.007812 2.140625 -6.035156 2.140625 -4.734375 C 2.140625 -3.429688 2.304688 -2.453125 2.640625 -1.796875 C 2.972656 -1.148438 3.46875 -0.828125 4.125 -0.828125 C 4.789062 -0.828125 5.289062 -1.148438 5.625 -1.796875 C 5.957031 -2.453125 6.125 -3.429688 6.125 -4.734375 C 6.125 -6.035156 5.957031 -7.007812 5.625 -7.65625 C 5.289062 -8.3125 4.789062 -8.640625 4.125 -8.640625 Z M 4.125 -9.65625 C 5.1875 -9.65625 6 -9.234375 6.5625 -8.390625 C 7.125 -7.546875 7.40625 -6.328125 7.40625 -4.734375 C 7.40625 -3.140625 7.125 -1.921875 6.5625 -1.078125 C 6 -0.234375 5.1875 0.1875 4.125 0.1875 C 3.070312 0.1875 2.265625 -0.234375 1.703125 -1.078125 C 1.140625 -1.921875 0.859375 -3.140625 0.859375 -4.734375 C 0.859375 -6.328125 1.140625 -7.546875 1.703125 -8.390625 C 2.265625 -9.234375 3.070312 -9.65625 4.125 -9.65625 Z M 4.125 -9.65625 "/>
</symbol>
<symbol overflow="visible" id="glyph0-3">
<path style="stroke:none;" d="M 1.390625 -1.609375 L 2.734375 -1.609375 L 2.734375 0 L 1.390625 0 Z M 1.390625 -1.609375 "/>
</symbol>
<symbol overflow="visible" id="glyph0-4">
<path style="stroke:none;" d="M 7.3125 -3.84375 L 7.3125 -3.28125 L 1.9375 -3.28125 C 1.988281 -2.46875 2.226562 -1.851562 2.65625 -1.4375 C 3.09375 -1.019531 3.695312 -0.8125 4.46875 -0.8125 C 4.914062 -0.8125 5.347656 -0.863281 5.765625 -0.96875 C 6.191406 -1.082031 6.613281 -1.25 7.03125 -1.46875 L 7.03125 -0.359375 C 6.613281 -0.179688 6.179688 -0.046875 5.734375 0.046875 C 5.296875 0.140625 4.851562 0.1875 4.40625 0.1875 C 3.269531 0.1875 2.367188 -0.140625 1.703125 -0.796875 C 1.046875 -1.460938 0.71875 -2.359375 0.71875 -3.484375 C 0.71875 -4.648438 1.03125 -5.570312 1.65625 -6.25 C 2.289062 -6.9375 3.140625 -7.28125 4.203125 -7.28125 C 5.160156 -7.28125 5.914062 -6.972656 6.46875 -6.359375 C 7.03125 -5.742188 7.3125 -4.90625 7.3125 -3.84375 Z M 6.140625 -4.1875 C 6.128906 -4.820312 5.945312 -5.332031 5.59375 -5.71875 C 5.25 -6.101562 4.789062 -6.296875 4.21875 -6.296875 C 3.5625 -6.296875 3.035156 -6.109375 2.640625 -5.734375 C 2.253906 -5.367188 2.03125 -4.851562 1.96875 -4.1875 Z M 6.140625 -4.1875 "/>
</symbol>
<symbol overflow="visible" id="glyph0-5">
<path style="stroke:none;" d="M 5.984375 -8.15625 L 5.984375 -4.609375 L 9.515625 -4.609375 L 9.515625 -3.53125 L 5.984375 -3.53125 L 5.984375 0 L 4.90625 0 L 4.90625 -3.53125 L 1.375 -3.53125 L 1.375 -4.609375 L 4.90625 -4.609375 L 4.90625 -8.15625 Z M 5.984375 -8.15625 "/>
</symbol>
<symbol overflow="visible" id="glyph0-6">
<path style="stroke:none;" d="M 1.40625 -9.484375 L 6.4375 -9.484375 L 6.4375 -8.390625 L 2.578125 -8.390625 L 2.578125 -6.078125 C 2.765625 -6.140625 2.953125 -6.1875 3.140625 -6.21875 C 3.328125 -6.25 3.507812 -6.265625 3.6875 -6.265625 C 4.75 -6.265625 5.585938 -5.972656 6.203125 -5.390625 C 6.828125 -4.816406 7.140625 -4.035156 7.140625 -3.046875 C 7.140625 -2.023438 6.820312 -1.226562 6.1875 -0.65625 C 5.550781 -0.09375 4.65625 0.1875 3.5 0.1875 C 3.101562 0.1875 2.695312 0.148438 2.28125 0.078125 C 1.863281 0.015625 1.4375 -0.0820312 1 -0.21875 L 1 -1.515625 C 1.382812 -1.304688 1.78125 -1.148438 2.1875 -1.046875 C 2.59375 -0.941406 3.019531 -0.890625 3.46875 -0.890625 C 4.207031 -0.890625 4.789062 -1.082031 5.21875 -1.46875 C 5.644531 -1.851562 5.859375 -2.378906 5.859375 -3.046875 C 5.859375 -3.703125 5.644531 -4.222656 5.21875 -4.609375 C 4.789062 -4.992188 4.207031 -5.1875 3.46875 -5.1875 C 3.125 -5.1875 2.78125 -5.144531 2.4375 -5.0625 C 2.101562 -4.988281 1.757812 -4.875 1.40625 -4.71875 Z M 1.40625 -9.484375 "/>
</symbol>
<symbol overflow="visible" id="glyph0-7">
<path style="stroke:none;" d="M 5.28125 -5.109375 C 5.894531 -4.972656 6.375 -4.695312 6.71875 -4.28125 C 7.0625 -3.875 7.234375 -3.363281 7.234375 -2.75 C 7.234375 -1.820312 6.910156 -1.097656 6.265625 -0.578125 C 5.617188 -0.0664062 4.703125 0.1875 3.515625 0.1875 C 3.117188 0.1875 2.707031 0.144531 2.28125 0.0625 C 1.863281 -0.0078125 1.429688 -0.125 0.984375 -0.28125 L 0.984375 -1.53125 C 1.347656 -1.320312 1.738281 -1.160156 2.15625 -1.046875 C 2.582031 -0.941406 3.023438 -0.890625 3.484375 -0.890625 C 4.285156 -0.890625 4.894531 -1.046875 5.3125 -1.359375 C 5.738281 -1.679688 5.953125 -2.144531 5.953125 -2.75 C 5.953125 -3.3125 5.753906 -3.75 5.359375 -4.0625 C 4.972656 -4.375 4.429688 -4.53125 3.734375 -4.53125 L 2.625 -4.53125 L 2.625 -5.59375 L 3.78125 -5.59375 C 4.414062 -5.59375 4.898438 -5.71875 5.234375 -5.96875 C 5.566406 -6.21875 5.734375 -6.582031 5.734375 -7.0625 C 5.734375 -7.539062 5.5625 -7.910156 5.21875 -8.171875 C 4.875 -8.429688 4.378906 -8.5625 3.734375 -8.5625 C 3.378906 -8.5625 3 -8.523438 2.59375 -8.453125 C 2.195312 -8.378906 1.757812 -8.257812 1.28125 -8.09375 L 1.28125 -9.25 C 1.757812 -9.382812 2.210938 -9.484375 2.640625 -9.546875 C 3.066406 -9.617188 3.46875 -9.65625 3.84375 -9.65625 C 4.820312 -9.65625 5.59375 -9.429688 6.15625 -8.984375 C 6.726562 -8.546875 7.015625 -7.945312 7.015625 -7.1875 C 7.015625 -6.664062 6.863281 -6.222656 6.5625 -5.859375 C 6.257812 -5.492188 5.832031 -5.242188 5.28125 -5.109375 Z M 5.28125 -5.109375 "/>
</symbol>
<symbol overflow="visible" id="glyph0-8">
<path style="stroke:none;" d="M 1.609375 -1.078125 L 3.703125 -1.078125 L 3.703125 -8.3125 L 1.421875 -7.859375 L 1.421875 -9.015625 L 3.6875 -9.484375 L 4.984375 -9.484375 L 4.984375 -1.078125 L 7.078125 -1.078125 L 7.078125 0 L 1.609375 0 Z M 1.609375 -1.078125 "/>
</symbol>
<symbol overflow="visible" id="glyph0-9">
<path style="stroke:none;" d="M 4.90625 -8.359375 L 1.671875 -3.296875 L 4.90625 -3.296875 Z M 4.578125 -9.484375 L 6.1875 -9.484375 L 6.1875 -3.296875 L 7.546875 -3.296875 L 7.546875 -2.234375 L 6.1875 -2.234375 L 6.1875 0 L 4.90625 0 L 4.90625 -2.234375 L 0.640625 -2.234375 L 0.640625 -3.46875 Z M 4.578125 -9.484375 "/>
</symbol>
<symbol overflow="visible" id="glyph0-10">
<path style="stroke:none;" d="M 2.5 -1.078125 L 6.96875 -1.078125 L 6.96875 0 L 0.953125 0 L 0.953125 -1.078125 C 1.441406 -1.578125 2.101562 -2.25 2.9375 -3.09375 C 3.78125 -3.945312 4.3125 -4.5 4.53125 -4.75 C 4.9375 -5.207031 5.21875 -5.597656 5.375 -5.921875 C 5.539062 -6.242188 5.625 -6.554688 5.625 -6.859375 C 5.625 -7.367188 5.445312 -7.78125 5.09375 -8.09375 C 4.75 -8.40625 4.289062 -8.5625 3.71875 -8.5625 C 3.3125 -8.5625 2.882812 -8.492188 2.4375 -8.359375 C 2 -8.222656 1.523438 -8.007812 1.015625 -7.71875 L 1.015625 -9.015625 C 1.535156 -9.222656 2.019531 -9.378906 2.46875 -9.484375 C 2.914062 -9.597656 3.320312 -9.65625 3.6875 -9.65625 C 4.675781 -9.65625 5.460938 -9.40625 6.046875 -8.90625 C 6.628906 -8.414062 6.921875 -7.757812 6.921875 -6.9375 C 6.921875 -6.550781 6.847656 -6.179688 6.703125 -5.828125 C 6.554688 -5.484375 6.289062 -5.078125 5.90625 -4.609375 C 5.800781 -4.484375 5.460938 -4.125 4.890625 -3.53125 C 4.328125 -2.945312 3.53125 -2.128906 2.5 -1.078125 Z M 2.5 -1.078125 "/>
</symbol>
<symbol overflow="visible" id="glyph0-11">
<path style="stroke:none;" d="M 4.296875 -5.25 C 3.710938 -5.25 3.253906 -5.050781 2.921875 -4.65625 C 2.585938 -4.257812 2.421875 -3.722656 2.421875 -3.046875 C 2.421875 -2.359375 2.585938 -1.816406 2.921875 -1.421875 C 3.253906 -1.023438 3.710938 -0.828125 4.296875 -0.828125 C 4.867188 -0.828125 5.320312 -1.023438 5.65625 -1.421875 C 5.988281 -1.816406 6.15625 -2.359375 6.15625 -3.046875 C 6.15625 -3.722656 5.988281 -4.257812 5.65625 -4.65625 C 5.320312 -5.050781 4.867188 -5.25 4.296875 -5.25 Z M 6.84375 -9.265625 L 6.84375 -8.09375 C 6.519531 -8.25 6.191406 -8.363281 5.859375 -8.4375 C 5.535156 -8.519531 5.210938 -8.5625 4.890625 -8.5625 C 4.046875 -8.5625 3.398438 -8.273438 2.953125 -7.703125 C 2.503906 -7.140625 2.25 -6.28125 2.1875 -5.125 C 2.4375 -5.488281 2.75 -5.769531 3.125 -5.96875 C 3.5 -6.164062 3.914062 -6.265625 4.375 -6.265625 C 5.320312 -6.265625 6.070312 -5.972656 6.625 -5.390625 C 7.175781 -4.816406 7.453125 -4.035156 7.453125 -3.046875 C 7.453125 -2.066406 7.160156 -1.28125 6.578125 -0.6875 C 6.003906 -0.101562 5.242188 0.1875 4.296875 0.1875 C 3.191406 0.1875 2.347656 -0.234375 1.765625 -1.078125 C 1.191406 -1.921875 0.90625 -3.140625 0.90625 -4.734375 C 0.90625 -6.222656 1.257812 -7.414062 1.96875 -8.3125 C 2.6875 -9.207031 3.644531 -9.65625 4.84375 -9.65625 C 5.15625 -9.65625 5.472656 -9.617188 5.796875 -9.546875 C 6.128906 -9.484375 6.476562 -9.390625 6.84375 -9.265625 Z M 6.84375 -9.265625 "/>
</symbol>
<symbol overflow="visible" id="glyph0-12">
<path style="stroke:none;" d="M 4.125 -4.5 C 3.519531 -4.5 3.039062 -4.332031 2.6875 -4 C 2.34375 -3.675781 2.171875 -3.234375 2.171875 -2.671875 C 2.171875 -2.097656 2.34375 -1.644531 2.6875 -1.3125 C 3.039062 -0.988281 3.519531 -0.828125 4.125 -0.828125 C 4.738281 -0.828125 5.21875 -0.988281 5.5625 -1.3125 C 5.914062 -1.644531 6.09375 -2.097656 6.09375 -2.671875 C 6.09375 -3.234375 5.914062 -3.675781 5.5625 -4 C 5.21875 -4.332031 4.738281 -4.5 4.125 -4.5 Z M 2.84375 -5.046875 C 2.300781 -5.179688 1.875 -5.4375 1.5625 -5.8125 C 1.257812 -6.1875 1.109375 -6.644531 1.109375 -7.1875 C 1.109375 -7.945312 1.375 -8.546875 1.90625 -8.984375 C 2.445312 -9.429688 3.1875 -9.65625 4.125 -9.65625 C 5.070312 -9.65625 5.8125 -9.429688 6.34375 -8.984375 C 6.882812 -8.546875 7.15625 -7.945312 7.15625 -7.1875 C 7.15625 -6.644531 7 -6.1875 6.6875 -5.8125 C 6.382812 -5.4375 5.960938 -5.179688 5.421875 -5.046875 C 6.035156 -4.898438 6.515625 -4.617188 6.859375 -4.203125 C 7.203125 -3.785156 7.375 -3.273438 7.375 -2.671875 C 7.375 -1.742188 7.09375 -1.035156 6.53125 -0.546875 C 5.976562 -0.0546875 5.175781 0.1875 4.125 0.1875 C 3.082031 0.1875 2.28125 -0.0546875 1.71875 -0.546875 C 1.15625 -1.035156 0.875 -1.742188 0.875 -2.671875 C 0.875 -3.273438 1.046875 -3.785156 1.390625 -4.203125 C 1.742188 -4.617188 2.226562 -4.898438 2.84375 -5.046875 Z M 2.375 -7.078125 C 2.375 -6.578125 2.523438 -6.191406 2.828125 -5.921875 C 3.140625 -5.648438 3.570312 -5.515625 4.125 -5.515625 C 4.675781 -5.515625 5.109375 -5.648438 5.421875 -5.921875 C 5.734375 -6.191406 5.890625 -6.578125 5.890625 -7.078125 C 5.890625 -7.566406 5.734375 -7.945312 5.421875 -8.21875 C 5.109375 -8.5 4.675781 -8.640625 4.125 -8.640625 C 3.570312 -8.640625 3.140625 -8.5 2.828125 -8.21875 C 2.523438 -7.945312 2.375 -7.566406 2.375 -7.078125 Z M 2.375 -7.078125 "/>
</symbol>
<symbol overflow="visible" id="glyph0-13">
<path style="stroke:none;" d="M 5.90625 -6.03125 L 5.90625 -9.875 L 7.078125 -9.875 L 7.078125 0 L 5.90625 0 L 5.90625 -1.0625 C 5.65625 -0.644531 5.34375 -0.332031 4.96875 -0.125 C 4.59375 0.0820312 4.144531 0.1875 3.625 0.1875 C 2.769531 0.1875 2.070312 -0.15625 1.53125 -0.84375 C 0.988281 -1.53125 0.71875 -2.429688 0.71875 -3.546875 C 0.71875 -4.660156 0.988281 -5.5625 1.53125 -6.25 C 2.070312 -6.9375 2.769531 -7.28125 3.625 -7.28125 C 4.144531 -7.28125 4.59375 -7.175781 4.96875 -6.96875 C 5.34375 -6.769531 5.65625 -6.457031 5.90625 -6.03125 Z M 1.921875 -3.546875 C 1.921875 -2.691406 2.097656 -2.019531 2.453125 -1.53125 C 2.804688 -1.039062 3.289062 -0.796875 3.90625 -0.796875 C 4.53125 -0.796875 5.019531 -1.039062 5.375 -1.53125 C 5.726562 -2.019531 5.90625 -2.691406 5.90625 -3.546875 C 5.90625 -4.410156 5.726562 -5.082031 5.375 -5.5625 C 5.019531 -6.050781 4.53125 -6.296875 3.90625 -6.296875 C 3.289062 -6.296875 2.804688 -6.050781 2.453125 -5.5625 C 2.097656 -5.082031 1.921875 -4.410156 1.921875 -3.546875 Z M 1.921875 -3.546875 "/>
</symbol>
<symbol overflow="visible" id="glyph0-14">
<path style="stroke:none;" d="M 4.453125 -3.578125 C 3.515625 -3.578125 2.863281 -3.46875 2.5 -3.25 C 2.132812 -3.03125 1.953125 -2.660156 1.953125 -2.140625 C 1.953125 -1.734375 2.085938 -1.40625 2.359375 -1.15625 C 2.628906 -0.914062 3 -0.796875 3.46875 -0.796875 C 4.113281 -0.796875 4.632812 -1.023438 5.03125 -1.484375 C 5.425781 -1.941406 5.625 -2.550781 5.625 -3.3125 L 5.625 -3.578125 Z M 6.78125 -4.0625 L 6.78125 0 L 5.625 0 L 5.625 -1.078125 C 5.351562 -0.648438 5.019531 -0.332031 4.625 -0.125 C 4.226562 0.0820312 3.738281 0.1875 3.15625 0.1875 C 2.425781 0.1875 1.847656 -0.015625 1.421875 -0.421875 C 0.992188 -0.835938 0.78125 -1.382812 0.78125 -2.0625 C 0.78125 -2.863281 1.046875 -3.46875 1.578125 -3.875 C 2.117188 -4.28125 2.921875 -4.484375 3.984375 -4.484375 L 5.625 -4.484375 L 5.625 -4.609375 C 5.625 -5.140625 5.445312 -5.550781 5.09375 -5.84375 C 4.738281 -6.144531 4.238281 -6.296875 3.59375 -6.296875 C 3.1875 -6.296875 2.789062 -6.242188 2.40625 -6.140625 C 2.019531 -6.046875 1.648438 -5.898438 1.296875 -5.703125 L 1.296875 -6.78125 C 1.722656 -6.945312 2.140625 -7.070312 2.546875 -7.15625 C 2.953125 -7.238281 3.34375 -7.28125 3.71875 -7.28125 C 4.75 -7.28125 5.515625 -7.015625 6.015625 -6.484375 C 6.523438 -5.953125 6.78125 -5.144531 6.78125 -4.0625 Z M 6.78125 -4.0625 "/>
</symbol>
<symbol overflow="visible" id="glyph0-15">
<path style="stroke:none;" d="M 4.1875 0.65625 C 3.851562 1.507812 3.53125 2.0625 3.21875 2.3125 C 2.90625 2.570312 2.488281 2.703125 1.96875 2.703125 L 1.03125 2.703125 L 1.03125 1.734375 L 1.71875 1.734375 C 2.039062 1.734375 2.289062 1.65625 2.46875 1.5 C 2.644531 1.34375 2.835938 0.984375 3.046875 0.421875 L 3.265625 -0.109375 L 0.390625 -7.109375 L 1.625 -7.109375 L 3.84375 -1.546875 L 6.0625 -7.109375 L 7.3125 -7.109375 Z M 4.1875 0.65625 "/>
</symbol>
<symbol overflow="visible" id="glyph0-16">
<path style="stroke:none;" d="M 5.75 -6.90625 L 5.75 -5.796875 C 5.425781 -5.960938 5.085938 -6.085938 4.734375 -6.171875 C 4.378906 -6.253906 4.007812 -6.296875 3.625 -6.296875 C 3.039062 -6.296875 2.601562 -6.207031 2.3125 -6.03125 C 2.03125 -5.851562 1.890625 -5.585938 1.890625 -5.234375 C 1.890625 -4.960938 1.988281 -4.75 2.1875 -4.59375 C 2.394531 -4.445312 2.816406 -4.300781 3.453125 -4.15625 L 3.84375 -4.0625 C 4.675781 -3.882812 5.265625 -3.632812 5.609375 -3.3125 C 5.960938 -2.988281 6.140625 -2.539062 6.140625 -1.96875 C 6.140625 -1.300781 5.878906 -0.773438 5.359375 -0.390625 C 4.835938 -0.00390625 4.117188 0.1875 3.203125 0.1875 C 2.816406 0.1875 2.414062 0.148438 2 0.078125 C 1.59375 0.00390625 1.160156 -0.109375 0.703125 -0.265625 L 0.703125 -1.46875 C 1.140625 -1.238281 1.566406 -1.066406 1.984375 -0.953125 C 2.398438 -0.847656 2.8125 -0.796875 3.21875 -0.796875 C 3.769531 -0.796875 4.191406 -0.890625 4.484375 -1.078125 C 4.785156 -1.265625 4.9375 -1.53125 4.9375 -1.875 C 4.9375 -2.1875 4.828125 -2.425781 4.609375 -2.59375 C 4.398438 -2.769531 3.9375 -2.9375 3.21875 -3.09375 L 2.8125 -3.1875 C 2.082031 -3.34375 1.554688 -3.578125 1.234375 -3.890625 C 0.910156 -4.203125 0.75 -4.632812 0.75 -5.1875 C 0.75 -5.851562 0.984375 -6.367188 1.453125 -6.734375 C 1.929688 -7.097656 2.609375 -7.28125 3.484375 -7.28125 C 3.910156 -7.28125 4.316406 -7.25 4.703125 -7.1875 C 5.085938 -7.125 5.4375 -7.03125 5.75 -6.90625 Z M 5.75 -6.90625 "/>
</symbol>
<symbol overflow="visible" id="glyph0-17">
<path style="stroke:none;" d="M 8.375 -8.75 L 8.375 -7.390625 C 7.9375 -7.796875 7.472656 -8.097656 6.984375 -8.296875 C 6.503906 -8.492188 5.988281 -8.59375 5.4375 -8.59375 C 4.351562 -8.59375 3.519531 -8.257812 2.9375 -7.59375 C 2.363281 -6.9375 2.078125 -5.984375 2.078125 -4.734375 C 2.078125 -3.484375 2.363281 -2.523438 2.9375 -1.859375 C 3.519531 -1.203125 4.351562 -0.875 5.4375 -0.875 C 5.988281 -0.875 6.503906 -0.972656 6.984375 -1.171875 C 7.472656 -1.367188 7.9375 -1.664062 8.375 -2.0625 L 8.375 -0.734375 C 7.925781 -0.421875 7.453125 -0.1875 6.953125 -0.03125 C 6.453125 0.113281 5.921875 0.1875 5.359375 0.1875 C 3.921875 0.1875 2.789062 -0.25 1.96875 -1.125 C 1.144531 -2.007812 0.734375 -3.210938 0.734375 -4.734375 C 0.734375 -6.253906 1.144531 -7.453125 1.96875 -8.328125 C 2.789062 -9.210938 3.921875 -9.65625 5.359375 -9.65625 C 5.921875 -9.65625 6.453125 -9.578125 6.953125 -9.421875 C 7.460938 -9.273438 7.9375 -9.050781 8.375 -8.75 Z M 8.375 -8.75 "/>
</symbol>
<symbol overflow="visible" id="glyph0-18">
<path style="stroke:none;" d="M 1.109375 -2.8125 L 1.109375 -7.109375 L 2.265625 -7.109375 L 2.265625 -2.84375 C 2.265625 -2.175781 2.394531 -1.671875 2.65625 -1.328125 C 2.925781 -0.992188 3.320312 -0.828125 3.84375 -0.828125 C 4.476562 -0.828125 4.976562 -1.023438 5.34375 -1.421875 C 5.707031 -1.828125 5.890625 -2.378906 5.890625 -3.078125 L 5.890625 -7.109375 L 7.0625 -7.109375 L 7.0625 0 L 5.890625 0 L 5.890625 -1.09375 C 5.609375 -0.65625 5.28125 -0.332031 4.90625 -0.125 C 4.53125 0.0820312 4.09375 0.1875 3.59375 0.1875 C 2.78125 0.1875 2.160156 -0.0664062 1.734375 -0.578125 C 1.316406 -1.085938 1.109375 -1.832031 1.109375 -2.8125 Z M 4.046875 -7.28125 Z M 4.046875 -7.28125 "/>
</symbol>
<symbol overflow="visible" id="glyph0-19">
<path style="stroke:none;" d="M 6.765625 -5.75 C 7.054688 -6.269531 7.40625 -6.65625 7.8125 -6.90625 C 8.21875 -7.15625 8.695312 -7.28125 9.25 -7.28125 C 9.988281 -7.28125 10.554688 -7.019531 10.953125 -6.5 C 11.359375 -5.976562 11.5625 -5.242188 11.5625 -4.296875 L 11.5625 0 L 10.390625 0 L 10.390625 -4.25 C 10.390625 -4.9375 10.265625 -5.441406 10.015625 -5.765625 C 9.773438 -6.097656 9.410156 -6.265625 8.921875 -6.265625 C 8.316406 -6.265625 7.835938 -6.0625 7.484375 -5.65625 C 7.128906 -5.257812 6.953125 -4.710938 6.953125 -4.015625 L 6.953125 0 L 5.78125 0 L 5.78125 -4.25 C 5.78125 -4.9375 5.660156 -5.441406 5.421875 -5.765625 C 5.179688 -6.097656 4.804688 -6.265625 4.296875 -6.265625 C 3.703125 -6.265625 3.226562 -6.0625 2.875 -5.65625 C 2.53125 -5.25 2.359375 -4.703125 2.359375 -4.015625 L 2.359375 0 L 1.1875 0 L 1.1875 -7.109375 L 2.359375 -7.109375 L 2.359375 -6 C 2.617188 -6.4375 2.9375 -6.757812 3.3125 -6.96875 C 3.6875 -7.175781 4.128906 -7.28125 4.640625 -7.28125 C 5.160156 -7.28125 5.597656 -7.148438 5.953125 -6.890625 C 6.316406 -6.628906 6.585938 -6.25 6.765625 -5.75 Z M 6.765625 -5.75 "/>
</symbol>
<symbol overflow="visible" id="glyph0-20">
<path style="stroke:none;" d="M 1.21875 -9.875 L 2.390625 -9.875 L 2.390625 0 L 1.21875 0 Z M 1.21875 -9.875 "/>
</symbol>
<symbol overflow="visible" id="glyph0-21">
<path style="stroke:none;" d="M 2.375 -9.125 L 2.375 -7.109375 L 4.78125 -7.109375 L 4.78125 -6.203125 L 2.375 -6.203125 L 2.375 -2.34375 C 2.375 -1.757812 2.453125 -1.382812 2.609375 -1.21875 C 2.773438 -1.0625 3.101562 -0.984375 3.59375 -0.984375 L 4.78125 -0.984375 L 4.78125 0 L 3.59375 0 C 2.6875 0 2.0625 -0.164062 1.71875 -0.5 C 1.375 -0.84375 1.203125 -1.457031 1.203125 -2.34375 L 1.203125 -6.203125 L 0.34375 -6.203125 L 0.34375 -7.109375 L 1.203125 -7.109375 L 1.203125 -9.125 Z M 2.375 -9.125 "/>
</symbol>
<symbol overflow="visible" id="glyph0-22">
<path style="stroke:none;" d="M 1.21875 -7.109375 L 2.390625 -7.109375 L 2.390625 0 L 1.21875 0 Z M 1.21875 -9.875 L 2.390625 -9.875 L 2.390625 -8.390625 L 1.21875 -8.390625 Z M 1.21875 -9.875 "/>
</symbol>
<symbol overflow="visible" id="glyph0-23">
<path style="stroke:none;" d="M 0.390625 -7.109375 L 1.625 -7.109375 L 3.84375 -1.140625 L 6.0625 -7.109375 L 7.3125 -7.109375 L 4.640625 0 L 3.046875 0 Z M 0.390625 -7.109375 "/>
</symbol>
<symbol overflow="visible" id="glyph0-24">
<path style="stroke:none;" d="M 7.140625 -4.296875 L 7.140625 0 L 5.96875 0 L 5.96875 -4.25 C 5.96875 -4.925781 5.835938 -5.429688 5.578125 -5.765625 C 5.316406 -6.097656 4.921875 -6.265625 4.390625 -6.265625 C 3.765625 -6.265625 3.269531 -6.0625 2.90625 -5.65625 C 2.539062 -5.257812 2.359375 -4.710938 2.359375 -4.015625 L 2.359375 0 L 1.1875 0 L 1.1875 -7.109375 L 2.359375 -7.109375 L 2.359375 -6 C 2.640625 -6.425781 2.96875 -6.742188 3.34375 -6.953125 C 3.71875 -7.171875 4.15625 -7.28125 4.65625 -7.28125 C 5.46875 -7.28125 6.082031 -7.023438 6.5 -6.515625 C 6.925781 -6.015625 7.140625 -5.273438 7.140625 -4.296875 Z M 7.140625 -4.296875 "/>
</symbol>
<symbol overflow="visible" id="glyph0-25">
<path style="stroke:none;" d="M 6.34375 -6.84375 L 6.34375 -5.75 C 6.007812 -5.925781 5.675781 -6.0625 5.34375 -6.15625 C 5.007812 -6.25 4.675781 -6.296875 4.34375 -6.296875 C 3.582031 -6.296875 2.992188 -6.050781 2.578125 -5.5625 C 2.160156 -5.082031 1.953125 -4.410156 1.953125 -3.546875 C 1.953125 -2.679688 2.160156 -2.007812 2.578125 -1.53125 C 2.992188 -1.050781 3.582031 -0.8125 4.34375 -0.8125 C 4.675781 -0.8125 5.007812 -0.851562 5.34375 -0.9375 C 5.675781 -1.03125 6.007812 -1.171875 6.34375 -1.359375 L 6.34375 -0.265625 C 6.019531 -0.117188 5.679688 -0.0078125 5.328125 0.0625 C 4.984375 0.144531 4.613281 0.1875 4.21875 0.1875 C 3.144531 0.1875 2.289062 -0.144531 1.65625 -0.8125 C 1.03125 -1.488281 0.71875 -2.398438 0.71875 -3.546875 C 0.71875 -4.703125 1.035156 -5.613281 1.671875 -6.28125 C 2.304688 -6.945312 3.179688 -7.28125 4.296875 -7.28125 C 4.648438 -7.28125 5 -7.242188 5.34375 -7.171875 C 5.6875 -7.097656 6.019531 -6.988281 6.34375 -6.84375 Z M 6.34375 -6.84375 "/>
</symbol>
<symbol overflow="visible" id="glyph0-26">
<path style="stroke:none;" d="M 4.03125 -9.859375 C 3.46875 -8.890625 3.046875 -7.925781 2.765625 -6.96875 C 2.492188 -6.019531 2.359375 -5.054688 2.359375 -4.078125 C 2.359375 -3.097656 2.492188 -2.128906 2.765625 -1.171875 C 3.046875 -0.210938 3.46875 0.75 4.03125 1.71875 L 3.015625 1.71875 C 2.378906 0.71875 1.90625 -0.257812 1.59375 -1.21875 C 1.28125 -2.175781 1.125 -3.128906 1.125 -4.078125 C 1.125 -5.023438 1.28125 -5.972656 1.59375 -6.921875 C 1.90625 -7.878906 2.378906 -8.859375 3.015625 -9.859375 Z M 4.03125 -9.859375 "/>
</symbol>
<symbol overflow="visible" id="glyph0-27">
<path style="stroke:none;" d="M 1.0625 -9.484375 L 7.15625 -9.484375 L 7.15625 -8.9375 L 3.71875 0 L 2.375 0 L 5.625 -8.390625 L 1.0625 -8.390625 Z M 1.0625 -9.484375 "/>
</symbol>
<symbol overflow="visible" id="glyph0-28">
<path style="stroke:none;" d="M 1.046875 -9.859375 L 2.0625 -9.859375 C 2.695312 -8.859375 3.171875 -7.878906 3.484375 -6.921875 C 3.796875 -5.972656 3.953125 -5.023438 3.953125 -4.078125 C 3.953125 -3.128906 3.796875 -2.175781 3.484375 -1.21875 C 3.171875 -0.257812 2.695312 0.71875 2.0625 1.71875 L 1.046875 1.71875 C 1.609375 0.75 2.023438 -0.210938 2.296875 -1.171875 C 2.578125 -2.128906 2.71875 -3.097656 2.71875 -4.078125 C 2.71875 -5.054688 2.578125 -6.019531 2.296875 -6.96875 C 2.023438 -7.925781 1.609375 -8.890625 1.046875 -9.859375 Z M 1.046875 -9.859375 "/>
</symbol>
<symbol overflow="visible" id="glyph0-29">
<path style="stroke:none;" d="M 2.328125 -9.484375 L 2.328125 -5.953125 L 1.25 -5.953125 L 1.25 -9.484375 Z M 2.328125 -9.484375 "/>
</symbol>
<symbol overflow="visible" id="glyph0-30">
<path style="stroke:none;" d="M 5.765625 -4.4375 C 6.046875 -4.34375 6.316406 -4.144531 6.578125 -3.84375 C 6.835938 -3.539062 7.097656 -3.125 7.359375 -2.59375 L 8.65625 0 L 7.28125 0 L 6.0625 -2.4375 C 5.75 -3.070312 5.445312 -3.488281 5.15625 -3.6875 C 4.863281 -3.894531 4.460938 -4 3.953125 -4 L 2.5625 -4 L 2.5625 0 L 1.28125 0 L 1.28125 -9.484375 L 4.171875 -9.484375 C 5.253906 -9.484375 6.0625 -9.253906 6.59375 -8.796875 C 7.125 -8.347656 7.390625 -7.664062 7.390625 -6.75 C 7.390625 -6.15625 7.25 -5.660156 6.96875 -5.265625 C 6.695312 -4.867188 6.296875 -4.59375 5.765625 -4.4375 Z M 2.5625 -8.421875 L 2.5625 -5.0625 L 4.171875 -5.0625 C 4.785156 -5.0625 5.25 -5.203125 5.5625 -5.484375 C 5.882812 -5.773438 6.046875 -6.195312 6.046875 -6.75 C 6.046875 -7.300781 5.882812 -7.71875 5.5625 -8 C 5.25 -8.28125 4.785156 -8.421875 4.171875 -8.421875 Z M 2.5625 -8.421875 "/>
</symbol>
<symbol overflow="visible" id="glyph0-31">
<path style="stroke:none;" d="M 1.375 -5.90625 L 9.515625 -5.90625 L 9.515625 -4.84375 L 1.375 -4.84375 Z M 1.375 -3.3125 L 9.515625 -3.3125 L 9.515625 -2.234375 L 1.375 -2.234375 Z M 1.375 -3.3125 "/>
</symbol>
<symbol overflow="visible" id="glyph0-32">
<path style="stroke:none;" d="M 6.625 2.15625 L 6.625 3.0625 L -0.125 3.0625 L -0.125 2.15625 Z M 6.625 2.15625 "/>
</symbol>
<symbol overflow="visible" id="glyph0-33">
<path style="stroke:none;" d="M -0.03125 -9.484375 L 7.984375 -9.484375 L 7.984375 -8.390625 L 4.609375 -8.390625 L 4.609375 0 L 3.328125 0 L 3.328125 -8.390625 L -0.03125 -8.390625 Z M -0.03125 -9.484375 "/>
</symbol>
<symbol overflow="visible" id="glyph0-34">
<path style="stroke:none;" d="M 3.984375 -6.296875 C 3.359375 -6.296875 2.863281 -6.050781 2.5 -5.5625 C 2.132812 -5.070312 1.953125 -4.398438 1.953125 -3.546875 C 1.953125 -2.691406 2.128906 -2.019531 2.484375 -1.53125 C 2.847656 -1.050781 3.347656 -0.8125 3.984375 -0.8125 C 4.597656 -0.8125 5.085938 -1.054688 5.453125 -1.546875 C 5.816406 -2.035156 6 -2.703125 6 -3.546875 C 6 -4.390625 5.816406 -5.054688 5.453125 -5.546875 C 5.085938 -6.046875 4.597656 -6.296875 3.984375 -6.296875 Z M 3.984375 -7.28125 C 4.992188 -7.28125 5.789062 -6.945312 6.375 -6.28125 C 6.957031 -5.625 7.25 -4.710938 7.25 -3.546875 C 7.25 -2.378906 6.957031 -1.460938 6.375 -0.796875 C 5.789062 -0.140625 4.992188 0.1875 3.984375 0.1875 C 2.960938 0.1875 2.160156 -0.140625 1.578125 -0.796875 C 1.003906 -1.460938 0.71875 -2.378906 0.71875 -3.546875 C 0.71875 -4.710938 1.003906 -5.625 1.578125 -6.28125 C 2.160156 -6.945312 2.960938 -7.28125 3.984375 -7.28125 Z M 3.984375 -7.28125 "/>
</symbol>
<symbol overflow="visible" id="glyph1-0">
<path style="stroke:none;" d="M 2.296875 -0.640625 L -9.171875 -0.640625 L -9.171875 -7.140625 L 2.296875 -7.140625 Z M 1.578125 -1.375 L 1.578125 -6.421875 L -8.4375 -6.421875 L -8.4375 -1.375 Z M 1.578125 -1.375 "/>
</symbol>
<symbol overflow="visible" id="glyph1-1">
<path style="stroke:none;" d="M -2.8125 -1.109375 L -7.109375 -1.109375 L -7.109375 -2.265625 L -2.84375 -2.265625 C -2.175781 -2.265625 -1.671875 -2.394531 -1.328125 -2.65625 C -0.992188 -2.925781 -0.828125 -3.320312 -0.828125 -3.84375 C -0.828125 -4.476562 -1.023438 -4.976562 -1.421875 -5.34375 C -1.828125 -5.707031 -2.378906 -5.890625 -3.078125 -5.890625 L -7.109375 -5.890625 L -7.109375 -7.0625 L 0 -7.0625 L 0 -5.890625 L -1.09375 -5.890625 C -0.65625 -5.609375 -0.332031 -5.28125 -0.125 -4.90625 C 0.0820312 -4.53125 0.1875 -4.09375 0.1875 -3.59375 C 0.1875 -2.78125 -0.0664062 -2.160156 -0.578125 -1.734375 C -1.085938 -1.316406 -1.832031 -1.109375 -2.8125 -1.109375 Z M -7.28125 -4.046875 Z M -7.28125 -4.046875 "/>
</symbol>
<symbol overflow="visible" id="glyph1-2">
<path style="stroke:none;" d="M -4.296875 -7.140625 L 0 -7.140625 L 0 -5.96875 L -4.25 -5.96875 C -4.925781 -5.96875 -5.429688 -5.835938 -5.765625 -5.578125 C -6.097656 -5.316406 -6.265625 -4.921875 -6.265625 -4.390625 C -6.265625 -3.765625 -6.0625 -3.269531 -5.65625 -2.90625 C -5.257812 -2.539062 -4.710938 -2.359375 -4.015625 -2.359375 L 0 -2.359375 L 0 -1.1875 L -7.109375 -1.1875 L -7.109375 -2.359375 L -6 -2.359375 C -6.425781 -2.640625 -6.742188 -2.96875 -6.953125 -3.34375 C -7.171875 -3.71875 -7.28125 -4.15625 -7.28125 -4.65625 C -7.28125 -5.46875 -7.023438 -6.082031 -6.515625 -6.5 C -6.015625 -6.925781 -5.273438 -7.140625 -4.296875 -7.140625 Z M -4.296875 -7.140625 "/>
</symbol>
<symbol overflow="visible" id="glyph1-3">
<path style="stroke:none;" d="M -6.03125 -5.90625 L -9.875 -5.90625 L -9.875 -7.078125 L 0 -7.078125 L 0 -5.90625 L -1.0625 -5.90625 C -0.644531 -5.65625 -0.332031 -5.34375 -0.125 -4.96875 C 0.0820312 -4.59375 0.1875 -4.144531 0.1875 -3.625 C 0.1875 -2.769531 -0.15625 -2.070312 -0.84375 -1.53125 C -1.53125 -0.988281 -2.429688 -0.71875 -3.546875 -0.71875 C -4.660156 -0.71875 -5.5625 -0.988281 -6.25 -1.53125 C -6.9375 -2.070312 -7.28125 -2.769531 -7.28125 -3.625 C -7.28125 -4.144531 -7.175781 -4.59375 -6.96875 -4.96875 C -6.769531 -5.34375 -6.457031 -5.65625 -6.03125 -5.90625 Z M -3.546875 -1.921875 C -2.691406 -1.921875 -2.019531 -2.097656 -1.53125 -2.453125 C -1.039062 -2.804688 -0.796875 -3.289062 -0.796875 -3.90625 C -0.796875 -4.53125 -1.039062 -5.019531 -1.53125 -5.375 C -2.019531 -5.726562 -2.691406 -5.90625 -3.546875 -5.90625 C -4.410156 -5.90625 -5.082031 -5.726562 -5.5625 -5.375 C -6.050781 -5.019531 -6.296875 -4.53125 -6.296875 -3.90625 C -6.296875 -3.289062 -6.050781 -2.804688 -5.5625 -2.453125 C -5.082031 -2.097656 -4.410156 -1.921875 -3.546875 -1.921875 Z M -3.546875 -1.921875 "/>
</symbol>
<symbol overflow="visible" id="glyph1-4">
<path style="stroke:none;" d="M -3.84375 -7.3125 L -3.28125 -7.3125 L -3.28125 -1.9375 C -2.46875 -1.988281 -1.851562 -2.226562 -1.4375 -2.65625 C -1.019531 -3.09375 -0.8125 -3.695312 -0.8125 -4.46875 C -0.8125 -4.914062 -0.863281 -5.347656 -0.96875 -5.765625 C -1.082031 -6.191406 -1.25 -6.613281 -1.46875 -7.03125 L -0.359375 -7.03125 C -0.179688 -6.613281 -0.046875 -6.179688 0.046875 -5.734375 C 0.140625 -5.296875 0.1875 -4.851562 0.1875 -4.40625 C 0.1875 -3.269531 -0.140625 -2.367188 -0.796875 -1.703125 C -1.460938 -1.046875 -2.359375 -0.71875 -3.484375 -0.71875 C -4.648438 -0.71875 -5.570312 -1.03125 -6.25 -1.65625 C -6.9375 -2.289062 -7.28125 -3.140625 -7.28125 -4.203125 C -7.28125 -5.160156 -6.972656 -5.914062 -6.359375 -6.46875 C -5.742188 -7.03125 -4.90625 -7.3125 -3.84375 -7.3125 Z M -4.1875 -6.140625 C -4.820312 -6.128906 -5.332031 -5.945312 -5.71875 -5.59375 C -6.101562 -5.25 -6.296875 -4.789062 -6.296875 -4.21875 C -6.296875 -3.5625 -6.109375 -3.035156 -5.734375 -2.640625 C -5.367188 -2.253906 -4.851562 -2.03125 -4.1875 -1.96875 Z M -4.1875 -6.140625 "/>
</symbol>
<symbol overflow="visible" id="glyph1-5">
<path style="stroke:none;" d="M -6.015625 -5.34375 C -6.085938 -5.207031 -6.140625 -5.0625 -6.171875 -4.90625 C -6.210938 -4.757812 -6.234375 -4.59375 -6.234375 -4.40625 C -6.234375 -3.75 -6.019531 -3.242188 -5.59375 -2.890625 C -5.164062 -2.535156 -4.550781 -2.359375 -3.75 -2.359375 L 0 -2.359375 L 0 -1.1875 L -7.109375 -1.1875 L -7.109375 -2.359375 L -6 -2.359375 C -6.4375 -2.597656 -6.757812 -2.914062 -6.96875 -3.3125 C -7.175781 -3.707031 -7.28125 -4.1875 -7.28125 -4.75 C -7.28125 -4.832031 -7.273438 -4.921875 -7.265625 -5.015625 C -7.253906 -5.109375 -7.238281 -5.21875 -7.21875 -5.34375 Z M -6.015625 -5.34375 "/>
</symbol>
<symbol overflow="visible" id="glyph1-6">
<path style="stroke:none;" d=""/>
</symbol>
<symbol overflow="visible" id="glyph1-7">
<path style="stroke:none;" d="M -1.078125 -1.609375 L -1.078125 -3.703125 L -8.3125 -3.703125 L -7.859375 -1.421875 L -9.015625 -1.421875 L -9.484375 -3.6875 L -9.484375 -4.984375 L -1.078125 -4.984375 L -1.078125 -7.078125 L 0 -7.078125 L 0 -1.609375 Z M -1.078125 -1.609375 "/>
</symbol>
<symbol overflow="visible" id="glyph1-8">
<path style="stroke:none;" d="M -8.640625 -4.125 C -8.640625 -3.46875 -8.3125 -2.972656 -7.65625 -2.640625 C -7.007812 -2.304688 -6.035156 -2.140625 -4.734375 -2.140625 C -3.429688 -2.140625 -2.453125 -2.304688 -1.796875 -2.640625 C -1.148438 -2.972656 -0.828125 -3.46875 -0.828125 -4.125 C -0.828125 -4.789062 -1.148438 -5.289062 -1.796875 -5.625 C -2.453125 -5.957031 -3.429688 -6.125 -4.734375 -6.125 C -6.035156 -6.125 -7.007812 -5.957031 -7.65625 -5.625 C -8.3125 -5.289062 -8.640625 -4.789062 -8.640625 -4.125 Z M -9.65625 -4.125 C -9.65625 -5.1875 -9.234375 -6 -8.390625 -6.5625 C -7.546875 -7.125 -6.328125 -7.40625 -4.734375 -7.40625 C -3.140625 -7.40625 -1.921875 -7.125 -1.078125 -6.5625 C -0.234375 -6 0.1875 -5.1875 0.1875 -4.125 C 0.1875 -3.070312 -0.234375 -2.265625 -1.078125 -1.703125 C -1.921875 -1.140625 -3.140625 -0.859375 -4.734375 -0.859375 C -6.328125 -0.859375 -7.546875 -1.140625 -8.390625 -1.703125 C -9.234375 -2.265625 -9.65625 -3.070312 -9.65625 -4.125 Z M -9.65625 -4.125 "/>
</symbol>
<symbol overflow="visible" id="glyph1-9">
<path style="stroke:none;" d="M -5.75 -6.765625 C -6.269531 -7.054688 -6.65625 -7.40625 -6.90625 -7.8125 C -7.15625 -8.21875 -7.28125 -8.695312 -7.28125 -9.25 C -7.28125 -9.988281 -7.019531 -10.554688 -6.5 -10.953125 C -5.976562 -11.359375 -5.242188 -11.5625 -4.296875 -11.5625 L 0 -11.5625 L 0 -10.390625 L -4.25 -10.390625 C -4.9375 -10.390625 -5.441406 -10.265625 -5.765625 -10.015625 C -6.097656 -9.773438 -6.265625 -9.410156 -6.265625 -8.921875 C -6.265625 -8.316406 -6.0625 -7.835938 -5.65625 -7.484375 C -5.257812 -7.128906 -4.710938 -6.953125 -4.015625 -6.953125 L 0 -6.953125 L 0 -5.78125 L -4.25 -5.78125 C -4.9375 -5.78125 -5.441406 -5.660156 -5.765625 -5.421875 C -6.097656 -5.179688 -6.265625 -4.804688 -6.265625 -4.296875 C -6.265625 -3.703125 -6.0625 -3.226562 -5.65625 -2.875 C -5.25 -2.53125 -4.703125 -2.359375 -4.015625 -2.359375 L 0 -2.359375 L 0 -1.1875 L -7.109375 -1.1875 L -7.109375 -2.359375 L -6 -2.359375 C -6.4375 -2.617188 -6.757812 -2.9375 -6.96875 -3.3125 C -7.175781 -3.6875 -7.28125 -4.128906 -7.28125 -4.640625 C -7.28125 -5.160156 -7.148438 -5.597656 -6.890625 -5.953125 C -6.628906 -6.316406 -6.25 -6.585938 -5.75 -6.765625 Z M -5.75 -6.765625 "/>
</symbol>
<symbol overflow="visible" id="glyph1-10">
<path style="stroke:none;" d="M -3.546875 -6.328125 C -4.410156 -6.328125 -5.082031 -6.148438 -5.5625 -5.796875 C -6.050781 -5.441406 -6.296875 -4.957031 -6.296875 -4.34375 C -6.296875 -3.726562 -6.050781 -3.242188 -5.5625 -2.890625 C -5.082031 -2.535156 -4.410156 -2.359375 -3.546875 -2.359375 C -2.691406 -2.359375 -2.019531 -2.535156 -1.53125 -2.890625 C -1.039062 -3.242188 -0.796875 -3.726562 -0.796875 -4.34375 C -0.796875 -4.957031 -1.039062 -5.441406 -1.53125 -5.796875 C -2.019531 -6.148438 -2.691406 -6.328125 -3.546875 -6.328125 Z M -6.03125 -2.359375 C -6.457031 -2.597656 -6.769531 -2.90625 -6.96875 -3.28125 C -7.175781 -3.65625 -7.28125 -4.101562 -7.28125 -4.625 C -7.28125 -5.488281 -6.9375 -6.191406 -6.25 -6.734375 C -5.5625 -7.273438 -4.660156 -7.546875 -3.546875 -7.546875 C -2.429688 -7.546875 -1.53125 -7.273438 -0.84375 -6.734375 C -0.15625 -6.191406 0.1875 -5.488281 0.1875 -4.625 C 0.1875 -4.101562 0.0820312 -3.65625 -0.125 -3.28125 C -0.332031 -2.90625 -0.644531 -2.597656 -1.0625 -2.359375 L 0 -2.359375 L 0 -1.1875 L -9.875 -1.1875 L -9.875 -2.359375 Z M -6.03125 -2.359375 "/>
</symbol>
<symbol overflow="visible" id="glyph1-11">
<path style="stroke:none;" d="M -6.90625 -5.75 L -5.796875 -5.75 C -5.960938 -5.425781 -6.085938 -5.085938 -6.171875 -4.734375 C -6.253906 -4.378906 -6.296875 -4.007812 -6.296875 -3.625 C -6.296875 -3.039062 -6.207031 -2.601562 -6.03125 -2.3125 C -5.851562 -2.03125 -5.585938 -1.890625 -5.234375 -1.890625 C -4.960938 -1.890625 -4.75 -1.988281 -4.59375 -2.1875 C -4.445312 -2.394531 -4.300781 -2.816406 -4.15625 -3.453125 L -4.0625 -3.84375 C -3.882812 -4.675781 -3.632812 -5.265625 -3.3125 -5.609375 C -2.988281 -5.960938 -2.539062 -6.140625 -1.96875 -6.140625 C -1.300781 -6.140625 -0.773438 -5.878906 -0.390625 -5.359375 C -0.00390625 -4.835938 0.1875 -4.117188 0.1875 -3.203125 C 0.1875 -2.816406 0.148438 -2.414062 0.078125 -2 C 0.00390625 -1.59375 -0.109375 -1.160156 -0.265625 -0.703125 L -1.46875 -0.703125 C -1.238281 -1.140625 -1.066406 -1.566406 -0.953125 -1.984375 C -0.847656 -2.398438 -0.796875 -2.8125 -0.796875 -3.21875 C -0.796875 -3.769531 -0.890625 -4.191406 -1.078125 -4.484375 C -1.265625 -4.785156 -1.53125 -4.9375 -1.875 -4.9375 C -2.1875 -4.9375 -2.425781 -4.828125 -2.59375 -4.609375 C -2.769531 -4.398438 -2.9375 -3.9375 -3.09375 -3.21875 L -3.1875 -2.8125 C -3.34375 -2.082031 -3.578125 -1.554688 -3.890625 -1.234375 C -4.203125 -0.910156 -4.632812 -0.75 -5.1875 -0.75 C -5.851562 -0.75 -6.367188 -0.984375 -6.734375 -1.453125 C -7.097656 -1.929688 -7.28125 -2.609375 -7.28125 -3.484375 C -7.28125 -3.910156 -7.25 -4.316406 -7.1875 -4.703125 C -7.125 -5.085938 -7.03125 -5.4375 -6.90625 -5.75 Z M -6.90625 -5.75 "/>
</symbol>
</g>
</defs>
<g id="surface7413">
<rect x="0" y="0" width="640" height="384" style="fill:rgb(100%,100%,100%);fill-opacity:1;stroke:none;"/>
<path style="fill:none;stroke-width:10;stroke-linecap:butt;stroke-linejoin:miter;stroke:rgb(0%,0%,0%);stroke-opacity:1;stroke-dasharray:8,80;stroke-miterlimit:10;" d="M 2299.0625 6723.75 L 12319.0625 6723.75 " transform="matrix(0.05,0,0,0.05,0,0)"/>
<path style="fill:none;stroke-width:20;stroke-linecap:butt;stroke-linejoin:miter;stroke:rgb(0%,0%,0%);stroke-opacity:1;stroke-miterlimit:10;" d="M 2299.0625 6723.75 L 2418.125 6723.75 " transform="matrix(0.05,0,0,0.05,0,0)"/>
<path style="fill:none;stroke-width:20;stroke-linecap:butt;stroke-linejoin:miter;stroke:rgb(0%,0%,0%);stroke-opacity:1;stroke-miterlimit:10;" d="M 12319.0625 6723.75 L 12200 6723.75 " transform="matrix(0.05,0,0,0.05,0,0)"/>
<g style="fill:rgb(0%,0%,0%);fill-opacity:1;">
  <use xlink:href="#glyph0-1" x="38.445312" y="341.227539"/>
  <use xlink:href="#glyph0-1" x="42.577637" y="341.227539"/>
  <use xlink:href="#glyph0-1" x="46.709961" y="341.227539"/>
  <use xlink:href="#glyph0-2" x="50.842285" y="341.227539"/>
  <use xlink:href="#glyph0-3" x="59.113281" y="341.227539"/>
  <use xlink:href="#glyph0-2" x="63.245605" y="341.227539"/>
  <use xlink:href="#glyph0-4" x="71.516602" y="341.227539"/>
  <use xlink:href="#glyph0-5" x="79.514648" y="341.227539"/>
  <use xlink:href="#glyph0-2" x="90.407227" y="341.227539"/>
  <use xlink:href="#glyph0-2" x="98.678223" y="341.227539"/>
</g>
<path style="fill:none;stroke-width:10;stroke-linecap:butt;stroke-linejoin:miter;stroke:rgb(0%,0%,0%);stroke-opacity:1;stroke-dasharray:8,80;stroke-miterlimit:10;" d="M 2299.0625 5266.484375 L 12319.0625 5266.484375 " transform="matrix(0.05,0,0,0.05,0,0)"/>
<path style="fill:none;stroke-width:20;stroke-linecap:butt;stroke-linejoin:miter;stroke:rgb(0%,0%,0%);stroke-opacity:1;stroke-miterlimit:10;" d="M 2299.0625 5266.484375 L 2418.125 5266.484375 " transform="matrix(0.05,0,0,0.05,0,0)"/>
<path style="fill:none;stroke-width:20;stroke-linecap:butt;stroke-linejoin:miter;stroke:rgb(0%,0%,0%);stroke-opacity:1;stroke-miterlimit:10;" d="M 12319.0625 5266.484375 L 12200 5266.484375 " transform="matrix(0.05,0,0,0.05,0,0)"/>
<g style="fill:rgb(0%,0%,0%);fill-opacity:1;">
  <use xlink:href="#glyph0-1" x="38.445312" y="268.375977"/>
  <use xlink:href="#glyph0-1" x="42.577637" y="268.375977"/>
  <use xlink:href="#glyph0-1" x="46.709961" y="268.375977"/>
  <use xlink:href="#glyph0-6" x="50.842285" y="268.375977"/>
  <use xlink:href="#glyph0-3" x="59.113281" y="268.375977"/>
  <use xlink:href="#glyph0-2" x="63.245605" y="268.375977"/>
  <use xlink:href="#glyph0-4" x="71.516602" y="268.375977"/>
  <use xlink:href="#glyph0-5" x="79.514648" y="268.375977"/>
  <use xlink:href="#glyph0-2" x="90.407227" y="268.375977"/>
  <use xlink:href="#glyph0-7" x="98.678223" y="268.375977"/>
</g>
<path style="fill:none;stroke-width:10;stroke-linecap:butt;stroke-linejoin:miter;stroke:rgb(0%,0%,0%);stroke-opacity:1;stroke-dasharray:8,80;stroke-miterlimit:10;" d="M 2299.0625 3811.640625 L 12319.0625 3811.640625 " transform="matrix(0.05,0,0,0.05,0,0)"/>
<path style="fill:none;stroke-width:20;stroke-linecap:butt;stroke-linejoin:miter;stroke:rgb(0%,0%,0%);stroke-opacity:1;stroke-miterlimit:10;" d="M 2299.0625 3811.640625 L 2418.125 3811.640625 " transform="matrix(0.05,0,0,0.05,0,0)"/>
<path style="fill:none;stroke-width:20;stroke-linecap:butt;stroke-linejoin:miter;stroke:rgb(0%,0%,0%);stroke-opacity:1;stroke-miterlimit:10;" d="M 12319.0625 3811.640625 L 12200 3811.640625 " transform="matrix(0.05,0,0,0.05,0,0)"/>
<g style="fill:rgb(0%,0%,0%);fill-opacity:1;">
  <use xlink:href="#glyph0-1" x="38.445312" y="195.575195"/>
  <use xlink:href="#glyph0-1" x="42.577637" y="195.575195"/>
  <use xlink:href="#glyph0-1" x="46.709961" y="195.575195"/>
  <use xlink:href="#glyph0-8" x="50.842285" y="195.575195"/>
  <use xlink:href="#glyph0-3" x="59.113281" y="195.575195"/>
  <use xlink:href="#glyph0-2" x="63.245605" y="195.575195"/>
  <use xlink:href="#glyph0-4" x="71.516602" y="195.575195"/>
  <use xlink:href="#glyph0-5" x="79.514648" y="195.575195"/>
  <use xlink:href="#glyph0-2" x="90.407227" y="195.575195"/>
  <use xlink:href="#glyph0-9" x="98.678223" y="195.575195"/>
</g>
<path style="fill:none;stroke-width:10;stroke-linecap:butt;stroke-linejoin:miter;stroke:rgb(0%,0%,0%);stroke-opacity:1;stroke-dasharray:8,80;stroke-miterlimit:10;" d="M 2299.0625 2354.453125 L 12319.0625 2354.453125 " transform="matrix(0.05,0,0,0.05,0,0)"/>
<path style="fill:none;stroke-width:20;stroke-linecap:butt;stroke-linejoin:miter;stroke:rgb(0%,0%,0%);stroke-opacity:1;stroke-miterlimit:10;" d="M 2299.0625 2354.453125 L 2418.125 2354.453125 " transform="matrix(0.05,0,0,0.05,0,0)"/>
<path style="fill:none;stroke-width:20;stroke-linecap:butt;stroke-linejoin:miter;stroke:rgb(0%,0%,0%);stroke-opacity:1;stroke-miterlimit:10;" d="M 12319.0625 2354.453125 L 12200 2354.453125 " transform="matrix(0.05,0,0,0.05,0,0)"/>
<g style="fill:rgb(0%,0%,0%);fill-opacity:1;">
  <use xlink:href="#glyph0-1" x="38.445312" y="122.727539"/>
  <use xlink:href="#glyph0-1" x="42.577637" y="122.727539"/>
  <use xlink:href="#glyph0-1" x="46.709961" y="122.727539"/>
  <use xlink:href="#glyph0-8" x="50.842285" y="122.727539"/>
  <use xlink:href="#glyph0-3" x="59.113281" y="122.727539"/>
  <use xlink:href="#glyph0-6" x="63.245605" y="122.727539"/>
  <use xlink:href="#glyph0-4" x="71.516602" y="122.727539"/>
  <use xlink:href="#glyph0-5" x="79.514648" y="122.727539"/>
  <use xlink:href="#glyph0-2" x="90.407227" y="122.727539"/>
  <use xlink:href="#glyph0-9" x="98.678223" y="122.727539"/>
</g>
<path style="fill:none;stroke-width:10;stroke-linecap:butt;stroke-linejoin:miter;stroke:rgb(0%,0%,0%);stroke-opacity:1;stroke-dasharray:8,80;stroke-miterlimit:10;" d="M 2299.0625 898.125 L 12319.0625 898.125 " transform="matrix(0.05,0,0,0.05,0,0)"/>
<path style="fill:none;stroke-width:20;stroke-linecap:butt;stroke-linejoin:miter;stroke:rgb(0%,0%,0%);stroke-opacity:1;stroke-miterlimit:10;" d="M 2299.0625 898.125 L 2418.125 898.125 " transform="matrix(0.05,0,0,0.05,0,0)"/>
<path style="fill:none;stroke-width:20;stroke-linecap:butt;stroke-linejoin:miter;stroke:rgb(0%,0%,0%);stroke-opacity:1;stroke-miterlimit:10;" d="M 12319.0625 898.125 L 12200 898.125 " transform="matrix(0.05,0,0,0.05,0,0)"/>
<g style="fill:rgb(0%,0%,0%);fill-opacity:1;">
  <use xlink:href="#glyph0-1" x="38.445312" y="49.926758"/>
  <use xlink:href="#glyph0-1" x="42.577637" y="49.926758"/>
  <use xlink:href="#glyph0-1" x="46.709961" y="49.926758"/>
  <use xlink:href="#glyph0-10" x="50.842285" y="49.926758"/>
  <use xlink:href="#glyph0-3" x="59.113281" y="49.926758"/>
  <use xlink:href="#glyph0-2" x="63.245605" y="49.926758"/>
  <use xlink:href="#glyph0-4" x="71.516602" y="49.926758"/>
  <use xlink:href="#glyph0-5" x="79.514648" y="49.926758"/>
  <use xlink:href="#glyph0-2" x="90.407227" y="49.926758"/>
  <use xlink:href="#glyph0-9" x="98.678223" y="49.926758"/>
</g>
<path style="fill:none;stroke-width:10;stroke-linecap:butt;stroke-linejoin:miter;stroke:rgb(0%,0%,0%);stroke-opacity:1;stroke-dasharray:8,80;stroke-miterlimit:10;" d="M 2299.0625 6723.75 L 2299.0625 898.125 " transform="matrix(0.05,0,0,0.05,0,0)"/>
<path style="fill:none;stroke-width:20;stroke-linecap:butt;stroke-linejoin:miter;stroke:rgb(0%,0%,0%);stroke-opacity:1;stroke-miterlimit:10;" d="M 2299.0625 6723.75 L 2299.0625 6604.6875 " transform="matrix(0.05,0,0,0.05,0,0)"/>
<path style="fill:none;stroke-width:20;stroke-linecap:butt;stroke-linejoin:miter;stroke:rgb(0%,0%,0%);stroke-opacity:1;stroke-miterlimit:10;" d="M 2299.0625 898.125 L 2299.0625 1017.1875 " transform="matrix(0.05,0,0,0.05,0,0)"/>
<g style="fill:rgb(0%,0%,0%);fill-opacity:1;">
  <use xlink:href="#glyph0-1" x="108.75" y="356.176758"/>
  <use xlink:href="#glyph0-2" x="112.882324" y="356.176758"/>
</g>
<path style="fill:none;stroke-width:10;stroke-linecap:butt;stroke-linejoin:miter;stroke:rgb(0%,0%,0%);stroke-opacity:1;stroke-dasharray:8,80;stroke-miterlimit:10;" d="M 4128.359375 6723.75 L 4128.359375 898.125 " transform="matrix(0.05,0,0,0.05,0,0)"/>
<path style="fill:none;stroke-width:20;stroke-linecap:butt;stroke-linejoin:miter;stroke:rgb(0%,0%,0%);stroke-opacity:1;stroke-miterlimit:10;" d="M 4128.359375 6723.75 L 4128.359375 6604.6875 " transform="matrix(0.05,0,0,0.05,0,0)"/>
<path style="fill:none;stroke-width:20;stroke-linecap:butt;stroke-linejoin:miter;stroke:rgb(0%,0%,0%);stroke-opacity:1;stroke-miterlimit:10;" d="M 4128.359375 898.125 L 4128.359375 1017.1875 " transform="matrix(0.05,0,0,0.05,0,0)"/>
<g style="fill:rgb(0%,0%,0%);fill-opacity:1;">
  <use xlink:href="#glyph0-1" x="191.976562" y="356.176758"/>
  <use xlink:href="#glyph0-10" x="196.108887" y="356.176758"/>
  <use xlink:href="#glyph0-2" x="204.379883" y="356.176758"/>
  <use xlink:href="#glyph0-2" x="212.650879" y="356.176758"/>
</g>
<path style="fill:none;stroke-width:10;stroke-linecap:butt;stroke-linejoin:miter;stroke:rgb(0%,0%,0%);stroke-opacity:1;stroke-dasharray:8,80;stroke-miterlimit:10;" d="M 5959.0625 6723.75 L 5959.0625 898.125 " transform="matrix(0.05,0,0,0.05,0,0)"/>
<path style="fill:none;stroke-width:20;stroke-linecap:butt;stroke-linejoin:miter;stroke:rgb(0%,0%,0%);stroke-opacity:1;stroke-miterlimit:10;" d="M 5959.0625 6723.75 L 5959.0625 6604.6875 " transform="matrix(0.05,0,0,0.05,0,0)"/>
<path style="fill:none;stroke-width:20;stroke-linecap:butt;stroke-linejoin:miter;stroke:rgb(0%,0%,0%);stroke-opacity:1;stroke-miterlimit:10;" d="M 5959.0625 898.125 L 5959.0625 1017.1875 " transform="matrix(0.05,0,0,0.05,0,0)"/>
<g style="fill:rgb(0%,0%,0%);fill-opacity:1;">
  <use xlink:href="#glyph0-1" x="283.476562" y="356.176758"/>
  <use xlink:href="#glyph0-9" x="287.608887" y="356.176758"/>
  <use xlink:href="#glyph0-2" x="295.879883" y="356.176758"/>
  <use xlink:href="#glyph0-2" x="304.150879" y="356.176758"/>
</g>
<path style="fill:none;stroke-width:10;stroke-linecap:butt;stroke-linejoin:miter;stroke:rgb(0%,0%,0%);stroke-opacity:1;stroke-dasharray:8,80;stroke-miterlimit:10;" d="M 7788.359375 6723.75 L 7788.359375 898.125 " transform="matrix(0.05,0,0,0.05,0,0)"/>
<path style="fill:none;stroke-width:20;stroke-linecap:butt;stroke-linejoin:miter;stroke:rgb(0%,0%,0%);stroke-opacity:1;stroke-miterlimit:10;" d="M 7788.359375 6723.75 L 7788.359375 6604.6875 " transform="matrix(0.05,0,0,0.05,0,0)"/>
<path style="fill:none;stroke-width:20;stroke-linecap:butt;stroke-linejoin:miter;stroke:rgb(0%,0%,0%);stroke-opacity:1;stroke-miterlimit:10;" d="M 7788.359375 898.125 L 7788.359375 1017.1875 " transform="matrix(0.05,0,0,0.05,0,0)"/>
<g style="fill:rgb(0%,0%,0%);fill-opacity:1;">
  <use xlink:href="#glyph0-1" x="374.976562" y="356.176758"/>
  <use xlink:href="#glyph0-11" x="379.108887" y="356.176758"/>
  <use xlink:href="#glyph0-2" x="387.379883" y="356.176758"/>
  <use xlink:href="#glyph0-2" x="395.650879" y="356.176758"/>
</g>
<path style="fill:none;stroke-width:10;stroke-linecap:butt;stroke-linejoin:miter;stroke:rgb(0%,0%,0%);stroke-opacity:1;stroke-dasharray:8,80;stroke-miterlimit:10;" d="M 9620 6723.75 L 9620 1615.3125 " transform="matrix(0.05,0,0,0.05,0,0)"/>
<path style="fill:none;stroke-width:10;stroke-linecap:butt;stroke-linejoin:miter;stroke:rgb(0%,0%,0%);stroke-opacity:1;stroke-dasharray:8,80;stroke-miterlimit:10;" d="M 9620 1017.1875 L 9620 898.125 " transform="matrix(0.05,0,0,0.05,0,0)"/>
<path style="fill:none;stroke-width:20;stroke-linecap:butt;stroke-linejoin:miter;stroke:rgb(0%,0%,0%);stroke-opacity:1;stroke-miterlimit:10;" d="M 9620 6723.75 L 9620 6604.6875 " transform="matrix(0.05,0,0,0.05,0,0)"/>
<path style="fill:none;stroke-width:20;stroke-linecap:butt;stroke-linejoin:miter;stroke:rgb(0%,0%,0%);stroke-opacity:1;stroke-miterlimit:10;" d="M 9620 898.125 L 9620 1017.1875 " transform="matrix(0.05,0,0,0.05,0,0)"/>
<g style="fill:rgb(0%,0%,0%);fill-opacity:1;">
  <use xlink:href="#glyph0-1" x="466.527344" y="356.176758"/>
  <use xlink:href="#glyph0-12" x="470.659668" y="356.176758"/>
  <use xlink:href="#glyph0-2" x="478.930664" y="356.176758"/>
  <use xlink:href="#glyph0-2" x="487.20166" y="356.176758"/>
</g>
<path style="fill:none;stroke-width:10;stroke-linecap:butt;stroke-linejoin:miter;stroke:rgb(0%,0%,0%);stroke-opacity:1;stroke-dasharray:8,80;stroke-miterlimit:10;" d="M 11449.296875 6723.75 L 11449.296875 1615.3125 " transform="matrix(0.05,0,0,0.05,0,0)"/>
<path style="fill:none;stroke-width:10;stroke-linecap:butt;stroke-linejoin:miter;stroke:rgb(0%,0%,0%);stroke-opacity:1;stroke-dasharray:8,80;stroke-miterlimit:10;" d="M 11449.296875 1017.1875 L 11449.296875 898.125 " transform="matrix(0.05,0,0,0.05,0,0)"/>
<path style="fill:none;stroke-width:20;stroke-linecap:butt;stroke-linejoin:miter;stroke:rgb(0%,0%,0%);stroke-opacity:1;stroke-miterlimit:10;" d="M 11449.296875 6723.75 L 11449.296875 6604.6875 " transform="matrix(0.05,0,0,0.05,0,0)"/>
<path style="fill:none;stroke-width:20;stroke-linecap:butt;stroke-linejoin:miter;stroke:rgb(0%,0%,0%);stroke-opacity:1;stroke-miterlimit:10;" d="M 11449.296875 898.125 L 11449.296875 1017.1875 " transform="matrix(0.05,0,0,0.05,0,0)"/>
<g style="fill:rgb(0%,0%,0%);fill-opacity:1;">
  <use xlink:href="#glyph0-1" x="553.890625" y="356.176758"/>
  <use xlink:href="#glyph0-8" x="558.022949" y="356.176758"/>
  <use xlink:href="#glyph0-2" x="566.293945" y="356.176758"/>
  <use xlink:href="#glyph0-2" x="574.564941" y="356.176758"/>
  <use xlink:href="#glyph0-2" x="582.835938" y="356.176758"/>
</g>
<path style="fill:none;stroke-width:20;stroke-linecap:butt;stroke-linejoin:miter;stroke:rgb(0%,0%,0%);stroke-opacity:1;stroke-miterlimit:10;" d="M 2299.0625 898.125 L 2299.140625 6723.4375 L 12319.140625 6723.203125 L 12319.21875 898.28125 L 2299.0625 898.28125 " transform="matrix(0.05,0,0,0.05,0,0)"/>
<g style="fill:rgb(0%,0%,0%);fill-opacity:1;">
  <use xlink:href="#glyph1-1" x="16.477539" y="269.378906"/>
  <use xlink:href="#glyph1-2" x="16.477539" y="261.139648"/>
  <use xlink:href="#glyph1-3" x="16.477539" y="252.900391"/>
  <use xlink:href="#glyph1-4" x="16.477539" y="244.648438"/>
  <use xlink:href="#glyph1-5" x="16.477539" y="236.650391"/>
  <use xlink:href="#glyph1-6" x="16.477539" y="231.305664"/>
  <use xlink:href="#glyph1-7" x="16.477539" y="227.17334"/>
  <use xlink:href="#glyph1-8" x="16.477539" y="218.902344"/>
  <use xlink:href="#glyph1-8" x="16.477539" y="210.631348"/>
  <use xlink:href="#glyph1-8" x="16.477539" y="202.360352"/>
  <use xlink:href="#glyph1-8" x="16.477539" y="194.089355"/>
  <use xlink:href="#glyph1-8" x="16.477539" y="185.818359"/>
  <use xlink:href="#glyph1-6" x="16.477539" y="177.547363"/>
  <use xlink:href="#glyph1-9" x="16.477539" y="173.415039"/>
  <use xlink:href="#glyph1-4" x="16.477539" y="160.751465"/>
  <use xlink:href="#glyph1-9" x="16.477539" y="152.753418"/>
  <use xlink:href="#glyph1-10" x="16.477539" y="140.089844"/>
  <use xlink:href="#glyph1-4" x="16.477539" y="131.837891"/>
  <use xlink:href="#glyph1-5" x="16.477539" y="123.839844"/>
  <use xlink:href="#glyph1-11" x="16.477539" y="118.495117"/>
</g>
<g style="fill:rgb(0%,0%,0%);fill-opacity:1;">
  <use xlink:href="#glyph0-13" x="350.109375" y="378.575195"/>
  <use xlink:href="#glyph0-14" x="358.361328" y="378.575195"/>
  <use xlink:href="#glyph0-15" x="366.327637" y="378.575195"/>
  <use xlink:href="#glyph0-16" x="374.020996" y="378.575195"/>
</g>
<g style="fill:rgb(0%,0%,0%);fill-opacity:1;">
  <use xlink:href="#glyph0-17" x="262.347656" y="27.477539"/>
  <use xlink:href="#glyph0-18" x="271.424805" y="27.477539"/>
  <use xlink:href="#glyph0-19" x="279.664062" y="27.477539"/>
  <use xlink:href="#glyph0-18" x="292.327637" y="27.477539"/>
  <use xlink:href="#glyph0-20" x="300.566895" y="27.477539"/>
  <use xlink:href="#glyph0-14" x="304.178711" y="27.477539"/>
  <use xlink:href="#glyph0-21" x="312.14502" y="27.477539"/>
  <use xlink:href="#glyph0-22" x="317.242188" y="27.477539"/>
  <use xlink:href="#glyph0-23" x="320.854004" y="27.477539"/>
  <use xlink:href="#glyph0-4" x="328.547363" y="27.477539"/>
  <use xlink:href="#glyph0-1" x="336.54541" y="27.477539"/>
  <use xlink:href="#glyph0-22" x="340.677734" y="27.477539"/>
  <use xlink:href="#glyph0-24" x="344.289551" y="27.477539"/>
  <use xlink:href="#glyph0-25" x="352.528809" y="27.477539"/>
  <use xlink:href="#glyph0-22" x="359.67627" y="27.477539"/>
  <use xlink:href="#glyph0-13" x="363.288086" y="27.477539"/>
  <use xlink:href="#glyph0-4" x="371.540039" y="27.477539"/>
  <use xlink:href="#glyph0-24" x="379.538086" y="27.477539"/>
  <use xlink:href="#glyph0-25" x="387.777344" y="27.477539"/>
  <use xlink:href="#glyph0-4" x="394.924805" y="27.477539"/>
  <use xlink:href="#glyph0-1" x="402.922852" y="27.477539"/>
  <use xlink:href="#glyph0-26" x="407.055176" y="27.477539"/>
  <use xlink:href="#glyph0-1" x="412.126953" y="27.477539"/>
  <use xlink:href="#glyph0-27" x="416.259277" y="27.477539"/>
  <use xlink:href="#glyph0-1" x="424.530273" y="27.477539"/>
  <use xlink:href="#glyph0-13" x="428.662598" y="27.477539"/>
  <use xlink:href="#glyph0-14" x="436.914551" y="27.477539"/>
  <use xlink:href="#glyph0-15" x="444.880859" y="27.477539"/>
  <use xlink:href="#glyph0-16" x="452.574219" y="27.477539"/>
  <use xlink:href="#glyph0-1" x="459.347168" y="27.477539"/>
  <use xlink:href="#glyph0-28" x="463.479492" y="27.477539"/>
</g>
<path style="fill:none;stroke-width:20;stroke-linecap:butt;stroke-linejoin:miter;stroke:rgb(0%,0%,0%);stroke-opacity:1;stroke-miterlimit:10;" d="M 8520 1615.3125 L 8520 1017.1875 " transform="matrix(0.05,0,0,0.05,0,0)"/>
<path style="fill:none;stroke-width:20;stroke-linecap:butt;stroke-linejoin:miter;stroke:rgb(0%,0%,0%);stroke-opacity:1;stroke-miterlimit:10;" d="M 8520 1017.1875 L 12159.0625 1017.1875 " transform="matrix(0.05,0,0,0.05,0,0)"/>
<path style="fill:none;stroke-width:20;stroke-linecap:butt;stroke-linejoin:miter;stroke:rgb(0%,0%,0%);stroke-opacity:1;stroke-miterlimit:10;" d="M 12159.0625 1017.1875 L 12159.0625 1615.3125 " transform="matrix(0.05,0,0,0.05,0,0)"/>
<path style="fill:none;stroke-width:20;stroke-linecap:butt;stroke-linejoin:miter;stroke:rgb(0%,0%,0%);stroke-opacity:1;stroke-miterlimit:10;" d="M 12159.0625 1615.3125 L 8520 1615.3125 " transform="matrix(0.05,0,0,0.05,0,0)"/>
<g style="fill:rgb(0%,0%,0%);fill-opacity:1;">
  <use xlink:href="#glyph0-29" x="431.289062" y="63.352539"/>
  <use xlink:href="#glyph0-30" x="434.862793" y="63.352539"/>
  <use xlink:href="#glyph0-31" x="443.895508" y="63.352539"/>
  <use xlink:href="#glyph0-7" x="454.788086" y="63.352539"/>
  <use xlink:href="#glyph0-3" x="463.059082" y="63.352539"/>
  <use xlink:href="#glyph0-2" x="467.191406" y="63.352539"/>
  <use xlink:href="#glyph0-2" x="475.462402" y="63.352539"/>
  <use xlink:href="#glyph0-2" x="483.733398" y="63.352539"/>
  <use xlink:href="#glyph0-32" x="492.004395" y="63.352539"/>
  <use xlink:href="#glyph0-33" x="498.504395" y="63.352539"/>
  <use xlink:href="#glyph0-31" x="506.445312" y="63.352539"/>
  <use xlink:href="#glyph0-8" x="517.337891" y="63.352539"/>
  <use xlink:href="#glyph0-12" x="525.608887" y="63.352539"/>
  <use xlink:href="#glyph0-2" x="533.879883" y="63.352539"/>
  <use xlink:href="#glyph0-13" x="542.150879" y="63.352539"/>
  <use xlink:href="#glyph0-29" x="550.402832" y="63.352539"/>
</g>
<path style="fill:none;stroke-width:20;stroke-linecap:butt;stroke-linejoin:miter;stroke:rgb(58.039216%,0%,82.745098%);stroke-opacity:1;stroke-miterlimit:10;" d="M 11240 1166.484375 L 11999.0625 1166.484375 " transform="matrix(0.05,0,0,0.05,0,0)"/>
<path style="fill:none;stroke-width:20;stroke-linecap:butt;stroke-linejoin:miter;stroke:rgb(58.039216%,0%,82.745098%);stroke-opacity:1;stroke-miterlimit:10;" d="M 2362.96875 6723.984375 L 2472.96875 6723.984375 L 2482.03125 6722.96875 L 2601.015625 6722.96875 L 2610 6722.03125 L 2656.015625 6722.03125 L 2665 6721.015625 L 2692.03125 6721.015625 L 2702.03125 6720 L 2728.984375 6720 L 2737.96875 6718.984375 L 2747.03125 6718.984375 L 2757.03125 6717.96875 L 2766.015625 6717.96875 L 2775 6717.03125 L 2783.984375 6717.03125 L 2792.96875 6716.015625 L 2802.03125 6716.015625 L 2811.015625 6715 L 2821.015625 6713.984375 L 2830 6712.96875 L 2838.984375 6712.96875 L 2847.96875 6712.03125 L 2857.03125 6711.015625 L 2866.015625 6710 L 2875 6707.96875 L 2885 6707.03125 L 2893.984375 6706.015625 L 2902.96875 6703.984375 L 2912.03125 6702.96875 L 2921.015625 6701.015625 L 2930 6698.984375 L 2940 6697.03125 L 2948.984375 6695 L 2957.96875 6692.03125 L 2967.03125 6690 L 2976.015625 6687.03125 L 2985 6683.984375 L 2993.984375 6681.015625 L 3003.984375 6677.03125 L 3012.96875 6673.984375 L 3022.03125 6668.984375 L 3031.015625 6665 L 3048.984375 6655 L 3058.984375 6648.984375 L 3067.96875 6642.96875 L 3077.03125 6637.03125 L 3086.015625 6630 L 3095 6622.03125 L 3103.984375 6613.984375 L 3122.96875 6595 L 3132.03125 6585 L 3141.015625 6573.984375 L 3150 6561.015625 L 3158.984375 6547.96875 L 3167.96875 6533.984375 L 3177.03125 6518.984375 L 3187.03125 6502.03125 L 3196.015625 6485 L 3213.984375 6445 L 3222.96875 6422.03125 L 3232.03125 6397.96875 L 3242.03125 6372.96875 L 3251.015625 6345 L 3260 6315 L 3268.984375 6282.03125 L 3277.96875 6247.03125 L 3287.03125 6210 L 3296.015625 6168.984375 L 3306.015625 6126.015625 L 3315 6080 L 3323.984375 6030 L 3332.96875 5976.015625 L 3342.03125 5918.984375 L 3351.015625 5857.03125 L 3360 5791.015625 L 3370 5721.015625 L 3378.984375 5645 L 3387.96875 5565 L 3397.03125 5478.984375 L 3406.015625 5387.96875 L 3415 5291.015625 L 3425 5187.96875 L 3433.984375 5078.984375 L 3442.96875 4962.96875 L 3452.03125 4841.015625 L 3461.015625 4712.96875 L 3470 4577.03125 L 3478.984375 4435 L 3488.984375 4287.03125 L 3497.96875 4132.03125 L 3507.03125 3972.03125 L 3516.015625 3805 L 3525 3633.984375 L 3533.984375 3458.984375 L 3542.96875 3280 L 3552.96875 3097.96875 L 3562.03125 2916.015625 L 3571.015625 2733.984375 L 3580 2553.984375 L 3588.984375 2378.984375 L 3597.96875 2210 L 3607.96875 2050 L 3617.03125 1901.015625 L 3626.015625 1767.03125 L 3635 1650 L 3643.984375 1555 L 3652.96875 1482.96875 L 3662.03125 1438.984375 L 3672.03125 1425 L 3681.015625 1443.984375 L 3690 1497.96875 L 3698.984375 1590 L 3707.96875 1720 L 3717.03125 1887.96875 L 3727.03125 2092.96875 L 3736.015625 2333.984375 L 3745 2607.03125 L 3753.984375 2907.03125 L 3762.96875 3227.96875 L 3772.03125 3562.96875 L 3781.015625 3905 L 3791.015625 4245 L 3800 4575 L 3808.984375 4886.015625 L 3817.96875 5171.015625 L 3827.03125 5427.03125 L 3836.015625 5651.015625 L 3845 5842.03125 L 3855 6000 L 3863.984375 6130 L 3872.96875 6235 L 3882.03125 6320 L 3891.015625 6387.03125 L 3900 6441.015625 L 3910 6483.984375 L 3918.984375 6518.984375 L 3927.96875 6547.96875 L 3937.03125 6572.03125 L 3946.015625 6591.015625 L 3955 6607.96875 L 3963.984375 6621.015625 L 3973.984375 6632.96875 L 3982.96875 6642.96875 L 3992.03125 6651.015625 L 4001.015625 6657.96875 L 4010 6665 L 4027.96875 6675 L 4037.96875 6678.984375 L 4047.03125 6682.96875 L 4056.015625 6686.015625 L 4065 6688.984375 L 4073.984375 6692.03125 L 4082.96875 6693.984375 L 4092.96875 6696.015625 L 4102.03125 6697.96875 L 4111.015625 6700 L 4128.984375 6702.03125 L 4137.96875 6703.984375 L 4147.03125 6705 L 4157.03125 6706.015625 L 4166.015625 6707.03125 L 4175 6707.96875 L 4183.984375 6707.96875 L 4192.96875 6708.984375 L 4202.03125 6710 L 4211.015625 6710 L 4221.015625 6711.015625 L 4230 6711.015625 L 4238.984375 6712.03125 L 4247.96875 6712.03125 L 4257.03125 6712.96875 L 4276.015625 6712.96875 L 4285 6713.984375 L 4312.03125 6713.984375 L 4321.015625 6715 L 4348.984375 6715 L 4357.96875 6716.015625 L 4422.03125 6716.015625 L 4431.015625 6717.03125 L 4677.96875 6717.03125 L 4687.03125 6716.015625 L 4761.015625 6716.015625 L 4770 6715 L 4825 6715 L 4833.984375 6713.984375 L 4870 6713.984375 L 4878.984375 6712.96875 L 4907.03125 6712.96875 L 4916.015625 6712.03125 L 4943.984375 6712.03125 L 4952.96875 6711.015625 L 4971.015625 6711.015625 L 4980 6710 L 4988.984375 6710 L 4997.96875 6708.984375 L 5017.03125 6708.984375 L 5026.015625 6707.96875 L 5035 6707.96875 L 5043.984375 6707.03125 L 5052.96875 6707.03125 L 5062.96875 6706.015625 L 5072.03125 6706.015625 L 5081.015625 6705 L 5090 6705 L 5107.96875 6702.96875 L 5117.03125 6702.96875 L 5127.03125 6702.03125 L 5145 6700 L 5153.984375 6700 L 5162.96875 6698.984375 L 5172.03125 6697.96875 L 5181.015625 6697.03125 L 5191.015625 6696.015625 L 5217.96875 6692.96875 L 5227.03125 6692.03125 L 5236.015625 6691.015625 L 5246.015625 6688.984375 L 5255 6687.96875 L 5263.984375 6687.03125 L 5272.96875 6685 L 5282.03125 6683.984375 L 5291.015625 6682.03125 L 5300 6681.015625 L 5310 6678.984375 L 5318.984375 6677.03125 L 5327.96875 6676.015625 L 5337.03125 6673.984375 L 5346.015625 6672.03125 L 5355 6670 L 5363.984375 6667.03125 L 5373.984375 6665 L 5382.96875 6662.96875 L 5392.03125 6660 L 5401.015625 6657.96875 L 5418.984375 6652.03125 L 5428.984375 6648.984375 L 5437.96875 6646.015625 L 5447.03125 6642.96875 L 5465 6635 L 5473.984375 6632.03125 L 5482.96875 6627.96875 L 5492.96875 6622.96875 L 5502.03125 6618.984375 L 5511.015625 6613.984375 L 5520 6610 L 5528.984375 6605 L 5537.96875 6598.984375 L 5547.03125 6593.984375 L 5557.03125 6587.96875 L 5566.015625 6582.03125 L 5575 6576.015625 L 5583.984375 6568.984375 L 5592.96875 6562.03125 L 5602.03125 6555 L 5612.03125 6547.03125 L 5621.015625 6538.984375 L 5630 6530 L 5638.984375 6522.03125 L 5647.96875 6512.03125 L 5657.03125 6502.96875 L 5666.015625 6492.96875 L 5676.015625 6482.03125 L 5685 6471.015625 L 5693.984375 6458.984375 L 5702.96875 6447.03125 L 5712.03125 6433.984375 L 5721.015625 6421.015625 L 5731.015625 6407.03125 L 5748.984375 6377.03125 L 5757.96875 6361.015625 L 5767.03125 6343.984375 L 5776.015625 6326.015625 L 5785 6307.96875 L 5795 6288.984375 L 5803.984375 6268.984375 L 5812.96875 6247.96875 L 5822.03125 6227.03125 L 5831.015625 6203.984375 L 5848.984375 6156.015625 L 5858.984375 6130 L 5867.96875 6103.984375 L 5877.03125 6076.015625 L 5886.015625 6047.03125 L 5895 6017.03125 L 5903.984375 5986.015625 L 5913.984375 5953.984375 L 5922.96875 5921.015625 L 5932.03125 5887.03125 L 5941.015625 5851.015625 L 5950 5813.984375 L 5958.984375 5777.03125 L 5967.96875 5737.96875 L 5977.96875 5697.96875 L 5987.03125 5657.03125 L 5996.015625 5613.984375 L 6005 5571.015625 L 6013.984375 5527.03125 L 6022.96875 5482.03125 L 6032.03125 5436.015625 L 6042.03125 5390 L 6051.015625 5342.96875 L 6068.984375 5247.03125 L 6077.96875 5198.984375 L 6087.03125 5151.015625 L 6097.03125 5102.96875 L 6115 5007.03125 L 6123.984375 4960 L 6132.96875 4915 L 6142.03125 4870 L 6151.015625 4827.03125 L 6161.015625 4785 L 6170 4746.015625 L 6178.984375 4707.96875 L 6187.96875 4673.984375 L 6197.03125 4642.03125 L 6206.015625 4612.96875 L 6215 4587.03125 L 6225 4565 L 6233.984375 4547.03125 L 6242.96875 4532.96875 L 6252.03125 4523.984375 L 6261.015625 4518.984375 L 6270 4517.96875 L 6280 4522.96875 L 6288.984375 4532.03125 L 6297.96875 4546.015625 L 6307.03125 4565 L 6316.015625 4588.984375 L 6325 4617.96875 L 6333.984375 4651.015625 L 6343.984375 4688.984375 L 6352.96875 4730 L 6362.03125 4776.015625 L 6371.015625 4825 L 6380 4877.03125 L 6388.984375 4932.03125 L 6398.984375 4988.984375 L 6407.96875 5047.96875 L 6417.03125 5107.96875 L 6435 5232.03125 L 6443.984375 5293.984375 L 6452.96875 5356.015625 L 6462.96875 5417.96875 L 6472.03125 5477.96875 L 6481.015625 5537.96875 L 6490 5596.015625 L 6498.984375 5652.03125 L 6507.96875 5707.03125 L 6517.03125 5758.984375 L 6527.03125 5810 L 6536.015625 5857.96875 L 6545 5903.984375 L 6553.984375 5947.96875 L 6562.96875 5988.984375 L 6572.03125 6028.984375 L 6582.03125 6066.015625 L 6591.015625 6101.015625 L 6600 6133.984375 L 6608.984375 6165 L 6617.96875 6193.984375 L 6627.03125 6222.03125 L 6636.015625 6247.03125 L 6646.015625 6271.015625 L 6655 6293.984375 L 6663.984375 6315 L 6672.96875 6333.984375 L 6682.03125 6352.96875 L 6691.015625 6370 L 6700 6386.015625 L 6710 6401.015625 L 6727.96875 6428.984375 L 6737.03125 6441.015625 L 6746.015625 6452.03125 L 6755 6462.96875 L 6765 6472.96875 L 6773.984375 6482.96875 L 6782.96875 6492.03125 L 6792.03125 6500 L 6801.015625 6507.96875 L 6818.984375 6522.03125 L 6828.984375 6527.96875 L 6837.96875 6533.984375 L 6847.03125 6540 L 6873.984375 6555 L 6882.96875 6558.984375 L 6892.96875 6562.96875 L 6902.03125 6567.03125 L 6911.015625 6571.015625 L 6920 6573.984375 L 6928.984375 6577.96875 L 6937.96875 6581.015625 L 6947.96875 6582.96875 L 6957.03125 6586.015625 L 6966.015625 6587.96875 L 6975 6591.015625 L 6983.984375 6592.96875 L 6992.96875 6595 L 7002.03125 6597.03125 L 7012.03125 6598.984375 L 7021.015625 6600 L 7030 6602.03125 L 7038.984375 6602.96875 L 7047.96875 6603.984375 L 7057.03125 6605 L 7067.03125 6607.03125 L 7076.015625 6607.96875 L 7085 6607.96875 L 7102.96875 6610 L 7112.03125 6611.015625 L 7121.015625 6611.015625 L 7131.015625 6612.03125 L 7157.96875 6612.03125 L 7167.03125 6612.96875 L 7203.984375 6612.96875 L 7212.96875 6612.03125 L 7231.015625 6612.03125 L 7240 6611.015625 L 7250 6611.015625 L 7258.984375 6610 L 7267.96875 6610 L 7277.03125 6608.984375 L 7286.015625 6607.96875 L 7295 6607.96875 L 7303.984375 6607.03125 L 7313.984375 6606.015625 L 7322.96875 6605 L 7332.03125 6603.984375 L 7341.015625 6602.96875 L 7350 6602.03125 L 7358.984375 6600 L 7367.96875 6598.984375 L 7377.96875 6597.96875 L 7387.03125 6596.015625 L 7396.015625 6595 L 7405 6592.96875 L 7413.984375 6591.015625 L 7422.96875 6590 L 7432.96875 6587.96875 L 7442.03125 6586.015625 L 7451.015625 6583.984375 L 7460 6582.03125 L 7468.984375 6578.984375 L 7477.96875 6577.03125 L 7487.03125 6575 L 7497.03125 6572.03125 L 7506.015625 6570 L 7515 6567.03125 L 7523.984375 6563.984375 L 7532.96875 6561.015625 L 7542.03125 6557.96875 L 7551.015625 6555 L 7561.015625 6552.03125 L 7570 6548.984375 L 7587.96875 6541.015625 L 7597.03125 6537.96875 L 7606.015625 6533.984375 L 7616.015625 6530 L 7633.984375 6522.03125 L 7642.96875 6517.03125 L 7652.03125 6512.96875 L 7670 6502.96875 L 7680 6497.96875 L 7688.984375 6492.96875 L 7697.96875 6487.03125 L 7707.03125 6482.03125 L 7725 6470 L 7735 6463.984375 L 7743.984375 6457.96875 L 7752.96875 6451.015625 L 7762.03125 6443.984375 L 7771.015625 6437.03125 L 7788.984375 6422.96875 L 7798.984375 6415 L 7807.96875 6407.03125 L 7817.03125 6398.984375 L 7826.015625 6391.015625 L 7835 6382.03125 L 7843.984375 6372.96875 L 7852.96875 6363.984375 L 7862.96875 6355 L 7872.03125 6345 L 7898.984375 6315 L 7907.96875 6303.984375 L 7917.96875 6292.96875 L 7927.03125 6281.015625 L 7936.015625 6270 L 7945 6257.96875 L 7953.984375 6245 L 7962.96875 6232.96875 L 7972.03125 6220 L 7982.03125 6207.03125 L 7991.015625 6192.96875 L 8017.96875 6151.015625 L 8027.03125 6136.015625 L 8036.015625 6121.015625 L 8046.015625 6106.015625 L 8072.96875 6057.96875 L 8082.03125 6041.015625 L 8091.015625 6025 L 8101.015625 6007.96875 L 8110 5990 L 8118.984375 5972.96875 L 8127.96875 5955 L 8137.03125 5937.96875 L 8155 5902.03125 L 8165 5882.96875 L 8182.96875 5847.03125 L 8192.03125 5827.96875 L 8210 5792.03125 L 8218.984375 5772.96875 L 8228.984375 5755 L 8237.96875 5737.03125 L 8247.03125 5718.984375 L 8256.015625 5702.03125 L 8265 5683.984375 L 8273.984375 5667.03125 L 8283.984375 5651.015625 L 8292.96875 5633.984375 L 8302.03125 5617.96875 L 8320 5587.96875 L 8328.984375 5573.984375 L 8337.96875 5561.015625 L 8347.96875 5547.96875 L 8357.03125 5536.015625 L 8366.015625 5523.984375 L 8383.984375 5503.984375 L 8392.96875 5496.015625 L 8402.96875 5487.96875 L 8412.03125 5481.015625 L 8430 5471.015625 L 8438.984375 5467.96875 L 8447.96875 5465 L 8457.03125 5463.984375 L 8467.03125 5463.984375 L 8476.015625 5465 L 8485 5467.03125 L 8502.96875 5475 L 8512.03125 5481.015625 L 8521.015625 5487.03125 L 8531.015625 5495 L 8540 5503.984375 L 8548.984375 5513.984375 L 8557.96875 5525 L 8567.03125 5537.03125 L 8576.015625 5550 L 8586.015625 5563.984375 L 8595 5577.96875 L 8612.96875 5610 L 8622.03125 5626.015625 L 8631.015625 5642.96875 L 8640 5661.015625 L 8650 5678.984375 L 8658.984375 5697.96875 L 8667.96875 5717.03125 L 8677.03125 5736.015625 L 8686.015625 5756.015625 L 8695 5775 L 8703.984375 5795 L 8713.984375 5815 L 8722.96875 5835 L 8732.03125 5853.984375 L 8741.015625 5873.984375 L 8750 5892.96875 L 8758.984375 5912.96875 L 8768.984375 5932.03125 L 8777.96875 5951.015625 L 8787.03125 5968.984375 L 8796.015625 5987.96875 L 8805 6005 L 8813.984375 6022.96875 L 8822.96875 6040 L 8832.96875 6057.03125 L 8842.03125 6072.96875 L 8860 6105 L 8877.96875 6135 L 8887.03125 6148.984375 L 8897.03125 6162.96875 L 8906.015625 6176.015625 L 8915 6188.984375 L 8923.984375 6202.03125 L 8932.96875 6213.984375 L 8942.03125 6226.015625 L 8952.03125 6237.03125 L 8961.015625 6247.96875 L 8970 6258.984375 L 8987.96875 6278.984375 L 8997.03125 6287.96875 L 9006.015625 6297.03125 L 9016.015625 6306.015625 L 9025 6313.984375 L 9033.984375 6322.03125 L 9042.96875 6330 L 9052.03125 6337.03125 L 9061.015625 6343.984375 L 9071.015625 6351.015625 L 9080 6357.96875 L 9097.96875 6370 L 9107.03125 6375 L 9116.015625 6381.015625 L 9125 6386.015625 L 9135 6391.015625 L 9143.984375 6396.015625 L 9152.96875 6400 L 9162.03125 6405 L 9180 6412.96875 L 9188.984375 6416.015625 L 9198.984375 6420 L 9207.96875 6422.96875 L 9217.03125 6426.015625 L 9226.015625 6428.984375 L 9235 6432.03125 L 9243.984375 6435 L 9253.984375 6437.03125 L 9262.96875 6438.984375 L 9272.03125 6442.03125 L 9281.015625 6443.984375 L 9290 6445 L 9298.984375 6447.03125 L 9307.96875 6448.984375 L 9317.96875 6450 L 9327.03125 6451.015625 L 9336.015625 6452.96875 L 9362.96875 6456.015625 L 9372.03125 6456.015625 L 9382.03125 6457.03125 L 9391.015625 6457.03125 L 9400 6457.96875 L 9455 6457.96875 L 9463.984375 6457.03125 L 9472.96875 6457.03125 L 9482.03125 6456.015625 L 9491.015625 6455 L 9501.015625 6455 L 9518.984375 6452.96875 L 9527.96875 6452.03125 L 9537.03125 6450 L 9555 6447.96875 L 9565 6446.015625 L 9573.984375 6443.984375 L 9582.96875 6442.96875 L 9592.03125 6441.015625 L 9601.015625 6438.984375 L 9610 6437.03125 L 9620 6435 L 9628.984375 6432.96875 L 9637.96875 6430 L 9647.03125 6427.96875 L 9656.015625 6425 L 9665 6422.96875 L 9673.984375 6420 L 9683.984375 6417.03125 L 9692.96875 6413.984375 L 9702.03125 6411.015625 L 9711.015625 6407.96875 L 9720 6405 L 9728.984375 6401.015625 L 9738.984375 6397.96875 L 9747.96875 6393.984375 L 9757.03125 6391.015625 L 9766.015625 6387.03125 L 9775 6382.96875 L 9792.96875 6375 L 9802.96875 6370 L 9812.03125 6366.015625 L 9821.015625 6361.015625 L 9830 6357.03125 L 9847.96875 6347.03125 L 9857.03125 6342.03125 L 9867.03125 6337.03125 L 9885 6327.03125 L 9893.984375 6321.015625 L 9902.96875 6316.015625 L 9912.03125 6310 L 9922.03125 6303.984375 L 9931.015625 6297.96875 L 9940 6292.03125 L 9948.984375 6286.015625 L 9957.96875 6278.984375 L 9967.03125 6272.96875 L 9976.015625 6266.015625 L 9986.015625 6260 L 9995 6252.96875 L 10003.984375 6246.015625 L 10012.96875 6238.984375 L 10022.03125 6232.03125 L 10031.015625 6225 L 10040 6217.03125 L 10050 6210 L 10058.984375 6202.03125 L 10067.96875 6195 L 10077.03125 6187.03125 L 10086.015625 6178.984375 L 10095 6171.015625 L 10105 6162.96875 L 10122.96875 6147.03125 L 10132.03125 6138.984375 L 10141.015625 6130 L 10150 6122.03125 L 10158.984375 6113.984375 L 10168.984375 6105 L 10177.96875 6097.03125 L 10187.03125 6087.96875 L 10196.015625 6080 L 10205 6071.015625 L 10213.984375 6062.96875 L 10222.96875 6053.984375 L 10232.96875 6045 L 10242.03125 6037.03125 L 10251.015625 6027.96875 L 10268.984375 6012.03125 L 10277.96875 6002.96875 L 10287.96875 5995 L 10297.03125 5987.03125 L 10306.015625 5978.984375 L 10315 5971.015625 L 10323.984375 5962.96875 L 10332.96875 5955 L 10342.03125 5947.96875 L 10352.03125 5940 L 10361.015625 5932.96875 L 10370 5926.015625 L 10378.984375 5918.984375 L 10387.96875 5912.03125 L 10397.03125 5906.015625 L 10407.03125 5898.984375 L 10416.015625 5892.96875 L 10425 5887.96875 L 10433.984375 5882.03125 L 10442.96875 5877.03125 L 10452.03125 5872.03125 L 10461.015625 5867.96875 L 10471.015625 5862.96875 L 10480 5858.984375 L 10488.984375 5856.015625 L 10497.96875 5852.03125 L 10507.03125 5848.984375 L 10516.015625 5847.03125 L 10525 5843.984375 L 10535 5842.03125 L 10552.96875 5840 L 10562.03125 5838.984375 L 10571.015625 5837.96875 L 10580 5837.96875 L 10590 5838.984375 L 10598.984375 5838.984375 L 10607.96875 5841.015625 L 10617.03125 5842.03125 L 10626.015625 5843.984375 L 10635 5846.015625 L 10643.984375 5848.984375 L 10653.984375 5851.015625 L 10662.96875 5855 L 10672.03125 5857.96875 L 10681.015625 5862.03125 L 10690 5866.015625 L 10707.96875 5876.015625 L 10717.96875 5881.015625 L 10727.03125 5886.015625 L 10736.015625 5892.03125 L 10745 5897.96875 L 10762.96875 5910 L 10772.96875 5917.03125 L 10782.03125 5923.984375 L 10791.015625 5931.015625 L 10800 5937.96875 L 10808.984375 5945 L 10817.96875 5952.96875 L 10827.03125 5960 L 10837.03125 5967.96875 L 10846.015625 5976.015625 L 10855 5983.984375 L 10863.984375 5992.03125 L 10872.96875 6000 L 10882.03125 6007.96875 L 10891.015625 6016.015625 L 10901.015625 6023.984375 L 10910 6032.03125 L 10927.96875 6047.96875 L 10937.03125 6056.015625 L 10946.015625 6063.984375 L 10956.015625 6072.03125 L 10973.984375 6087.96875 L 10982.96875 6096.015625 L 10992.03125 6102.96875 L 11001.015625 6111.015625 L 11010 6117.96875 L 11020 6126.015625 L 11028.984375 6132.96875 L 11037.96875 6140 L 11047.03125 6147.03125 L 11056.015625 6153.984375 L 11065 6161.015625 L 11075 6167.96875 L 11083.984375 6175 L 11092.96875 6181.015625 L 11102.03125 6187.96875 L 11128.984375 6206.015625 L 11138.984375 6212.03125 L 11147.96875 6217.03125 L 11157.03125 6222.96875 L 11175 6232.96875 L 11183.984375 6238.984375 L 11192.96875 6243.984375 L 11202.96875 6247.96875 L 11212.03125 6252.96875 L 11221.015625 6257.96875 L 11230 6262.03125 L 11247.96875 6270 L 11257.96875 6273.984375 L 11267.03125 6277.96875 L 11276.015625 6282.03125 L 11285 6286.015625 L 11293.984375 6288.984375 L 11302.96875 6292.03125 L 11312.03125 6296.015625 L 11322.03125 6298.984375 L 11331.015625 6302.03125 L 11340 6305 L 11348.984375 6307.03125 L 11357.96875 6310 L 11367.03125 6312.03125 L 11376.015625 6315 L 11386.015625 6317.03125 L 11395 6318.984375 L 11403.984375 6321.015625 L 11412.96875 6322.96875 L 11422.03125 6325 L 11431.015625 6326.015625 L 11441.015625 6327.96875 L 11450 6330 L 11467.96875 6332.03125 L 11477.03125 6332.96875 L 11495 6335 L 11505 6336.015625 L 11513.984375 6337.03125 L 11522.96875 6337.03125 L 11532.03125 6337.96875 L 11541.015625 6337.96875 L 11550 6338.984375 L 11613.984375 6338.984375 L 11623.984375 6337.96875 L 11632.96875 6337.96875 L 11642.03125 6337.03125 L 11651.015625 6337.03125 L 11677.96875 6333.984375 L 11687.96875 6332.96875 L 11697.03125 6332.03125 L 11723.984375 6328.984375 L 11732.96875 6327.03125 L 11742.96875 6326.015625 L 11752.03125 6323.984375 L 11761.015625 6322.96875 L 11770 6321.015625 L 11778.984375 6318.984375 L 11787.96875 6317.03125 L 11797.03125 6315 L 11807.03125 6312.96875 L 11816.015625 6311.015625 L 11825 6308.984375 L 11833.984375 6307.03125 L 11842.96875 6305 L 11852.03125 6302.03125 L 11861.015625 6300 L 11871.015625 6297.03125 L 11880 6295 L 11888.984375 6292.03125 L 11897.96875 6288.984375 L 11907.03125 6286.015625 L 11916.015625 6283.984375 L 11926.015625 6281.015625 L 11935 6277.96875 L 11943.984375 6273.984375 L 11952.96875 6271.015625 L 11962.03125 6267.96875 L 11971.015625 6265 L 11980 6261.015625 L 11990 6257.96875 L 11998.984375 6255 L 12007.96875 6251.015625 L 12017.03125 6247.03125 L 12026.015625 6243.984375 L 12043.984375 6236.015625 L 12053.984375 6232.96875 L 12062.96875 6228.984375 L 12072.03125 6225 L 12090 6217.03125 L 12098.984375 6212.96875 L 12108.984375 6208.984375 L 12117.96875 6205 L 12127.03125 6200 L 12145 6192.03125 L 12153.984375 6187.96875 L 12162.96875 6183.984375 L 12172.96875 6178.984375 L 12182.03125 6175 L 12191.015625 6171.015625 L 12200 6166.015625 L 12208.984375 6162.03125 L 12217.96875 6157.03125 L 12227.03125 6152.96875 L 12237.03125 6148.984375 L 12246.015625 6143.984375 L 12263.984375 6136.015625 L 12272.96875 6131.015625 L 12282.03125 6127.03125 L 12292.03125 6122.03125 L 12301.015625 6117.96875 L 12310 6113.984375 " transform="matrix(0.05,0,0,0.05,0,0)"/>
<g style="fill:rgb(0%,0%,0%);fill-opacity:1;">
  <use xlink:href="#glyph0-29" x="448.445312" y="78.301758"/>
  <use xlink:href="#glyph0-30" x="452.019043" y="78.301758"/>
  <use xlink:href="#glyph0-31" x="461.051758" y="78.301758"/>
  <use xlink:href="#glyph0-7" x="471.944336" y="78.301758"/>
  <use xlink:href="#glyph0-3" x="480.215332" y="78.301758"/>
  <use xlink:href="#glyph0-2" x="484.347656" y="78.301758"/>
  <use xlink:href="#glyph0-2" x="492.618652" y="78.301758"/>
  <use xlink:href="#glyph0-2" x="500.889648" y="78.301758"/>
  <use xlink:href="#glyph0-32" x="509.160645" y="78.301758"/>
  <use xlink:href="#glyph0-33" x="515.660645" y="78.301758"/>
  <use xlink:href="#glyph0-31" x="523.601562" y="78.301758"/>
  <use xlink:href="#glyph0-34" x="534.494141" y="78.301758"/>
  <use xlink:href="#glyph0-34" x="542.447754" y="78.301758"/>
  <use xlink:href="#glyph0-29" x="550.401367" y="78.301758"/>
</g>
<path style="fill:none;stroke-width:20;stroke-linecap:butt;stroke-linejoin:miter;stroke:rgb(0%,61.960784%,45.098039%);stroke-opacity:1;stroke-miterlimit:10;" d="M 11240 1465.546875 L 11999.0625 1465.546875 " transform="matrix(0.05,0,0,0.05,0,0)"/>
<path style="fill:none;stroke-width:20;stroke-linecap:butt;stroke-linejoin:miter;stroke:rgb(0%,61.960784%,45.098039%);stroke-opacity:1;stroke-miterlimit:10;" d="M 2362.96875 6723.984375 L 2472.96875 6723.984375 L 2482.03125 6722.96875 L 2601.015625 6722.96875 L 2610 6722.03125 L 2656.015625 6722.03125 L 2665 6721.015625 L 2692.03125 6721.015625 L 2702.03125 6720 L 2728.984375 6720 L 2737.96875 6718.984375 L 2747.03125 6718.984375 L 2757.03125 6717.96875 L 2766.015625 6717.96875 L 2775 6717.03125 L 2783.984375 6717.03125 L 2792.96875 6716.015625 L 2802.03125 6716.015625 L 2811.015625 6715 L 2821.015625 6713.984375 L 2830 6712.96875 L 2838.984375 6712.96875 L 2847.96875 6712.03125 L 2857.03125 6711.015625 L 2866.015625 6710 L 2875 6707.96875 L 2885 6707.03125 L 2893.984375 6706.015625 L 2902.96875 6703.984375 L 2912.03125 6702.96875 L 2921.015625 6701.015625 L 2930 6698.984375 L 2940 6697.03125 L 2948.984375 6695 L 2957.96875 6692.03125 L 2967.03125 6690 L 2976.015625 6687.03125 L 2985 6683.984375 L 2993.984375 6681.015625 L 3003.984375 6677.03125 L 3012.96875 6673.984375 L 3022.03125 6668.984375 L 3031.015625 6665 L 3048.984375 6655 L 3058.984375 6648.984375 L 3067.96875 6642.96875 L 3077.03125 6637.03125 L 3086.015625 6630 L 3095 6622.03125 L 3103.984375 6613.984375 L 3122.96875 6595 L 3132.03125 6585 L 3141.015625 6573.984375 L 3150 6562.03125 L 3158.984375 6547.96875 L 3167.96875 6533.984375 L 3177.03125 6518.984375 L 3187.03125 6502.96875 L 3196.015625 6485 L 3205 6466.015625 L 3213.984375 6445 L 3222.96875 6422.96875 L 3232.03125 6398.984375 L 3242.03125 6372.96875 L 3251.015625 6345 L 3260 6315 L 3268.984375 6282.96875 L 3277.96875 6247.96875 L 3287.03125 6211.015625 L 3296.015625 6171.015625 L 3306.015625 6127.96875 L 3315 6082.03125 L 3323.984375 6032.03125 L 3332.96875 5978.984375 L 3342.03125 5922.03125 L 3351.015625 5861.015625 L 3360 5796.015625 L 3370 5726.015625 L 3378.984375 5652.03125 L 3387.96875 5572.03125 L 3397.03125 5487.96875 L 3406.015625 5397.96875 L 3415 5302.03125 L 3425 5201.015625 L 3433.984375 5093.984375 L 3442.96875 4981.015625 L 3452.03125 4861.015625 L 3461.015625 4736.015625 L 3470 4603.984375 L 3478.984375 4467.03125 L 3488.984375 4322.96875 L 3497.96875 4173.984375 L 3507.03125 4020 L 3516.015625 3861.015625 L 3525 3697.96875 L 3533.984375 3531.015625 L 3542.96875 3362.96875 L 3552.96875 3192.96875 L 3562.03125 3023.984375 L 3571.015625 2857.03125 L 3580 2693.984375 L 3588.984375 2537.96875 L 3597.96875 2388.984375 L 3607.96875 2252.03125 L 3617.03125 2128.984375 L 3626.015625 2022.03125 L 3635 1936.015625 L 3643.984375 1872.03125 L 3652.96875 1835 L 3662.03125 1827.96875 L 3672.03125 1852.96875 L 3681.015625 1912.96875 L 3690 2010 L 3698.984375 2145 L 3707.96875 2317.96875 L 3717.03125 2531.015625 L 3727.03125 2780 L 3736.015625 3063.984375 L 3745 3378.984375 L 3753.984375 3721.015625 L 3762.96875 4086.015625 " transform="matrix(0.05,0,0,0.05,0,0)"/>
<path style="fill:none;stroke-width:20;stroke-linecap:butt;stroke-linejoin:miter;stroke:rgb(0%,0%,0%);stroke-opacity:1;stroke-miterlimit:10;" d="M 2299.0625 898.125 L 2299.140625 6723.4375 L 12319.140625 6723.203125 L 12319.21875 898.28125 L 2299.0625 898.28125 " transform="matrix(0.05,0,0,0.05,0,0)"/>
</g>
</svg>
